<?xml version="1.0" standalone="no"?>
<!DOCTYPE svg PUBLIC "-//W3C//DTD SVG 1.1//EN" "http://www.w3.org/Graphics/SVG/1.1/DTD/svg11.dtd" >
<svg xmlns="http://www.w3.org/2000/svg">
<metadata></metadata>
<defs>
<font id="puristaitalic" horiz-adv-x="1355" >
<font-face units-per-em="2048" ascent="1638" descent="-410" />
<missing-glyph horiz-adv-x="614" />
<glyph horiz-adv-x="0" />
<glyph horiz-adv-x="682" />
<glyph unicode=" "  horiz-adv-x="614" />
<glyph unicode="&#x09;" horiz-adv-x="614" />
<glyph unicode="&#xa0;" horiz-adv-x="614" />
<glyph unicode="!" horiz-adv-x="528" d="M102 0l41 231h158l-39 -231h-160zM172 399l182 1035h160l-184 -1035h-158z" />
<glyph unicode="&#x22;" horiz-adv-x="747" d="M244 918l69 516h181l-113 -516h-137zM524 918l72 516h178l-110 -516h-140z" />
<glyph unicode="#" horiz-adv-x="1497" d="M41 377v129h289l135 424h-244v127h285l121 377h141l-121 -377h422l121 377h139l-121 -377h248v-127h-289l-135 -424h244v-129h-285l-121 -377h-139l119 377h-422l-119 -377h-141l121 377h-248zM469 506h422l137 424h-422z" />
<glyph unicode="$" horiz-adv-x="1273" d="M115 305l22 125h168l-20 -117q-13 -76 23.5 -121t111.5 -45h317q76 0 130 45t67 121l29 166q14 75 -23.5 120.5t-112.5 45.5h-348q-136 0 -205.5 84t-46.5 221l33 178q25 138 123 222t235 84h109l37 204h158l-37 -204h110q137 0 206 -84t44 -222l-20 -124h-170l20 118 q13 75 -23.5 119.5t-111.5 44.5h-317q-76 0 -129.5 -45t-65.5 -119l-31 -166q-12 -75 25.5 -119t112.5 -44h348q135 0 205 -85t45 -221l-33 -182q-23 -136 -121.5 -220.5t-235.5 -84.5h-110l-37 -205h-158l37 205h-108q-137 0 -207 84.5t-45 220.5z" />
<glyph unicode="%" horiz-adv-x="1562" d="M135 0l1231 1434h150l-1231 -1434h-150zM174 868l72 414q12 69 61 110.5t117 41.5h211q67 0 101.5 -41.5t23.5 -110.5l-74 -414q-12 -67 -61 -109t-117 -42h-211q-67 0 -101 41.5t-22 109.5zM289 893q-7 -35 10.5 -56.5t52.5 -21.5h137q35 0 60 21.5t31 56.5l65 364 q6 37 -11 57.5t-52 20.5h-140q-36 0 -60 -21t-30 -57zM891 152l72 413q12 69 61 110.5t117 41.5h211q68 0 102.5 -41.5t22.5 -110.5l-74 -413q-12 -68 -60.5 -110t-115.5 -42h-211q-68 0 -102.5 42.5t-22.5 109.5zM1006 176q-6 -35 11 -56.5t52 -21.5h137q35 0 59.5 21.5 t30.5 56.5l66 365q6 36 -11 56.5t-53 20.5h-137q-36 0 -61 -20.5t-31 -56.5z" />
<glyph unicode="&#x26;" horiz-adv-x="1284" d="M115 305l24 135q17 101 80 175.5t154 103.5q-76 31 -110 104.5t-15 173.5l22 131q25 138 123.5 222t235.5 84h336q137 0 207 -84t45 -222l-21 -108h-168l19 102q12 75 -24.5 119.5t-111.5 44.5h-278q-76 0 -129.5 -45t-65.5 -119l-30 -166q-12 -75 24 -119t111 -44h798 l-26 -148h-185l-112 -645h-127l-4 82q-101 -82 -236 -82h-284q-136 0 -205.5 84t-46.5 221zM285 313q-14 -75 23 -120.5t112 -45.5h289q75 0 127.5 45.5t66.5 120.5l60 332h-453q-75 0 -129.5 -45.5t-67.5 -120.5z" />
<glyph unicode="'" horiz-adv-x="466" d="M244 918l69 516h181l-113 -516h-137z" />
<glyph unicode="(" horiz-adv-x="608" d="M66 29l243 1376q25 138 123.5 221.5t235.5 83.5h118l-26 -147h-88q-76 0 -129.5 -45t-65.5 -119l-241 -1362q-12 -77 24 -121.5t111 -44.5h92l-27 -147h-119q-136 0 -205 84t-46 221z" />
<glyph unicode=")" horiz-adv-x="608" d="M-88 -276l25 147h88q75 0 128 45t66 121l242 1362q12 75 -24 119.5t-111 44.5h-93l27 147h121q135 0 205 -84.5t45 -220.5l-244 -1376q-23 -137 -121.5 -221t-234.5 -84h-119z" />
<glyph unicode="*" horiz-adv-x="942" d="M170 1090l57 112l305 -123l50 355h116l-75 -353l350 121l16 -110l-350 -97l166 -274l-105 -68l-145 293l-248 -293l-84 68l264 274z" />
<glyph unicode="+" horiz-adv-x="1048" d="M94 649l23 137h389l72 406h145l-72 -406h391l-22 -137h-393l-70 -401h-145l71 401h-389z" />
<glyph unicode="," horiz-adv-x="466" d="M18 -236l88 488h179l-148 -488h-119z" />
<glyph unicode="-" horiz-adv-x="530" d="M61 471l25 137h408l-25 -137h-408z" />
<glyph unicode="." horiz-adv-x="466" d="M61 0l45 252h179l-43 -252h-181z" />
<glyph unicode="/" horiz-adv-x="636" d="M-211 -276l1002 1986h147l-1004 -1986h-145z" />
<glyph unicode="0" horiz-adv-x="1273" d="M115 305l145 823q25 138 122.5 222t233.5 84h377q137 0 207 -84t45 -222l-145 -823q-23 -136 -121.5 -220.5t-235.5 -84.5h-376q-136 0 -205.5 84t-46.5 221zM285 313q-14 -75 23 -120.5t112 -45.5h317q75 0 129.5 45.5t67.5 120.5l141 809q13 75 -23.5 119.5 t-111.5 44.5h-317q-76 0 -129.5 -45t-65.5 -119z" />
<glyph unicode="1" horiz-adv-x="702" d="M172 1034l29 172l358 228h170l-252 -1434h-170l221 1262z" />
<glyph unicode="2" horiz-adv-x="1232" d="M61 0l25 147l846 711q69 57 82 133l22 131q12 75 -24 119.5t-111 44.5h-278q-76 0 -129.5 -45t-65.5 -119l-35 -190h-168l35 196q25 138 123 222t235 84h338q136 0 205.5 -84.5t44.5 -221.5l-24 -135q-25 -139 -156 -248l-707 -598h713l-24 -147h-947z" />
<glyph unicode="3" horiz-adv-x="1243" d="M115 305l28 158h168l-26 -150q-13 -76 23.5 -121t111.5 -45h289q75 0 128 45t66 121l29 166q14 75 -23 120.5t-112 45.5h-244l25 148h233q76 0 129.5 44.5t65.5 118.5l30 166q12 75 -24 119.5t-111 44.5h-278q-76 0 -129.5 -45t-65.5 -119l-27 -149h-168l27 155 q25 138 123 222t235 84h336q137 0 207 -84t45 -222l-22 -131q-19 -100 -79 -173.5t-147 -104.5q80 -30 117.5 -104.5t20.5 -174.5l-25 -135q-25 -137 -123.5 -221t-234.5 -84h-346q-137 0 -207 84.5t-45 220.5z" />
<glyph unicode="4" horiz-adv-x="1191" d="M8 285l27 147l938 1002h184l-178 -1002h164l-27 -147h-164l-47 -285h-170l49 285h-776zM217 432h594l135 768z" />
<glyph unicode="5" horiz-adv-x="1232" d="M115 305l14 74h168l-12 -66q-14 -75 23 -120.5t112 -45.5h278q75 0 128 45.5t67 120.5l45 258q14 77 -22 121.5t-111 44.5h-279q-69 0 -120 -37.5t-70 -103.5l-8 -45l-2 -10h-170l157 893h906l-27 -148h-735l-82 -461q92 60 203 60h280q136 0 205.5 -84t46.5 -221 l-49 -275q-23 -136 -122.5 -220.5t-236.5 -84.5h-335q-136 0 -205.5 84t-46.5 221z" />
<glyph unicode="6" horiz-adv-x="1232" d="M115 305l145 823q25 138 123 222t235 84h336q137 0 207 -84t45 -222l-22 -124h-168l20 118q12 75 -24 119.5t-111 44.5h-278q-76 0 -129.5 -45t-65.5 -119l-63 -358q91 59 202 59h279q137 0 207 -84.5t47 -220.5l-39 -213q-23 -136 -122.5 -220.5t-236.5 -84.5h-335 q-136 0 -205.5 84t-46.5 221zM285 313q-14 -75 23 -120.5t112 -45.5h278q75 0 128 45.5t67 120.5l35 197q13 76 -23.5 121t-111.5 45h-279q-75 0 -128.5 -45t-66.5 -121l-16 -90z" />
<glyph unicode="7" horiz-adv-x="1110" d="M145 0l854 1286h-784l27 148h966l-26 -148l-854 -1286h-183z" />
<glyph unicode="8" horiz-adv-x="1273" d="M115 305l24 135q17 102 79.5 175.5t154.5 103.5q-76 31 -110 104.5t-15 173.5l22 131q25 138 123.5 222t235.5 84h356q137 0 207 -84t45 -222l-23 -131q-19 -101 -78.5 -174t-146.5 -104q80 -30 117 -103.5t20 -175.5l-24 -135q-23 -136 -122.5 -220.5t-236.5 -84.5h-376 q-136 0 -205.5 84t-46.5 221zM285 313q-14 -75 23 -120.5t112 -45.5h319q75 0 128 45.5t67 120.5l29 166q13 76 -23 121t-111 45h-319q-76 0 -130 -45t-67 -121zM408 956q-12 -75 24 -119t111 -44h299q76 0 129 44.5t65 118.5l31 166q12 75 -24 119.5t-111 44.5h-299 q-76 0 -129.5 -45t-65.5 -119z" />
<glyph unicode="9" horiz-adv-x="1232" d="M115 305l18 105h168l-16 -97q-14 -77 22 -121.5t111 -44.5h278q76 0 130 45t67 121l57 328q-86 -59 -200 -59h-281q-137 0 -207 84t-45 221l43 241q23 137 122.5 221.5t235.5 84.5h336q136 0 205.5 -84.5t46.5 -221.5l-145 -823q-25 -137 -124 -221t-235 -84h-335 q-137 0 -207 84.5t-45 220.5zM387 893q-13 -75 23.5 -119.5t111.5 -44.5h279q75 0 128 44.5t66 119.5l19 102l22 127q12 75 -24 119.5t-111 44.5h-278q-76 0 -129.5 -45t-65.5 -119z" />
<glyph unicode=":" horiz-adv-x="466" d="M61 0l45 252h179l-43 -252h-181zM205 815l43 250h180l-45 -250h-178z" />
<glyph unicode=";" horiz-adv-x="466" d="M18 -236l88 488h179l-148 -488h-119zM205 815l43 250h180l-45 -250h-178z" />
<glyph unicode="&#x3c;" horiz-adv-x="1048" d="M94 649l23 139l991 363l-27 -154l-805 -278l705 -279l-25 -153z" />
<glyph unicode="=" horiz-adv-x="1048" d="M47 393l25 137h925l-24 -137h-926zM139 905l23 137h925l-22 -137h-926z" />
<glyph unicode="&#x3e;" horiz-adv-x="1048" d="M31 287l24 153l803 279l-702 280l26 152l860 -363l-22 -139z" />
<glyph unicode="?" horiz-adv-x="1284" d="M238 1004l24 141q23 130 117 209.5t223 79.5h420q129 0 195 -79.5t43 -209.5l-37 -207q-23 -129 -116.5 -209t-223.5 -80h-15q-69 0 -116.5 -39.5t-59.5 -107.5l-18 -103h-158l19 99q22 130 115 209t222 79h17q68 0 115 40.5t59 109.5l39 213q11 68 -21.5 107.5 t-99.5 39.5h-383q-68 0 -116 -40t-60 -107l-25 -145h-159zM446 0l41 231h158l-39 -231h-160z" />
<glyph unicode="@" horiz-adv-x="2127" d="M113 303q0 168 40.5 322.5t113.5 280.5t176.5 229t228 173t270 108t299.5 38q372 0 583.5 -196.5t211.5 -536.5q0 -130 -29 -255.5t-83.5 -231t-143.5 -170t-199 -64.5q-134 0 -204.5 73.5t-67.5 194.5l-217 -184q-97 -84 -236 -84q-137 0 -205 83.5t-45 219.5l82 457 q23 138 122 221.5t237 83.5h153q82 0 139 -33.5t82 -97.5l23 131h160l-138 -776q-14 -82 22 -130t111 -48q68 0 124.5 44.5t92.5 112.5t61 152.5t35.5 160.5t10.5 140q0 293 -181.5 463t-500.5 170q-139 0 -269.5 -34.5t-242.5 -98.5t-205.5 -158.5t-159.5 -209 t-102.5 -255.5t-36.5 -295q0 -293 182 -463t502 -170q255 0 469 111l39 -96q-239 -115 -508 -115q-373 0 -584.5 196.5t-211.5 536.5zM766 303q-14 -75 23 -120.5t112 -45.5q76 0 129 47l303 256l60 330q9 72 -28.5 115t-109.5 43h-215q-76 0 -128 -44.5t-66 -119.5z" />
<glyph unicode="A" horiz-adv-x="1265" d="M-82 0l782 1434h207l277 -1434h-172l-70 369h-643l-201 -369h-180zM369 516h553l-146 737z" />
<glyph unicode="B" horiz-adv-x="1273" d="M61 0l252 1434h734q137 0 205 -84q50 -62 50 -152q0 -33 -6 -70l-22 -131q-19 -101 -78.5 -174t-146.5 -104q81 -30 118 -104q25 -50 25 -113q0 -31 -6 -64l-25 -133q-23 -137 -121.5 -221t-234.5 -84h-744zM256 147h543q75 0 129 45.5t67 120.5l29 166q3 20 3 37 q1 51 -27 84q-38 45 -113 45h-543zM369 793h532q76 0 130 44t67 119l28 166q3 20 3 37q-1 49 -27 83q-36 44 -111 44h-534z" />
<glyph unicode="C" d="M115 305l145 823q25 138 123 222t235 84h459q137 0 206 -84q51 -62 50 -152q0 -33 -6 -70l-27 -155h-167l24 149q3 20 3 37q0 49 -26 83q-36 44 -112 44h-399q-76 0 -129.5 -45t-65.5 -119l-143 -809q-4 -21 -4 -39q0 -50 27 -82q37 -46 112 -45h399q75 0 129.5 45.5 t67.5 120.5l26 148h168l-28 -156q-23 -136 -121.5 -220.5t-235.5 -84.5h-458q-135 0 -205 84q-52 63 -53 156q0 31 6 65z" />
<glyph unicode="D" d="M61 0l252 1434h764q137 0 206 -84q51 -62 50 -152q0 -33 -6 -70l-145 -823q-23 -136 -121.5 -220.5t-235.5 -84.5h-764zM256 147h563q75 0 129.5 45.5t67.5 120.5l141 809q3 20 3 37q0 49 -26 83q-36 44 -112 44h-565z" />
<glyph unicode="E" horiz-adv-x="1150" d="M61 0l252 1434h926l-27 -148h-755l-88 -493h653l-25 -148h-653l-88 -498h756l-25 -147h-926z" />
<glyph unicode="F" horiz-adv-x="1028" d="M61 0l252 1434h885l-27 -148h-714l-95 -534h613l-27 -148h-612l-105 -604h-170z" />
<glyph unicode="G" d="M115 305l145 823q25 138 123 222t235 84h459q137 0 206 -84q51 -62 51 -152q0 -33 -7 -70l-22 -135h-170l22 129q3 20 3 37q0 50 -26 83q-37 44 -112 44h-399q-76 0 -129.5 -45t-65.5 -119l-143 -809q-4 -21 -4 -39q0 -48 27 -82q37 -45 112 -45h399q74 0 129 43.5 t68 122.5l16 97l31 172h-453l27 147h620l-127 -729h-126l-5 82q-97 -82 -235 -82h-397q-136 0 -205 84q-53 63 -53 156q0 31 6 65z" />
<glyph unicode="H" d="M61 0l252 1434h170l-114 -641h731l112 641h170l-252 -1434h-169l112 645h-729l-113 -645h-170z" />
<glyph unicode="I" horiz-adv-x="456" d="M61 0l252 1434h170l-252 -1434h-170z" />
<glyph unicode="J" horiz-adv-x="1222" d="M41 289l31 172h168l-29 -164q-3 -19 -3 -36q0 -44 23 -73q32 -41 101 -41h370q69 0 117 40.5t60 109.5l200 1137h170l-202 -1145q-23 -129 -116 -209t-222 -80h-430q-129 0 -195 80q-49 59 -49 146q0 30 6 63z" />
<glyph unicode="K" horiz-adv-x="1196" d="M61 0l252 1434h170l-121 -684l762 684h219l-794 -717l543 -717h-201l-535 711l-125 -711h-170z" />
<glyph unicode="L" horiz-adv-x="1110" d="M61 0l252 1434h170l-227 -1287h756l-25 -147h-926z" />
<glyph unicode="M" horiz-adv-x="1519" d="M61 0l252 1434h164l303 -848l602 848h164l-252 -1434h-168l193 1100l-596 -838l-299 838l-193 -1100h-170z" />
<glyph unicode="N" d="M61 0l252 1434h160l543 -1125l196 1125h170l-252 -1434h-159l-543 1126l-197 -1126h-170z" />
<glyph unicode="O" d="M115 305l145 823q25 138 122.5 222t233.5 84h459q137 0 207 -84q52 -62 51 -153q0 -33 -6 -69l-145 -823q-23 -136 -121.5 -220.5t-235.5 -84.5h-458q-135 0 -205 84q-52 63 -53 156q0 31 6 65zM285 313q-4 -21 -4 -39q0 -50 27 -82q37 -46 112 -45h399q75 0 129.5 45.5 t67.5 120.5l141 809q3 20 3 37q0 49 -26 83q-36 44 -112 44h-399q-76 0 -129.5 -45t-65.5 -119z" />
<glyph unicode="P" horiz-adv-x="1222" d="M61 0l252 1434h703q137 0 206 -84q51 -62 50 -152q0 -33 -6 -70l-49 -280q-23 -136 -122.5 -220.5t-236.5 -84.5h-532l-95 -543h-170zM350 690h504q76 0 129.5 45t65.5 119l47 268q3 20 3 37q-1 49 -27 83q-36 44 -111 44h-504z" />
<glyph unicode="Q" d="M115 305l145 823q25 138 123 222t235 84h459q137 0 206 -84q51 -62 51 -152q0 -33 -7 -70l-145 -823q-23 -136 -121.5 -220.5t-235.5 -84.5h-143l-51 -287h-170l51 287h-145q-136 0 -205 84q-53 63 -53 156q0 31 6 65zM285 313q-4 -21 -4 -39q0 -48 27 -82 q37 -45 112 -45h399q75 0 129.5 45.5t67.5 120.5l141 809q3 20 3 37q0 50 -26 83q-37 44 -112 44h-399q-76 0 -129.5 -45t-65.5 -119z" />
<glyph unicode="R" horiz-adv-x="1273" d="M61 0l252 1434h723q137 0 206 -84q51 -62 50 -152q0 -33 -6 -70l-49 -280q-22 -124 -105.5 -206t-203.5 -97l162 -545h-179l-151 543h-434l-95 -543h-170zM350 690h524q76 0 129.5 45t65.5 119l47 268q3 20 3 37q-1 49 -27 83q-36 44 -111 44h-524z" />
<glyph unicode="S" horiz-adv-x="1335" d="M115 305l22 125h168l-20 -117q-3 -20 -4 -38q-1 -50 27 -83q36 -45 112 -45h379q75 0 129 45t67 121l29 166q4 21 4 39q0 50 -27 82q-37 46 -112 45h-410q-135 0 -205 84q-52 63 -53 156q0 31 6 65l33 178q25 138 123 222t235 84h439q137 0 206 -84q51 -62 50 -152 q0 -33 -6 -70l-21 -124h-170l21 118q3 20 3 37q0 51 -27 83q-37 44 -112 44h-378q-76 0 -129.5 -45t-65.5 -119l-31 -166q-3 -18 -3 -35q0 -51 28 -84q38 -44 113 -44h409q135 0 205 -85q52 -63 52 -153q0 -32 -7 -68l-33 -182q-23 -137 -121.5 -221t-234.5 -84h-438 q-137 0 -207 84q-52 62 -52 153q0 32 7 68z" />
<glyph unicode="T" horiz-adv-x="1157" d="M143 1286l27 148h1157l-27 -148h-493l-225 -1286h-170l225 1286h-494z" />
<glyph unicode="U" d="M115 305l198 1129h170l-198 -1121q-4 -21 -4 -39q0 -50 27 -82q37 -46 112 -45h399q75 0 129.5 45.5t67.5 120.5l196 1121h170l-200 -1129q-23 -136 -121.5 -220.5t-235.5 -84.5h-458q-135 0 -205 84q-52 63 -53 156q0 31 6 65z" />
<glyph unicode="V" horiz-adv-x="1255" d="M170 1434h172l236 -1225l667 1225h180l-780 -1434h-196z" />
<glyph unicode="W" horiz-adv-x="1761" d="M166 1434h166l102 -1201l531 1201h163l107 -1201l526 1201h174l-637 -1434h-192l-111 1126l-503 -1126h-193z" />
<glyph unicode="X" horiz-adv-x="1263" d="M-25 0l603 721l-351 713h191l280 -578l476 578h202l-602 -721l350 -713h-190l-281 578l-475 -578h-203z" />
<glyph unicode="Y" horiz-adv-x="1253" d="M180 1434h193l291 -715l548 715h201l-688 -885l-96 -549h-168l94 549z" />
<glyph unicode="Z" horiz-adv-x="1243" d="M20 0l25 147l1036 1139h-835l26 148h1039l-27 -148l-1036 -1139h835l-24 -147h-1039z" />
<glyph unicode="[" horiz-adv-x="608" d="M12 -276l350 1986h424l-26 -147h-254l-299 -1692h256l-27 -147h-424z" />
<glyph unicode="\" horiz-adv-x="636" d="M137 1710h135l316 -1986h-135z" />
<glyph unicode="]" horiz-adv-x="608" d="M-88 -276l25 147h253l299 1692h-256l27 147h424l-350 -1986h-422z" />
<glyph unicode="^" horiz-adv-x="1042" d="M113 766l546 963h166l207 -963h-162l-155 795l-436 -795h-166z" />
<glyph unicode="_" horiz-adv-x="1044" d="M-96 -137l20 117h1024l-20 -117h-1024z" />
<glyph unicode="`" horiz-adv-x="454" d="M225 1516h160l156 -328h-121z" />
<glyph unicode="a" horiz-adv-x="1128" d="M94 303l80 457q25 138 123 221.5t235 83.5h156q82 0 139 -34t80 -97l25 131h158l-187 -1065h-123l-6 172l17 92l-191 -162q-121 -102 -258 -102q-136 0 -204 84q-50 62 -51 150q0 33 7 69zM252 303q-4 -21 -4 -39q0 -50 27 -82q37 -46 112 -45q76 0 150 64l284 239 l58 330q2 15 2 28q0 54 -29 88q-36 42 -109 42h-215q-75 0 -128 -44.5t-66 -119.5z" />
<glyph unicode="b" horiz-adv-x="1128" d="M61 0l267 1516h159l-127 -715l191 162q65 56 126 79t132 23q137 1 205 -83q51 -62 50 -155q0 -31 -5 -65l-82 -457q-23 -137 -122 -221t-237 -84h-153q-89 0 -150 38t-84 107l-47 -145h-123zM274 303q-3 -19 -3 -37q1 -50 27 -84q36 -44 110 -45h215q77 0 130 45t66 121 l80 461q3 20 3 37q0 49 -26 83q-36 44 -111.5 44t-150.5 -62l-284 -243z" />
<glyph unicode="c" horiz-adv-x="1087" d="M94 305l80 455q25 138 123 221.5t235 83.5h252q138 1 208 -83q51 -61 51 -153q0 -33 -7 -69l-8 -53h-160l11 57q3 19 3 36q0 50 -26 84q-36 44 -111 44h-215q-75 0 -129 -44.5t-67 -119.5l-82 -461q-3 -19 -4 -37q0 -50 28 -84q38 -46 113 -45h215q75 0 127 45.5 t66 120.5l10 55h160l-11 -53q-23 -137 -121.5 -221t-236.5 -84h-252q-136 0 -206 84q-52 63 -52 156q0 31 6 65z" />
<glyph unicode="d" horiz-adv-x="1128" d="M94 303l80 457q25 138 123 221.5t235 83.5h156q82 0 139 -34t80 -97l105 582h157l-266 -1516h-123l-6 172l17 92l-191 -162q-118 -102 -258 -102q-136 0 -204 84q-50 62 -51 150q0 33 7 69zM252 303q-4 -21 -4 -39q0 -50 27 -82q37 -46 112 -45q76 0 150 64l284 239 l58 330q2 15 2 28q0 54 -29 88q-36 42 -109 42h-215q-75 0 -128 -44.5t-66 -119.5z" />
<glyph unicode="e" horiz-adv-x="1107" d="M94 305l80 455q25 138 123 221.5t235 83.5h252q138 1 208 -83q51 -61 51 -153q0 -33 -7 -69l-49 -279h-702l-33 -178q-3 -19 -4 -37q0 -50 28 -84q38 -46 113 -45h213q76 0 128.5 45.5t66.5 120.5l6 35h160l-7 -33q-23 -137 -121.5 -221t-236.5 -84h-252q-136 0 -206 84 q-52 63 -52 156q0 31 6 65zM307 608h545l27 156q3 19 3 36q0 51 -27 84q-36 44 -112 44h-213q-76 0 -130 -45t-66 -119z" />
<glyph unicode="f" horiz-adv-x="692" d="M82 928l22 137h246l29 162q23 130 117 209.5t223 79.5h158l-25 -138h-137q-69 0 -116.5 -39.5t-59.5 -107.5l-29 -166h287l-25 -137h-287l-233 -1338h-160l236 1338h-246z" />
<glyph unicode="g" horiz-adv-x="1128" d="M23 -104l6 32h157l-6 -37q-4 -21 -4 -40q0 -47 26 -79q36 -44 111 -44h215q76 0 130 44t67 119l66 373l-191 -162q-121 -102 -258 -102q-136 0 -204 84q-51 62 -51 150q0 33 7 69l80 457q25 138 123 221.5t235 83.5h156q88 0 149 -38t83 -107l47 145h123l-205 -1169 q-25 -136 -124.5 -221t-234.5 -85h-254q-137 0 -206 85q-50 62 -50 150q0 34 7 71zM252 303q-4 -21 -4 -39q0 -48 27 -82q37 -45 112 -45q40 0 73.5 13.5t76.5 50.5l284 241l58 322q3 19 3 35q0 52 -28 85q-37 44 -111 44h-215q-75 0 -128 -44.5t-66 -119.5z" />
<glyph unicode="h" horiz-adv-x="1148" d="M61 0l267 1516h159l-127 -713l191 160q121 102 258 102q137 1 205 -83q51 -62 50 -155q0 -31 -5 -65l-135 -762h-158l133 764q3 20 3 37q0 49 -26 83q-36 44 -112 44q-77 0 -150 -62l-284 -241l-109 -625h-160z" />
<glyph unicode="i" horiz-adv-x="446" d="M61 0l187 1065h160l-187 -1065h-160zM274 1219l43 231h158l-41 -231h-160z" />
<glyph unicode="j" horiz-adv-x="446" d="M-12 -410l260 1475h160l-261 -1475h-159zM274 1219l43 231h158l-41 -231h-160z" />
<glyph unicode="k" horiz-adv-x="991" d="M61 0l267 1516h159l-170 -965l584 514h199l-604 -533l428 -532h-197l-416 514l-90 -514h-160z" />
<glyph unicode="l" horiz-adv-x="446" d="M61 0l267 1516h159l-266 -1516h-160z" />
<glyph unicode="m" horiz-adv-x="1660" d="M61 0l187 1065h123l6 -172l-17 -90l199 166q108 96 211 96q108 1 164 -71q42 -53 42 -130q0 -27 -5 -57l194 162q111 96 213 96q107 1 163 -71q41 -53 41 -129q0 -27 -5 -58l-141 -807h-160l143 815q2 13 2 24q-1 33 -17 53q-22 28 -67 28q-50 0 -112 -52l-287 -243 l-111 -625h-157l143 815q2 13 2 24q-1 33 -17 53q-22 28 -69 28q-51 0 -111 -52l-288 -243l-109 -625h-160z" />
<glyph unicode="n" horiz-adv-x="1148" d="M61 0l187 1065h123l6 -172l-17 -90l191 160q118 102 258 102q137 1 205 -83q51 -62 50 -155q0 -31 -5 -65l-135 -762h-158l133 764q3 20 3 37q0 49 -26 83q-36 44 -111.5 44t-150.5 -62l-284 -241l-109 -625h-160z" />
<glyph unicode="o" horiz-adv-x="1107" d="M94 305l80 455q25 138 123 221.5t235 83.5h252q138 1 208 -83q51 -61 51 -153q0 -33 -7 -69l-80 -455q-23 -137 -121.5 -221t-236.5 -84h-252q-136 0 -206 84q-52 63 -52 156q0 31 6 65zM252 303q-3 -19 -4 -37q0 -50 28 -84q38 -46 113 -45h215q75 0 127 45.5t66 120.5 l82 461q3 19 3 36q0 51 -27 84q-36 44 -112 44h-213q-76 0 -130 -45t-66 -119z" />
<glyph unicode="p" horiz-adv-x="1128" d="M-12 -410l260 1475h123l6 -172l-17 -90l191 160q65 56 126 79t132 23q137 0 205 -83q51 -63 51 -155q0 -31 -6 -65l-82 -457q-23 -137 -122 -221t-237 -84h-153q-83 0 -140.5 34t-80.5 97l-97 -541h-159zM274 303q-3 -19 -3 -37q0 -51 27 -84q35 -45 110 -45h215 q77 0 130 45t66 121l80 461q3 20 3 37q0 50 -26 83q-37 44 -112 44t-150 -62l-284 -241z" />
<glyph unicode="q" horiz-adv-x="1128" d="M94 303l80 457q25 138 123 221.5t235 83.5h156q88 0 149 -38t83 -107l47 145h123l-261 -1475h-157l119 674l-191 -162q-118 -102 -258 -102q-136 0 -204 84q-51 62 -51 150q0 33 7 69zM252 303q-4 -21 -4 -39q0 -48 27 -82q37 -45 112 -45q40 0 73.5 13.5t76.5 50.5 l284 241l58 322q3 19 3 35q0 52 -28 85q-37 44 -111 44h-215q-75 0 -128 -44.5t-66 -119.5z" />
<glyph unicode="r" horiz-adv-x="735" d="M61 0l187 1065h123l6 -172l-17 -90l191 160q62 55 129.5 78.5t159.5 23.5l-25 -137q-75 0 -117.5 -13.5t-83.5 -48.5l-284 -241l-109 -625h-160z" />
<glyph unicode="s" horiz-adv-x="1107" d="M92 289l6 45h160l-8 -47q-3 -19 -3 -35q-1 -44 23 -74q32 -40 101 -41h247q69 0 117 41t60 109l6 39q3 19 3 35q0 45 -24 74q-32 40 -100 40h-258q-129 0 -195 80q-48 58 -48 142q0 32 7 67l2 12q22 130 115.5 209.5t222.5 79.5h265q129 0 195 -79q49 -59 49 -147 q0 -30 -5 -63l-8 -43h-160l8 47q3 19 3 35q0 44 -23 73q-32 40 -100 40h-228q-68 0 -116 -40.5t-60 -107.5l-4 -28q-3 -18 -3 -35q0 -45 24 -75q33 -40 102 -40h256q129 0 194 -79q49 -59 48 -147q0 -30 -5 -63l-4 -24q-23 -129 -116 -209t-222 -80h-286q-129 0 -195 80 q-49 59 -49 146q0 30 6 63z" />
<glyph unicode="t" horiz-adv-x="692" d="M82 928l22 137h267l59 328l166 45l-66 -373h267l-25 -137h-266l-162 -928h-160l164 928h-266z" />
<glyph unicode="u" horiz-adv-x="1148" d="M115 303l133 762h160l-136 -762q-3 -19 -3 -35q-1 -52 27 -86q36 -46 112 -45q71 0 149 64l285 239l110 625h158l-186 -1065h-123l-6 172l16 92l-190 -162q-121 -102 -259 -102q-136 0 -204 84q-50 61 -50 150q0 33 7 69z" />
<glyph unicode="v" horiz-adv-x="1087" d="M145 1065h162l180 -887l494 887h170l-594 -1065h-190z" />
<glyph unicode="w" horiz-adv-x="1613" d="M145 1065h156l113 -870l415 870h158l109 -870l417 870h164l-518 -1065h-178l-111 825l-401 -825h-178z" />
<glyph unicode="x" horiz-adv-x="1056" d="M-27 0l476 537l-289 528h178l221 -412l356 412h189l-473 -537l287 -528h-177l-221 414l-356 -414h-191z" />
<glyph unicode="y" horiz-adv-x="1087" d="M145 1065h162l182 -889l492 889h170l-823 -1475h-181l232 410h-12z" />
<glyph unicode="z" horiz-adv-x="995" d="M0 0l25 137l772 791h-633l22 137h832l-23 -137l-774 -791h635l-25 -137h-831z" />
<glyph unicode="{" horiz-adv-x="690" d="M31 643l26 148h66q72 0 123 45.5t63 119.5l80 449q25 137 124 221t235 84h120l-26 -147h-88q-75 0 -129.5 -44.5t-67.5 -119.5l-72 -404q-19 -101 -78 -175t-145 -103q76 -33 110 -105.5t17 -171.5l-72 -403q-13 -76 23 -121t111 -45h92l-25 -147h-121q-135 0 -205 84.5 t-45 220.5l78 450q14 74 -21.5 119t-107.5 45h-65z" />
<glyph unicode="|" horiz-adv-x="430" d="M12 -276l350 1986h144l-350 -1986h-144z" />
<glyph unicode="}" horiz-adv-x="690" d="M-90 -276l27 147h88q75 0 129 45t67 121l70 403q19 101 78.5 174.5t146.5 104.5q-76 31 -110 104t-17 172l72 404q12 76 -23.5 120t-109.5 44h-92l24 147h121q135 0 205 -84.5t45 -220.5l-80 -449q-12 -75 23 -120t108 -45h63l-24 -148h-66q-73 0 -124.5 -45t-63.5 -119 l-80 -450q-23 -137 -121.5 -221t-234.5 -84h-121z" />
<glyph unicode="~" horiz-adv-x="1048" d="M121 633l98 131q57 78 137.5 100t151.5 -22l205 -131q33 -24 69.5 -16.5t69.5 44.5l74 97l88 -48l-80 -106q-58 -79 -140.5 -101.5t-152.5 21.5l-205 131q-31 24 -68 16t-65 -44l-94 -119z" />
<glyph unicode="&#xa1;" horiz-adv-x="528" d="M37 -369l182 1035h158l-180 -1035h-160zM250 836l39 229h160l-41 -229h-158z" />
<glyph unicode="&#xa2;" horiz-adv-x="1118" d="M139 674l80 454q24 139 124 222.5t235 83.5h73l37 204h158l-37 -204h72q137 0 207 -84t45 -222l-9 -53h-159l10 58q14 73 -22 118t-111 45h-267q-76 0 -129.5 -43.5t-66.5 -119.5l-82 -461q-13 -76 24.5 -121t110.5 -45h266q76 0 128.5 45.5t66.5 120.5l10 55h160 l-10 -53q-25 -136 -123.5 -220.5t-235.5 -84.5h-73l-35 -205h-158l35 205h-74q-136 0 -205.5 85.5t-44.5 219.5z" />
<glyph unicode="&#xa3;" horiz-adv-x="1286" d="M-20 0l24 147h221l88 500h-221l23 127h221l63 354q25 138 123.5 222t235.5 84h278q137 0 206 -84t44 -222l-20 -124h-170l20 118q14 75 -22 119.5t-111 44.5h-221q-76 0 -129.5 -45t-65.5 -119l-61 -348h430l-23 -127h-430l-88 -500h731l-24 -147h-1122z" />
<glyph unicode="&#xa5;" horiz-adv-x="1253" d="M131 336l23 127h387l14 86l-55 127h-310l23 127h238l-271 631h193l291 -715l548 715h201l-495 -631h239l-22 -127h-310l-100 -127l-14 -86h387l-25 -127h-387l-57 -336h-168l57 336h-387z" />
<glyph unicode="&#xa8;" horiz-adv-x="661" d="M172 1208l39 222h137l-39 -222h-137zM592 1208l39 222h137l-39 -222h-137z" />
<glyph unicode="&#xa9;" horiz-adv-x="1802" d="M195 563q0 197 68 365t185 282.5t277.5 179t341.5 64.5q290 0 461.5 -159.5t171.5 -424.5q0 -158 -44 -298t-123.5 -247.5t-187.5 -185.5t-240.5 -118.5t-277.5 -40.5q-290 0 -461 159t-171 424zM307 573q0 -228 140 -359.5t387 -131.5q153 0 290.5 57t238.5 157 t160.5 246.5t59.5 317.5q0 229 -140 361.5t-386 132.5q-153 0 -290.5 -57.5t-239 -158t-161 -247.5t-59.5 -318zM567 524l68 387q19 102 92.5 165t173.5 63h234q103 0 155 -62.5t33 -165.5l-12 -65h-113l10 59q11 62 -18.5 98.5t-89.5 36.5h-197q-60 0 -102.5 -37t-52.5 -98 l-68 -377q-10 -61 20.5 -97t90.5 -36h194q62 0 105 36t53 97l12 72h113l-15 -76q-17 -103 -91 -166t-175 -63h-233q-102 0 -154 63.5t-33 165.5z" />
<glyph unicode="&#xab;" horiz-adv-x="892" d="M41 463l25 139l481 328l-29 -164l-330 -234l246 -231l-26 -166zM406 463l24 139l481 328l-26 -164l-332 -234l248 -231l-29 -166z" />
<glyph unicode="&#xad;" horiz-adv-x="530" d="M61 471l25 137h408l-25 -137h-408z" />
<glyph unicode="&#xae;" horiz-adv-x="749" d="M170 1057q0 166 106.5 271.5t264.5 105.5q124 0 196 -67.5t72 -180.5q0 -167 -106 -273t-263 -106q-124 0 -197 68.5t-73 181.5zM225 1061q0 -96 57.5 -150.5t161.5 -54.5q135 0 223.5 88t88.5 236q0 96 -58.5 151t-160.5 55q-135 0 -223.5 -88.5t-88.5 -236.5zM326 942 l63 358h193q34 0 51.5 -20t11.5 -55l-14 -76q-6 -29 -26 -50.5t-48 -27.5l37 -129h-62l-36 129h-86l-23 -129h-61zM420 1126h115q31 0 38 35l9 51q6 35 -27 35h-115z" />
<glyph unicode="&#xb4;" horiz-adv-x="454" d="M168 1188l258 328h174l-297 -328h-135z" />
<glyph unicode="&#xb8;" horiz-adv-x="337" d="M-113 -410l140 164l-84 164h147l80 -164l-135 -164h-148z" />
<glyph unicode="&#xbb;" horiz-adv-x="892" d="M4 135l27 164l329 236l-245 231l28 164l367 -328l-25 -139zM369 135l28 164l328 236l-246 231l29 164l366 -328l-24 -139z" />
<glyph unicode="&#xbf;" horiz-adv-x="1284" d="M47 -80l37 207q22 130 115.5 209.5t222.5 79.5h16q68 0 115 40t59 109l19 101h157l-16 -99q-23 -129 -116 -208.5t-222 -79.5h-16q-69 0 -116.5 -40t-59.5 -108l-37 -215q-12 -68 20 -107.5t101 -39.5h381q69 0 117.5 40t60.5 107l24 145h160l-27 -141 q-22 -130 -115 -209.5t-222 -79.5h-420q-129 0 -195 79.5t-43 209.5zM662 836l38 229h160l-41 -229h-157z" />
<glyph unicode="&#xc0;" horiz-adv-x="1265" d="M-82 0l782 1434h207l277 -1434h-172l-70 369h-643l-201 -369h-180zM369 516h553l-146 737zM629 1812h170l139 -296h-131z" />
<glyph unicode="&#xc1;" horiz-adv-x="1265" d="M-82 0l782 1434h207l277 -1434h-172l-70 369h-643l-201 -369h-180zM369 516h553l-146 737zM696 1516l236 296h182l-272 -296h-146z" />
<glyph unicode="&#xc2;" horiz-adv-x="1265" d="M-82 0l782 1434h207l277 -1434h-172l-70 369h-643l-201 -369h-180zM369 516h553l-146 737zM498 1516l284 296h176l179 -296h-144l-133 213l-209 -213h-153z" />
<glyph unicode="&#xc4;" horiz-adv-x="1265" d="M-82 0l782 1434h207l277 -1434h-172l-70 369h-643l-201 -369h-180zM369 516h553l-146 737zM500 1522l39 219h137l-39 -219h-137zM1001 1522l39 219h138l-39 -219h-138z" />
<glyph unicode="&#xc6;" horiz-adv-x="2105" d="M-82 0l1235 1434h1020l-27 -148h-755l-88 -493h653l-25 -148h-653l-88 -498h756l-25 -147h-926l66 369h-631l-319 -369h-193zM535 516h550l138 780z" />
<glyph unicode="&#xc7;" d="M115 305l145 823q25 138 123 222t235 84h459q137 0 206 -84t44 -222l-27 -155h-167l24 149q13 75 -23.5 119.5t-111.5 44.5h-399q-76 0 -129.5 -45t-65.5 -119l-143 -809q-14 -75 23 -120.5t112 -45.5h399q75 0 129.5 45.5t67.5 120.5l26 148h168l-28 -156 q-23 -136 -121.5 -220.5t-235.5 -84.5h-458q-136 0 -205.5 84t-46.5 221zM416 -410l139 164l-84 164h147l80 -164l-135 -164h-147z" />
<glyph unicode="&#xc8;" horiz-adv-x="1150" d="M61 0l252 1434h926l-27 -148h-755l-88 -493h653l-25 -148h-653l-88 -498h756l-25 -147h-926zM569 1812h170l140 -296h-131z" />
<glyph unicode="&#xc9;" horiz-adv-x="1150" d="M61 0l252 1434h926l-27 -148h-755l-88 -493h653l-25 -148h-653l-88 -498h756l-25 -147h-926zM639 1516l235 296h183l-273 -296h-145z" />
<glyph unicode="&#xca;" horiz-adv-x="1150" d="M61 0l252 1434h926l-27 -148h-755l-88 -493h653l-25 -148h-653l-88 -498h756l-25 -147h-926zM440 1516l285 296h176l178 -296h-143l-133 213l-209 -213h-154z" />
<glyph unicode="&#xcb;" horiz-adv-x="1150" d="M61 0l252 1434h926l-27 -148h-755l-88 -493h653l-25 -148h-653l-88 -498h756l-25 -147h-926zM440 1522l39 219h137l-38 -219h-138zM942 1522l39 219h137l-39 -219h-137z" />
<glyph unicode="&#xcd;" horiz-adv-x="456" d="M61 0l252 1434h170l-252 -1434h-170zM332 1516l235 296h183l-273 -296h-145z" />
<glyph unicode="&#xce;" horiz-adv-x="456" d="M61 0l252 1434h170l-252 -1434h-170zM94 1516l285 296h176l178 -296h-143l-133 213l-209 -213h-154z" />
<glyph unicode="&#xcf;" horiz-adv-x="456" d="M61 0l252 1434h170l-252 -1434h-170zM94 1522l39 219h137l-39 -219h-137zM596 1522l39 219h137l-39 -219h-137z" />
<glyph unicode="&#xd1;" d="M61 0l252 1434h160l543 -1125l196 1125h170l-252 -1434h-159l-543 1126l-197 -1126h-170zM438 1571l99 131q59 78 138 100t150 -22l203 -131q34 -24 71 -16.5t68 44.5l74 97l90 -48l-80 -106q-59 -80 -140 -102t-153 22l-202 131q-31 23 -68.5 15.5t-66.5 -44.5l-93 -118 z" />
<glyph unicode="&#xd2;" d="M115 305l145 823q25 138 122.5 222t233.5 84h459q137 0 207 -84t45 -222l-145 -823q-23 -136 -121.5 -220.5t-235.5 -84.5h-458q-136 0 -205.5 84t-46.5 221zM285 313q-14 -75 23 -120.5t112 -45.5h399q75 0 129.5 45.5t67.5 120.5l141 809q13 75 -23.5 119.5 t-111.5 44.5h-399q-76 0 -129.5 -45t-65.5 -119zM672 1812h170l139 -296h-131z" />
<glyph unicode="&#xd3;" d="M115 305l145 823q25 138 122.5 222t233.5 84h459q137 0 207 -84t45 -222l-145 -823q-23 -136 -121.5 -220.5t-235.5 -84.5h-458q-136 0 -205.5 84t-46.5 221zM285 313q-14 -75 23 -120.5t112 -45.5h399q75 0 129.5 45.5t67.5 120.5l141 809q13 75 -23.5 119.5 t-111.5 44.5h-399q-76 0 -129.5 -45t-65.5 -119zM741 1516l236 296h182l-272 -296h-146z" />
<glyph unicode="&#xd4;" d="M115 305l145 823q25 138 122.5 222t233.5 84h459q137 0 207 -84t45 -222l-145 -823q-23 -136 -121.5 -220.5t-235.5 -84.5h-458q-136 0 -205.5 84t-46.5 221zM285 313q-14 -75 23 -120.5t112 -45.5h399q75 0 129.5 45.5t67.5 120.5l141 809q13 75 -23.5 119.5 t-111.5 44.5h-399q-76 0 -129.5 -45t-65.5 -119zM543 1516l284 296h177l178 -296h-144l-133 213l-209 -213h-153z" />
<glyph unicode="&#xd6;" d="M115 305l145 823q25 138 122.5 222t233.5 84h459q137 0 207 -84t45 -222l-145 -823q-23 -136 -121.5 -220.5t-235.5 -84.5h-458q-136 0 -205.5 84t-46.5 221zM285 313q-14 -75 23 -120.5t112 -45.5h399q75 0 129.5 45.5t67.5 120.5l141 809q13 75 -23.5 119.5 t-111.5 44.5h-399q-76 0 -129.5 -45t-65.5 -119zM543 1522l39 219h137l-39 -219h-137zM1044 1522l39 219h138l-39 -219h-138z" />
<glyph unicode="&#xd9;" d="M115 305l198 1129h170l-198 -1121q-14 -75 23 -120.5t112 -45.5h399q75 0 129.5 45.5t67.5 120.5l196 1121h170l-200 -1129q-23 -136 -121.5 -220.5t-235.5 -84.5h-458q-136 0 -205.5 84t-46.5 221zM672 1812h170l139 -296h-131z" />
<glyph unicode="&#xda;" d="M115 305l198 1129h170l-198 -1121q-14 -75 23 -120.5t112 -45.5h399q75 0 129.5 45.5t67.5 120.5l196 1121h170l-200 -1129q-23 -136 -121.5 -220.5t-235.5 -84.5h-458q-136 0 -205.5 84t-46.5 221zM741 1516l236 296h182l-272 -296h-146z" />
<glyph unicode="&#xdb;" d="M115 305l198 1129h170l-198 -1121q-14 -75 23 -120.5t112 -45.5h399q75 0 129.5 45.5t67.5 120.5l196 1121h170l-200 -1129q-23 -136 -121.5 -220.5t-235.5 -84.5h-458q-136 0 -205.5 84t-46.5 221zM543 1516l284 296h177l178 -296h-144l-133 213l-209 -213h-153z" />
<glyph unicode="&#xdc;" d="M115 305l198 1129h170l-198 -1121q-14 -75 23 -120.5t112 -45.5h399q75 0 129.5 45.5t67.5 120.5l196 1121h170l-200 -1129q-23 -136 -121.5 -220.5t-235.5 -84.5h-458q-136 0 -205.5 84t-46.5 221zM543 1522l39 219h137l-39 -219h-137zM1044 1522l39 219h138l-39 -219 h-138z" />
<glyph unicode="&#xdd;" horiz-adv-x="1253" d="M180 1434h193l291 -715l548 715h201l-688 -885l-96 -549h-168l94 549zM690 1516l236 296h182l-272 -296h-146z" />
<glyph unicode="&#xdf;" horiz-adv-x="1179" d="M-10 -410l286 1637q23 130 117 209.5t223 79.5h310q137 0 207 -84t45 -222l-23 -120q-17 -100 -76.5 -174t-146.5 -105q80 -29 117 -103.5t20 -175.5l-41 -227q-25 -137 -123.5 -221t-234.5 -84h-264l22 137h246q75 0 128 45t66 121l50 275q13 75 -25 119t-113 44h-184 l25 138h174q75 0 127.5 45t66.5 120l31 170q12 75 -24 119.5t-111 44.5h-273q-68 0 -116 -40t-60 -107l-286 -1641h-160z" />
<glyph unicode="&#xe0;" horiz-adv-x="1097" d="M94 303l80 457q25 138 123 221.5t235 83.5h156q82 0 139 -34t80 -97l25 131h158l-187 -1065h-123l-6 172l17 92l-191 -162q-121 -102 -258 -102q-136 0 -204.5 84t-43.5 219zM252 303q-14 -75 23 -120.5t112 -45.5q76 0 150 64l284 239l58 330q9 73 -27 115.5t-109 42.5 h-215q-75 0 -128 -44.5t-66 -119.5zM465 1516h160l155 -328h-121z" />
<glyph unicode="&#xe1;" horiz-adv-x="1097" d="M94 303l80 457q25 138 123 221.5t235 83.5h156q82 0 139 -34t80 -97l25 131h158l-187 -1065h-123l-6 172l17 92l-191 -162q-121 -102 -258 -102q-136 0 -204.5 84t-43.5 219zM252 303q-14 -75 23 -120.5t112 -45.5q76 0 150 64l284 239l58 330q9 73 -27 115.5t-109 42.5 h-215q-75 0 -128 -44.5t-66 -119.5zM571 1188l258 328h175l-297 -328h-136z" />
<glyph unicode="&#xe2;" horiz-adv-x="1097" d="M94 303l80 457q25 138 123 221.5t235 83.5h156q82 0 139 -34t80 -97l25 131h158l-187 -1065h-123l-6 172l17 92l-191 -162q-121 -102 -258 -102q-136 0 -204.5 84t-43.5 219zM252 303q-14 -75 23 -120.5t112 -45.5q76 0 150 64l284 239l58 330q9 73 -27 115.5t-109 42.5 h-215q-75 0 -128 -44.5t-66 -119.5zM377 1188l278 328h156l164 -328h-141l-113 227l-193 -227h-151z" />
<glyph unicode="&#xe4;" horiz-adv-x="1097" d="M94 303l80 457q25 138 123 221.5t235 83.5h156q82 0 139 -34t80 -97l25 131h158l-187 -1065h-123l-6 172l17 92l-191 -162q-121 -102 -258 -102q-136 0 -204.5 84t-43.5 219zM252 303q-14 -75 23 -120.5t112 -45.5q76 0 150 64l284 239l58 330q9 73 -27 115.5t-109 42.5 h-215q-75 0 -128 -44.5t-66 -119.5zM399 1208l39 222h137l-38 -222h-138zM819 1208l39 222h137l-39 -222h-137z" />
<glyph unicode="&#xe6;" horiz-adv-x="1781" d="M61 289l5 26q23 131 116.5 210t223.5 79h227q109 0 174 -59l43 235q12 68 -21 108t-100 40h-207q-68 0 -116 -40.5t-60 -107.5l-8 -53h-160l10 49q22 130 115.5 209.5t222.5 79.5h213q81 0 138 -33t84 -92q106 125 276 125h221q137 0 206 -83.5t46 -221.5l-49 -279h-705 l-30 -178q-14 -75 23 -120.5t112 -45.5h215q75 0 127.5 45.5t66.5 120.5l7 35h157l-6 -33q-23 -137 -121.5 -221t-234.5 -84h-221q-85 0 -146.5 34.5t-89.5 96.5q-48 -62 -118 -96.5t-152 -34.5h-246q-129 0 -195 80t-43 209zM219 287q-12 -69 21.5 -109.5t101.5 -40.5h248 q68 0 115 40.5t59 109.5l6 43q12 67 -20.5 107t-100.5 40h-248q-68 0 -116 -40t-60 -107zM979 608h545l28 156q12 75 -24 119.5t-111 44.5h-215q-75 0 -128.5 -44.5t-65.5 -119.5z" />
<glyph unicode="&#xe7;" horiz-adv-x="1087" d="M94 305l80 455q25 138 123 221.5t235 83.5h252q138 0 207.5 -83.5t44.5 -221.5l-8 -53h-160l11 57q12 75 -23.5 119.5t-110.5 44.5h-215q-75 0 -129 -44.5t-67 -119.5l-82 -461q-13 -75 24.5 -120.5t112.5 -45.5h215q75 0 127 45.5t66 120.5l10 55h160l-11 -53 q-23 -137 -121.5 -221t-236.5 -84h-252q-136 0 -205.5 84t-46.5 221zM303 -410l139 164l-84 164h148l80 -164l-135 -164h-148z" />
<glyph unicode="&#xe8;" horiz-adv-x="1107" d="M94 305l80 455q25 138 123 221.5t235 83.5h252q138 0 207.5 -83.5t44.5 -221.5l-49 -279h-702l-33 -178q-13 -75 24.5 -120.5t112.5 -45.5h213q76 0 128.5 45.5t66.5 120.5l6 35h160l-7 -33q-23 -137 -121.5 -221t-236.5 -84h-252q-136 0 -205.5 84t-46.5 221zM307 608 h545l27 156q12 76 -24 120t-112 44h-213q-76 0 -130 -45t-66 -119zM489 1516h160l156 -328h-121z" />
<glyph unicode="&#xe9;" horiz-adv-x="1107" d="M94 305l80 455q25 138 123 221.5t235 83.5h252q138 0 207.5 -83.5t44.5 -221.5l-49 -279h-702l-33 -178q-13 -75 24.5 -120.5t112.5 -45.5h213q76 0 128.5 45.5t66.5 120.5l6 35h160l-7 -33q-23 -137 -121.5 -221t-236.5 -84h-252q-136 0 -205.5 84t-46.5 221zM307 608 h545l27 156q12 76 -24 120t-112 44h-213q-76 0 -130 -45t-66 -119zM575 1188l259 328h174l-297 -328h-136z" />
<glyph unicode="&#xea;" horiz-adv-x="1107" d="M94 305l80 455q25 138 123 221.5t235 83.5h252q138 0 207.5 -83.5t44.5 -221.5l-49 -279h-702l-33 -178q-13 -75 24.5 -120.5t112.5 -45.5h213q76 0 128.5 45.5t66.5 120.5l6 35h160l-7 -33q-23 -137 -121.5 -221t-236.5 -84h-252q-136 0 -205.5 84t-46.5 221zM307 608 h545l27 156q12 76 -24 120t-112 44h-213q-76 0 -130 -45t-66 -119zM381 1188l278 328h156l164 -328h-141l-113 227l-193 -227h-151z" />
<glyph unicode="&#xeb;" horiz-adv-x="1107" d="M94 305l80 455q25 138 123 221.5t235 83.5h252q138 0 207.5 -83.5t44.5 -221.5l-49 -279h-702l-33 -178q-13 -75 24.5 -120.5t112.5 -45.5h213q76 0 128.5 45.5t66.5 120.5l6 35h160l-7 -33q-23 -137 -121.5 -221t-236.5 -84h-252q-136 0 -205.5 84t-46.5 221zM307 608 h545l27 156q12 76 -24 120t-112 44h-213q-76 0 -130 -45t-66 -119zM406 1208l38 222h138l-39 -222h-137zM825 1208l39 222h137l-38 -222h-138z" />
<glyph unicode="&#xed;" horiz-adv-x="446" d="M61 0l187 1065h160l-187 -1065h-160zM266 1188l258 328h174l-297 -328h-135z" />
<glyph unicode="&#xee;" horiz-adv-x="446" d="M53 1188l279 328h155l164 -328h-141l-113 227l-192 -227h-152zM61 0l187 1065h160l-187 -1065h-160z" />
<glyph unicode="&#xef;" horiz-adv-x="446" d="M61 0l187 1065h160l-187 -1065h-160zM76 1208l39 222h137l-39 -222h-137zM496 1208l39 222h137l-39 -222h-137z" />
<glyph unicode="&#xf1;" horiz-adv-x="1148" d="M61 0l187 1065h123l6 -172l-17 -90l191 160q118 102 258 102q137 0 205 -83.5t45 -219.5l-135 -762h-158l133 764q13 75 -23.5 119.5t-111.5 44.5t-150 -62l-284 -241l-109 -625h-160zM313 1288l103 127q62 75 142.5 93t148.5 -29l141 -107q32 -25 70 -17.5t69 44.5 l78 94l84 -55l-84 -105q-61 -76 -143.5 -94t-151.5 29l-143 106q-28 25 -66.5 18t-66.5 -42l-97 -117z" />
<glyph unicode="&#xf2;" horiz-adv-x="1107" d="M94 305l80 455q25 138 123 221.5t235 83.5h252q138 0 207.5 -83.5t44.5 -221.5l-80 -455q-23 -137 -121.5 -221t-236.5 -84h-252q-136 0 -205.5 84t-46.5 221zM252 303q-13 -75 24.5 -120.5t112.5 -45.5h215q75 0 127 45.5t66 120.5l82 461q12 76 -24 120t-112 44h-213 q-76 0 -130 -45t-66 -119zM469 1516h160l155 -328h-120z" />
<glyph unicode="&#xf3;" horiz-adv-x="1107" d="M94 305l80 455q25 138 123 221.5t235 83.5h252q138 0 207.5 -83.5t44.5 -221.5l-80 -455q-23 -137 -121.5 -221t-236.5 -84h-252q-136 0 -205.5 84t-46.5 221zM252 303q-13 -75 24.5 -120.5t112.5 -45.5h215q75 0 127 45.5t66 120.5l82 461q12 76 -24 120t-112 44h-213 q-76 0 -130 -45t-66 -119zM575 1188l259 328h174l-297 -328h-136z" />
<glyph unicode="&#xf4;" horiz-adv-x="1107" d="M94 305l80 455q25 138 123 221.5t235 83.5h252q138 0 207.5 -83.5t44.5 -221.5l-80 -455q-23 -137 -121.5 -221t-236.5 -84h-252q-136 0 -205.5 84t-46.5 221zM252 303q-13 -75 24.5 -120.5t112.5 -45.5h215q75 0 127 45.5t66 120.5l82 461q12 76 -24 120t-112 44h-213 q-76 0 -130 -45t-66 -119zM381 1188l278 328h156l164 -328h-141l-113 227l-193 -227h-151z" />
<glyph unicode="&#xf6;" horiz-adv-x="1107" d="M94 305l80 455q25 138 123 221.5t235 83.5h252q138 0 207.5 -83.5t44.5 -221.5l-80 -455q-23 -137 -121.5 -221t-236.5 -84h-252q-136 0 -205.5 84t-46.5 221zM252 303q-13 -75 24.5 -120.5t112.5 -45.5h215q75 0 127 45.5t66 120.5l82 461q12 76 -24 120t-112 44h-213 q-76 0 -130 -45t-66 -119zM406 1208l38 222h138l-39 -222h-137zM825 1208l39 222h137l-38 -222h-138z" />
<glyph unicode="&#xf9;" horiz-adv-x="1148" d="M115 303l133 762h160l-136 -762q-12 -75 24.5 -120.5t111.5 -45.5q71 0 149 64l285 239l110 625h158l-186 -1065h-123l-6 172l16 92l-190 -162q-121 -102 -259 -102q-136 0 -204 84t-43 219zM530 1516h160l156 -328h-121z" />
<glyph unicode="&#xfa;" horiz-adv-x="1148" d="M115 303l133 762h160l-136 -762q-12 -75 24.5 -120.5t111.5 -45.5q71 0 149 64l285 239l110 625h158l-186 -1065h-123l-6 172l16 92l-190 -162q-121 -102 -259 -102q-136 0 -204 84t-43 219zM555 1188l258 328h174l-297 -328h-135z" />
<glyph unicode="&#xfb;" horiz-adv-x="1148" d="M115 303l133 762h160l-136 -762q-12 -75 24.5 -120.5t111.5 -45.5q71 0 149 64l285 239l110 625h158l-186 -1065h-123l-6 172l16 92l-190 -162q-121 -102 -259 -102q-136 0 -204 84t-43 219zM401 1188l279 328h156l163 -328h-141l-113 227l-192 -227h-152z" />
<glyph unicode="&#xfc;" horiz-adv-x="1148" d="M115 303l133 762h160l-136 -762q-12 -75 24.5 -120.5t111.5 -45.5q71 0 149 64l285 239l110 625h158l-186 -1065h-123l-6 172l16 92l-190 -162q-121 -102 -259 -102q-136 0 -204 84t-43 219zM426 1208l39 222h137l-39 -222h-137zM846 1208l39 222h137l-39 -222h-137z" />
<glyph unicode="&#xfd;" horiz-adv-x="1087" d="M145 1065h162l182 -889l492 889h170l-823 -1475h-181l232 410h-12zM565 1188l258 328h174l-297 -328h-135z" />
<glyph unicode="&#xff;" horiz-adv-x="1087" d="M145 1065h162l182 -889l492 889h170l-823 -1475h-181l232 410h-12zM393 1208l39 222h137l-39 -222h-137zM813 1208l39 222h137l-39 -222h-137z" />
<glyph unicode="&#x10c;" d="M115 305l145 823q25 138 123 222t235 84h459q137 0 206 -84t44 -222l-27 -155h-167l24 149q13 75 -23.5 119.5t-111.5 44.5h-399q-76 0 -129.5 -45t-65.5 -119l-143 -809q-14 -75 23 -120.5t112 -45.5h399q75 0 129.5 45.5t67.5 120.5l26 148h168l-28 -156 q-23 -136 -121.5 -220.5t-235.5 -84.5h-458q-136 0 -205.5 84t-46.5 221zM596 1812h143l133 -210l209 210h154l-285 -296h-176z" />
<glyph unicode="&#x10d;" horiz-adv-x="1087" d="M94 305l80 455q25 138 123 221.5t235 83.5h252q138 0 207.5 -83.5t44.5 -221.5l-8 -53h-160l11 57q12 75 -23.5 119.5t-110.5 44.5h-215q-75 0 -129 -44.5t-67 -119.5l-82 -461q-13 -75 24.5 -120.5t112.5 -45.5h215q75 0 127 45.5t66 120.5l10 55h160l-11 -53 q-23 -137 -121.5 -221t-236.5 -84h-252q-136 0 -205.5 84t-46.5 221zM428 1516h141l113 -228l192 228h152l-278 -328h-156z" />
<glyph unicode="&#x10e;" d="M61 0l252 1434h764q137 0 206 -84t44 -222l-145 -823q-23 -136 -121.5 -220.5t-235.5 -84.5h-764zM256 147h563q75 0 129.5 45.5t67.5 120.5l141 809q13 75 -23.5 119.5t-111.5 44.5h-565zM555 1812h143l133 -210l209 210h154l-285 -296h-176z" />
<glyph unicode="&#x10f;" horiz-adv-x="1189" d="M94 303l80 457q25 138 123 221.5t235 83.5h156q82 0 139 -34t80 -97l105 582h157l-266 -1516h-123l-6 172l17 92l-191 -162q-118 -102 -258 -102q-136 0 -204.5 84t-43.5 219zM252 303q-14 -75 23 -120.5t112 -45.5q76 0 150 64l284 239l58 330q9 73 -27 115.5t-109 42.5 h-215q-75 0 -128 -44.5t-66 -119.5zM1214 1188l107 409h149l-159 -409h-97z" />
<glyph unicode="&#x11a;" horiz-adv-x="1150" d="M61 0l252 1434h926l-27 -148h-755l-88 -493h653l-25 -148h-653l-88 -498h756l-25 -147h-926zM494 1812h143l133 -210l209 210h154l-285 -296h-176z" />
<glyph unicode="&#x11b;" horiz-adv-x="1107" d="M94 305l80 455q25 138 123 221.5t235 83.5h252q138 0 207.5 -83.5t44.5 -221.5l-49 -279h-702l-33 -178q-13 -75 24.5 -120.5t112.5 -45.5h213q76 0 128.5 45.5t66.5 120.5l6 35h160l-7 -33q-23 -137 -121.5 -221t-236.5 -84h-252q-136 0 -205.5 84t-46.5 221zM307 608 h545l27 156q12 76 -24 120t-112 44h-213q-76 0 -130 -45t-66 -119zM438 1516h142l112 -228l193 228h151l-278 -328h-156z" />
<glyph unicode="&#x139;" horiz-adv-x="1110" d="M61 0l252 1434h170l-227 -1287h756l-25 -147h-926zM328 1516l235 296h182l-272 -296h-145z" />
<glyph unicode="&#x13a;" horiz-adv-x="446" d="M61 0l267 1516h159l-266 -1516h-160zM326 1597l235 297h182l-272 -297h-145z" />
<glyph unicode="&#x13d;" horiz-adv-x="1110" d="M61 0l252 1434h170l-227 -1287h756l-25 -147h-926zM582 1188l106 409h150l-160 -409h-96z" />
<glyph unicode="&#x13e;" horiz-adv-x="507" d="M61 0l267 1516h159l-266 -1516h-160zM530 1188l107 409h149l-159 -409h-97z" />
<glyph unicode="&#x13f;" horiz-adv-x="1110" d="M61 0l252 1434h170l-227 -1287h756l-25 -147h-926zM580 602l43 232h157l-41 -232h-159z" />
<glyph unicode="&#x140;" horiz-adv-x="696" d="M61 0l267 1516h159l-266 -1516h-160zM504 592l43 252h180l-45 -252h-178z" />
<glyph unicode="&#x147;" d="M61 0l252 1434h160l543 -1125l196 1125h170l-252 -1434h-159l-543 1126l-197 -1126h-170zM596 1812h143l133 -210l209 210h154l-285 -296h-176z" />
<glyph unicode="&#x148;" horiz-adv-x="1148" d="M61 0l187 1065h123l6 -172l-17 -90l191 160q118 102 258 102q137 0 205 -83.5t45 -219.5l-135 -762h-158l133 764q13 75 -23.5 119.5t-111.5 44.5t-150 -62l-284 -241l-109 -625h-160zM459 1516h141l113 -228l192 228h152l-279 -328h-155z" />
<glyph unicode="&#x152;" horiz-adv-x="2070" d="M115 305l145 823q25 138 123 222t235 84h398q116 0 184 -62l12 62h926l-27 -148h-755l-88 -493h653l-25 -148h-653l-88 -498h756l-25 -147h-925l10 61q-85 -61 -207 -61h-397q-136 0 -205.5 84t-46.5 221zM285 313q-14 -75 23 -120.5t112 -45.5h399q75 0 129.5 45.5 t67.5 120.5l141 809q13 75 -23.5 119.5t-111.5 44.5h-399q-76 0 -129.5 -45t-65.5 -119z" />
<glyph unicode="&#x153;" horiz-adv-x="1812" d="M94 305l80 455q25 138 123 221.5t235 83.5h222q89 0 148.5 -40t80.5 -110q45 70 120 110t165 40h221q137 0 206 -83.5t46 -221.5l-49 -279h-705l-31 -178q-14 -75 23.5 -120.5t112.5 -45.5h215q75 0 127.5 45.5t66.5 120.5l6 35h158l-6 -33q-23 -137 -121.5 -221 t-234.5 -84h-222q-90 0 -150.5 40.5t-80.5 111.5q-45 -71 -119 -111.5t-164 -40.5h-221q-136 0 -205.5 84t-46.5 221zM252 303q-14 -75 23 -120.5t112 -45.5h215q75 0 128 45.5t67 120.5l82 461q12 75 -24.5 119.5t-111.5 44.5h-215q-75 0 -128.5 -44.5t-65.5 -119.5z M1010 608h544l29 156q12 75 -24 119.5t-111 44.5h-215q-76 0 -129.5 -45t-65.5 -119z" />
<glyph unicode="&#x154;" horiz-adv-x="1273" d="M61 0l252 1434h723q137 0 206 -84t44 -222l-49 -280q-22 -124 -105.5 -206t-203.5 -97l162 -545h-179l-151 543h-434l-95 -543h-170zM350 690h524q76 0 129.5 45t65.5 119l47 268q13 75 -23.5 119.5t-111.5 44.5h-524zM680 1516l235 296h183l-273 -296h-145z" />
<glyph unicode="&#x155;" horiz-adv-x="716" d="M61 0l187 1065h123l6 -172l-17 -90l191 160q62 55 129.5 78.5t159.5 23.5l-25 -137q-75 0 -117.5 -13.5t-83.5 -48.5l-284 -241l-109 -625h-160zM381 1188l258 328h174l-297 -328h-135z" />
<glyph unicode="&#x158;" horiz-adv-x="1273" d="M61 0l252 1434h723q137 0 206 -84t44 -222l-49 -280q-22 -124 -105.5 -206t-203.5 -97l162 -545h-179l-151 543h-434l-95 -543h-170zM350 690h524q76 0 129.5 45t65.5 119l47 268q13 75 -23.5 119.5t-111.5 44.5h-524zM555 1812h143l133 -210l209 210h154l-285 -296h-176 z" />
<glyph unicode="&#x159;" horiz-adv-x="716" d="M61 0l187 1065h123l6 -172l-17 -90l191 160q62 55 129.5 78.5t159.5 23.5l-25 -137q-75 0 -117.5 -13.5t-83.5 -48.5l-284 -241l-109 -625h-160zM244 1516h141l113 -228l192 228h152l-279 -328h-155z" />
<glyph unicode="&#x160;" horiz-adv-x="1335" d="M115 305l22 125h168l-20 -117q-13 -76 23.5 -121t111.5 -45h379q75 0 129 45t67 121l29 166q14 75 -23 120.5t-112 45.5h-410q-136 0 -205.5 84t-46.5 221l33 178q25 138 123 222t235 84h439q137 0 206 -84t44 -222l-21 -124h-170l21 118q13 75 -24 119.5t-112 44.5h-378 q-76 0 -129.5 -45t-65.5 -119l-31 -166q-12 -75 25.5 -119t112.5 -44h409q135 0 205 -85t45 -221l-33 -182q-23 -137 -121.5 -221t-234.5 -84h-438q-137 0 -207 84.5t-45 220.5zM586 1812h143l133 -210l209 210h154l-285 -296h-176z" />
<glyph unicode="&#x161;" horiz-adv-x="1107" d="M92 289l6 45h160l-8 -47q-12 -69 20.5 -109.5t100.5 -40.5h247q69 0 117 41t60 109l6 39q12 69 -20.5 109t-100.5 40h-258q-129 0 -195 80t-41 209l2 12q22 130 115.5 209.5t222.5 79.5h265q130 0 195.5 -79t43.5 -210l-8 -43h-160l8 47q12 68 -20 108t-100 40h-228 q-68 0 -116 -40.5t-60 -107.5l-4 -28q-12 -69 21 -109.5t102 -40.5h256q129 0 194 -79t43 -210l-4 -24q-23 -129 -116 -209t-222 -80h-286q-129 0 -195 80t-43 209zM438 1516h142l112 -228l193 228h151l-278 -328h-156z" />
<glyph unicode="&#x164;" horiz-adv-x="1157" d="M143 1286l27 148h1157l-27 -148h-493l-225 -1286h-170l225 1286h-494zM496 1812h143l133 -210l209 210h154l-285 -296h-176z" />
<glyph unicode="&#x165;" horiz-adv-x="692" d="M82 928l22 137h267l59 328l166 45l-66 -373h267l-25 -137h-266l-162 -928h-160l164 928h-266zM653 1188l107 409h149l-159 -409h-97z" />
<glyph unicode="&#x16e;" d="M115 305l198 1129h170l-198 -1121q-14 -75 23 -120.5t112 -45.5h399q75 0 129.5 45.5t67.5 120.5l196 1121h170l-200 -1129q-23 -136 -121.5 -220.5t-235.5 -84.5h-458q-136 0 -205.5 84t-46.5 221zM676 1628q0 101 72.5 168.5t173.5 67.5q83 0 130.5 -43t47.5 -115 q0 -100 -73 -168t-175 -68q-81 0 -128.5 43.5t-47.5 114.5zM772 1636q0 -41 24.5 -64.5t67.5 -23.5q58 0 97.5 42t39.5 110q0 40 -24 64t-68 24q-58 0 -97.5 -42t-39.5 -110z" />
<glyph unicode="&#x16f;" horiz-adv-x="1148" d="M115 303l133 762h160l-136 -762q-12 -75 24.5 -120.5t111.5 -45.5q71 0 149 64l285 239l110 625h158l-186 -1065h-123l-6 172l16 92l-190 -162q-121 -102 -259 -102q-136 0 -204 84t-43 219zM516 1300q0 101 72.5 168.5t173.5 67.5q83 0 130.5 -43t47.5 -115 q0 -100 -72.5 -167.5t-175.5 -67.5q-81 0 -128.5 43t-47.5 114zM612 1309q0 -41 25 -64.5t68 -23.5q58 0 97.5 41.5t39.5 109.5q0 40 -24 64t-68 24q-58 0 -98 -42t-40 -109z" />
<glyph unicode="&#x178;" horiz-adv-x="1253" d="M180 1434h193l291 -715l548 715h201l-688 -885l-96 -549h-168l94 549zM492 1522l38 219h138l-39 -219h-137zM993 1522l39 219h137l-39 -219h-137z" />
<glyph unicode="&#x17d;" horiz-adv-x="1243" d="M20 0l25 147l1036 1139h-835l26 148h1039l-27 -148l-1036 -1139h835l-24 -147h-1039zM539 1812h143l133 -210l209 210h154l-285 -296h-176z" />
<glyph unicode="&#x17e;" horiz-adv-x="995" d="M0 0l25 137l772 791h-633l22 137h832l-23 -137l-774 -791h635l-25 -137h-831zM383 1516h141l113 -228l192 228h152l-279 -328h-155z" />
<glyph unicode="&#x2c6;" horiz-adv-x="679" d="M168 1188l278 328h156l164 -328h-141l-113 227l-193 -227h-151z" />
<glyph unicode="&#x2da;" horiz-adv-x="475" d="M180 1300q0 101 72.5 168.5t173.5 67.5q83 0 130.5 -43t47.5 -115q0 -100 -72.5 -167.5t-175.5 -67.5q-81 0 -128.5 43t-47.5 114zM276 1309q0 -41 25 -64.5t68 -23.5q58 0 97.5 41.5t39.5 109.5q0 40 -24 64t-68 24q-58 0 -98 -42t-40 -109z" />
<glyph unicode="&#x2dc;" horiz-adv-x="892" d="M186 1288l103 127q62 75 142.5 93t148.5 -29l141 -107q32 -25 70 -17.5t69 44.5l78 94l84 -55l-84 -105q-61 -76 -143.5 -94t-151.5 29l-143 106q-28 25 -66.5 18t-66.5 -42l-97 -117z" />
<glyph unicode="&#x2000;" horiz-adv-x="947" />
<glyph unicode="&#x2001;" horiz-adv-x="1894" />
<glyph unicode="&#x2002;" horiz-adv-x="947" />
<glyph unicode="&#x2003;" horiz-adv-x="1894" />
<glyph unicode="&#x2004;" horiz-adv-x="631" />
<glyph unicode="&#x2005;" horiz-adv-x="473" />
<glyph unicode="&#x2006;" horiz-adv-x="315" />
<glyph unicode="&#x2007;" horiz-adv-x="315" />
<glyph unicode="&#x2008;" horiz-adv-x="236" />
<glyph unicode="&#x2009;" horiz-adv-x="378" />
<glyph unicode="&#x200a;" horiz-adv-x="105" />
<glyph unicode="&#x2010;" horiz-adv-x="530" d="M61 471l25 137h408l-25 -137h-408z" />
<glyph unicode="&#x2011;" horiz-adv-x="530" d="M61 471l25 137h408l-25 -137h-408z" />
<glyph unicode="&#x2012;" horiz-adv-x="530" d="M61 471l25 137h408l-25 -137h-408z" />
<glyph unicode="&#x2013;" horiz-adv-x="1044" d="M10 471l25 137h1024l-25 -137h-1024z" />
<glyph unicode="&#x2014;" horiz-adv-x="2068" d="M10 471l25 137h2048l-25 -137h-2048z" />
<glyph unicode="&#x2018;" horiz-adv-x="466" d="M264 1147l146 487h118l-86 -487h-178z" />
<glyph unicode="&#x2019;" horiz-adv-x="466" d="M264 1147l84 487h180l-147 -487h-117z" />
<glyph unicode="&#x201a;" horiz-adv-x="466" d="M18 -236l88 488h179l-148 -488h-119z" />
<glyph unicode="&#x201c;" horiz-adv-x="747" d="M264 1147l146 487h118l-86 -487h-178zM545 1147l147 487h117l-84 -487h-180z" />
<glyph unicode="&#x201d;" horiz-adv-x="747" d="M264 1147l84 487h180l-147 -487h-117zM545 1147l86 487h178l-145 -487h-119z" />
<glyph unicode="&#x201e;" horiz-adv-x="747" d="M18 -236l88 488h179l-148 -488h-119zM301 -236l86 488h180l-149 -488h-117z" />
<glyph unicode="&#x2022;" horiz-adv-x="622" d="M111 668q0 124 83.5 206t202.5 82q93 0 148 -51.5t55 -138.5q0 -123 -84 -206t-203 -83q-93 0 -147.5 52t-54.5 139z" />
<glyph unicode="&#x2026;" horiz-adv-x="1767" d="M61 0l45 252h179l-43 -252h-181zM713 0l43 252h180l-45 -252h-178zM1362 0l45 252h178l-43 -252h-180z" />
<glyph unicode="&#x202f;" horiz-adv-x="378" />
<glyph unicode="&#x2039;" horiz-adv-x="526" d="M41 463l25 139l481 328l-29 -164l-330 -234l246 -231l-26 -166z" />
<glyph unicode="&#x203a;" horiz-adv-x="526" d="M-8 135l28 164l330 236l-246 231l29 164l367 -328l-25 -139z" />
<glyph unicode="&#x205f;" horiz-adv-x="473" />
<glyph unicode="&#x20ac;" horiz-adv-x="1294" d="M63 483l23 127h143l39 213h-143l20 127h144l33 178q25 138 123 222t235 84h377q137 0 206 -84t44 -222l-27 -155h-168l25 149q13 75 -24 119.5t-112 44.5h-317q-76 0 -129.5 -45t-65.5 -119l-30 -172h432l-21 -127h-434l-37 -213h432l-22 -127h-432l-31 -170 q-14 -75 23 -120.5t112 -45.5h320q75 0 127.5 45.5t66.5 120.5l27 148h168l-29 -156q-23 -137 -121.5 -221t-234.5 -84h-377q-136 0 -205.5 84t-46.5 221l31 178h-144z" />
<glyph unicode="&#x2122;" horiz-adv-x="1501" d="M205 1335l16 99h604l-18 -99h-246l-108 -618h-111l109 618h-246zM764 717l127 717h108l154 -406l297 406h109l-127 -717h-111l92 520l-295 -401l-151 401l-93 -520h-110z" />
<glyph unicode="&#x2190;" horiz-adv-x="1951" d="M41 795l868 868l113 -111l-672 -671h1561v-170h-1561l672 -672l-113 -113z" />
<glyph unicode="&#x2191;" horiz-adv-x="1818" d="M41 862l868 869l869 -869l-111 -112l-672 671v-1560h-170v1560l-671 -671z" />
<glyph unicode="&#x2192;" horiz-adv-x="1951" d="M41 711v170h1561l-672 671l112 111l869 -868l-869 -869l-112 113l672 672h-1561z" />
<glyph unicode="&#x2193;" horiz-adv-x="1818" d="M41 731l113 113l671 -672v1561h170v-1561l672 672l111 -113l-869 -868z" />
<glyph unicode="&#x25fc;" horiz-adv-x="1064" d="M0 0v1065h1065v-1065h-1065z" />
</font>
</defs>
</svg>
