<?xml version="1.0" standalone="no"?>
<!DOCTYPE svg PUBLIC "-//W3C//DTD SVG 1.1//EN" "http://www.w3.org/Graphics/SVG/1.1/DTD/svg11.dtd" >
<svg xmlns="http://www.w3.org/2000/svg">
<metadata></metadata>
<defs>
<font id="puristasemibold_italic" horiz-adv-x="1372" >
<font-face units-per-em="2048" ascent="1638" descent="-410" />
<missing-glyph horiz-adv-x="614" />
<glyph horiz-adv-x="0" />
<glyph horiz-adv-x="682" />
<glyph unicode=" "  horiz-adv-x="614" />
<glyph unicode="&#x09;" horiz-adv-x="614" />
<glyph unicode="&#xa0;" horiz-adv-x="614" />
<glyph unicode="!" horiz-adv-x="575" d="M92 0l45 264h230l-48 -264h-227zM166 426l178 1008h227l-178 -1008h-227z" />
<glyph unicode="&#x22;" horiz-adv-x="876" d="M238 889l65 545h258l-125 -545h-198zM590 889l63 545h260l-127 -545h-196z" />
<glyph unicode="#" horiz-adv-x="1497" d="M41 367v182h291l108 336h-219v182h279l116 367h201l-119 -367h324l117 367h200l-116 -367h233v-182h-293l-108 -336h221v-182h-279l-116 -367h-201l117 367h-322l-117 -367h-200l116 367h-233zM532 549h324l107 336h-322z" />
<glyph unicode="$" horiz-adv-x="1290" d="M104 313l23 127h244l-19 -114q-10 -54 13.5 -83.5t76.5 -29.5h312q54 0 89.5 29.5t45.5 83.5l29 174q10 52 -15 82t-78 30h-356q-138 0 -208.5 86.5t-47.5 227.5l35 194q25 141 126.5 227.5t239.5 86.5h86l37 204h228l-37 -204h86q140 0 211.5 -86.5t46.5 -227.5 l-23 -127h-243l20 115q9 54 -15.5 84.5t-78.5 30.5h-309q-54 0 -89.5 -30.5t-44.5 -84.5l-30 -170q-9 -54 15.5 -84.5t76.5 -30.5h356q139 0 210 -86t48 -227l-37 -197q-25 -141 -125.5 -227t-238.5 -86h-88l-37 -205h-227l37 205h-84q-140 0 -212 86t-49 227z" />
<glyph unicode="%" horiz-adv-x="1626" d="M137 0l1227 1434h213l-1225 -1434h-215zM174 872l72 406q10 70 61 113t121 43h231q70 0 104.5 -42.5t22.5 -113.5l-69 -406q-12 -70 -63 -112.5t-122 -42.5h-231q-69 0 -104 42.5t-23 112.5zM336 909q-9 -53 45 -53h123q51 0 63 53l58 332q9 55 -43 55h-123 q-55 0 -64 -55zM926 156l71 405q13 70 64.5 113t120.5 43h229q70 0 105.5 -42.5t23.5 -113.5l-72 -405q-12 -71 -62 -113.5t-120 -42.5h-229q-70 0 -106.5 43t-24.5 113zM1087 193q-6 -54 46 -54h124q25 0 42 14t20 40l59 331q5 26 -6.5 41t-36.5 15h-125q-53 0 -63 -56z " />
<glyph unicode="&#x26;" horiz-adv-x="1306" d="M104 313l25 127q17 98 73 170.5t138 106.5q-68 38 -97.5 110.5t-11.5 167.5l21 125q26 141 128 227.5t243 86.5h356q140 0 211 -86.5t45 -227.5l-21 -119h-243l20 107q9 54 -15.5 84.5t-76.5 30.5h-270q-54 0 -90 -30.5t-45 -84.5l-31 -170q-9 -54 15.5 -84.5t76.5 -30.5 h813l-37 -211h-186l-107 -612h-180l-14 96q-104 -96 -252 -96h-230q-138 0 -209.5 87t-48.5 226zM352 326q-10 -54 13.5 -83.5t76.5 -29.5h277q56 0 90 30.5t43 82.5l51 286h-387q-54 0 -89 -29.5t-46 -82.5z" />
<glyph unicode="'" horiz-adv-x="524" d="M238 889l65 545h258l-125 -545h-198z" />
<glyph unicode="(" horiz-adv-x="632" d="M57 37l240 1360q25 140 126.5 226.5t240.5 86.5h147l-37 -211h-102q-53 0 -88.5 -30.5t-44.5 -84.5l-236 -1335q-11 -54 13.5 -84.5t78.5 -30.5h103l-37 -210h-148q-138 0 -209.5 86t-46.5 227z" />
<glyph unicode=")" horiz-adv-x="632" d="M-88 -276l35 210h102q53 0 88.5 30.5t44.5 84.5l236 1335q9 54 -14.5 84.5t-77.5 30.5h-103l37 211h148q140 0 210.5 -86t45.5 -227l-240 -1360q-25 -141 -126 -227t-241 -86h-145z" />
<glyph unicode="*" horiz-adv-x="954" d="M166 1067l80 158l280 -121l39 330h164l-78 -326l326 119l22 -158l-327 -82l162 -250l-150 -96l-129 279l-225 -279l-117 96l250 248z" />
<glyph unicode="+" horiz-adv-x="1048" d="M88 621l35 196h358l66 375h207l-68 -375h363l-35 -196h-361l-65 -373h-207l65 373h-358z" />
<glyph unicode="," horiz-adv-x="524" d="M8 -236l94 531h260l-188 -531h-166z" />
<glyph unicode="-" horiz-adv-x="565" d="M55 438l35 197h442l-34 -197h-443z" />
<glyph unicode="." horiz-adv-x="524" d="M51 0l51 295h260l-53 -295h-258z" />
<glyph unicode="/" horiz-adv-x="675" d="M-221 -276l999 1986h209l-1001 -1986h-207z" />
<glyph unicode="0" horiz-adv-x="1290" d="M104 313l144 807q25 141 125.5 227.5t240.5 86.5h398q141 0 213 -86.5t47 -227.5l-144 -807q-23 -139 -124.5 -226t-241.5 -87h-400q-138 0 -209.5 87t-48.5 226zM352 326q-10 -54 13.5 -83.5t76.5 -29.5h312q54 0 89.5 29.5t45.5 83.5l137 782q9 54 -15.5 84.5 t-76.5 30.5h-311q-54 0 -89.5 -30.5t-44.5 -84.5z" />
<glyph unicode="1" horiz-adv-x="759" d="M154 961l43 245l358 228h242l-252 -1434h-242l207 1188z" />
<glyph unicode="2" horiz-adv-x="1249" d="M51 0l37 213l821 668q45 39 54 92l22 135q9 54 -14.5 84.5t-77.5 30.5h-270q-53 0 -89 -30.5t-45 -84.5l-36 -201h-244l39 213q25 141 126.5 227.5t241.5 86.5h359q140 0 210.5 -86.5t45.5 -227.5l-25 -143q-28 -148 -162 -256l-620 -508h645l-35 -213h-983z" />
<glyph unicode="3" horiz-adv-x="1255" d="M104 313l33 174h244l-29 -161q-10 -54 13.5 -83.5t76.5 -29.5h277q53 0 89 29.5t46 83.5l29 174q10 52 -15.5 82t-79.5 30h-221l37 211h217q53 0 88.5 30.5t44.5 84.5l31 170q9 54 -14.5 84.5t-77.5 30.5h-270q-53 0 -89 -30.5t-45 -84.5l-28 -160h-244l31 172 q25 141 126.5 227.5t241.5 86.5h357q141 0 212 -86.5t46 -227.5l-23 -125q-17 -96 -72 -168.5t-137 -109.5q72 -34 103 -106.5t14 -170.5l-22 -127q-25 -141 -126 -227t-241 -86h-362q-140 0 -212 86t-49 227z" />
<glyph unicode="4" horiz-adv-x="1228" d="M2 252l37 211l893 971h262l-172 -971h164l-37 -211h-164l-43 -252h-244l43 252h-739zM303 463h475l113 633z" />
<glyph unicode="5" horiz-adv-x="1249" d="M104 313l19 93h244l-15 -80q-10 -54 13.5 -83.5t76.5 -29.5h271q54 0 90 29.5t45 83.5l45 260q10 53 -14.5 82.5t-77.5 29.5h-271q-54 0 -89 -29t-44 -83l-4 -25h-2l-2 -16h-242l156 889h942l-37 -211h-700l-66 -373q92 61 207 61h232q140 0 211.5 -86t46.5 -227 l-52 -285q-23 -140 -124 -226.5t-242 -86.5h-356q-140 0 -212 87t-49 226z" />
<glyph unicode="6" horiz-adv-x="1249" d="M104 313l144 807q25 141 126.5 227.5t239.5 86.5h359q141 0 212 -86.5t46 -227.5l-23 -127h-243l20 115q9 54 -14.5 84.5t-77.5 30.5h-270q-53 0 -89 -30.5t-45 -84.5l-57 -328q92 60 203 60h233q140 0 211.5 -86.5t46.5 -227.5l-39 -213q-23 -140 -124 -226.5 t-242 -86.5h-359q-138 0 -209.5 87t-48.5 226zM352 326q-10 -54 13.5 -83.5t76.5 -29.5h271q54 0 90 29.5t45 83.5l33 188q10 53 -15 83t-78 30h-270q-51 0 -86 -27t-45 -76l-14 -82z" />
<glyph unicode="7" horiz-adv-x="1146" d="M111 0l829 1223h-731l39 211h991l-37 -211l-829 -1223h-262z" />
<glyph unicode="8" horiz-adv-x="1290" d="M104 313l25 127q17 98 73 170.5t138 106.5q-69 37 -98 110t-11 168l21 125q26 141 128 227.5t243 86.5h387q140 0 211 -86.5t45 -227.5l-21 -125q-19 -97 -73 -169t-136 -109q71 -34 102.5 -107t14.5 -170l-25 -127q-23 -140 -124 -226.5t-242 -86.5h-397q-140 0 -212 87 t-49 226zM352 326q-10 -54 13.5 -83.5t76.5 -29.5h312q54 0 90 29.5t45 83.5l31 174q9 52 -15.5 82t-77.5 30h-311q-54 0 -89 -29.5t-46 -82.5zM463 938q-9 -54 15.5 -84.5t76.5 -30.5h301q54 0 90 30.5t45 84.5l31 170q9 54 -15.5 84.5t-76.5 30.5h-301q-54 0 -90 -30.5 t-45 -84.5z" />
<glyph unicode="9" horiz-adv-x="1249" d="M104 313l19 97h244l-15 -84q-10 -54 13.5 -83.5t76.5 -29.5h271q54 0 90 29.5t45 83.5l51 292q-89 -59 -205 -59h-231q-140 0 -211.5 86t-48.5 227l45 248q25 141 126 227.5t242 86.5h359q138 0 209.5 -86.5t46.5 -227.5l-144 -807q-23 -140 -124 -226.5t-240 -86.5h-358 q-141 0 -212.5 86t-48.5 227zM451 885q-10 -54 14.5 -84.5t77.5 -30.5h270q49 0 83 26t46 72l8 43l8 50l27 147q9 54 -15.5 84.5t-76.5 30.5h-270q-54 0 -89.5 -30.5t-44.5 -84.5z" />
<glyph unicode=":" horiz-adv-x="524" d="M51 0l51 295h260l-53 -295h-258zM186 770l52 295h258l-52 -295h-258z" />
<glyph unicode=";" horiz-adv-x="524" d="M8 -236l94 531h260l-188 -531h-166zM186 770l52 295h258l-52 -295h-258z" />
<glyph unicode="&#x3c;" horiz-adv-x="1048" d="M88 621l35 198l987 352l-37 -219l-721 -233l637 -234l-37 -219z" />
<glyph unicode="=" horiz-adv-x="1048" d="M43 365l35 196h926l-35 -196h-926zM133 877l35 196h926l-35 -196h-926z" />
<glyph unicode="&#x3e;" horiz-adv-x="1048" d="M27 266l36 219l721 234l-637 233l37 219l865 -352l-35 -198z" />
<glyph unicode="?" horiz-adv-x="1294" d="M225 993l25 135q25 137 123 221.5t233 84.5h420q138 0 207.5 -84.5t44.5 -221.5l-35 -202q-26 -138 -124.5 -221.5t-235.5 -83.5h-17q-50 0 -82 -28t-41 -79l-16 -88h-229l16 86q25 137 123 221t233 84h19q51 0 83.5 27.5t41.5 77.5l37 211q9 50 -13 77t-73 27h-363 q-50 0 -83 -27.5t-40 -76.5l-26 -140h-228zM426 0l45 264h227l-45 -264h-227z" />
<glyph unicode="@" horiz-adv-x="2127" d="M113 303q0 168 40.5 322.5t113.5 280.5t176.5 229t228 173t270 108t299.5 38q372 0 583.5 -196.5t211.5 -536.5q0 -198 -58 -361.5t-168 -261.5t-251 -98q-131 0 -207 64.5t-88 171.5l-177 -150q-103 -86 -243 -86q-139 0 -209 86.5t-45 224.5l78 441q25 141 126 227 t242 86h125q153 0 211 -102l21 102h227l-133 -762q-12 -68 14 -106.5t86 -38.5q81 0 149 84t105 212.5t37 266.5q0 273 -170 431.5t-467 158.5q-199 0 -377 -74t-308.5 -204.5t-207 -320t-76.5 -409.5q0 -273 169.5 -431.5t467.5 -158.5q249 0 453 109l55 -137 q-239 -115 -508 -115q-373 0 -584.5 196.5t-211.5 536.5zM817 309q-9 -53 15.5 -82.5t78.5 -29.5q48 0 90 30l285 242l53 297q5 48 -20 75t-76 27h-215q-53 0 -87.5 -29t-43.5 -83z" />
<glyph unicode="A" horiz-adv-x="1296" d="M-82 0l752 1434h297l247 -1434h-245l-56 336h-565l-172 -336h-258zM451 547h432l-105 629z" />
<glyph unicode="B" horiz-adv-x="1300" d="M51 0l252 1434h766q141 0 213 -86q52 -63 52 -157q0 -34 -7 -71l-20 -125q-19 -96 -74 -168.5t-137 -109.5q71 -34 102 -107q20 -47 20 -104q0 -31 -6 -66l-22 -127q-23 -139 -125 -226t-242 -87h-772zM330 213h485q54 0 89.5 29.5t45.5 83.5l29 174q3 15 3 28 q0 32 -18 54q-24 30 -77 30h-486zM438 823h480q54 0 90 30.5t43 84.5l32 170q2 14 2 26q-1 37 -19 59q-24 30 -77 30h-481z" />
<glyph unicode="C" d="M104 313l144 807q25 141 126.5 227.5t239.5 86.5h482q140 0 212 -86q53 -64 52 -159q0 -33 -6 -69l-31 -172h-244l29 160q2 15 2 27q0 35 -18 57q-24 30 -76 31h-393q-54 0 -89.5 -30.5t-44.5 -84.5l-137 -782q-3 -16 -3 -30q1 -34 17 -54q24 -30 76 -29h394 q54 0 89.5 29.5t45.5 83.5l28 161h244l-33 -174q-23 -139 -124.5 -226t-241.5 -87h-482q-138 0 -210 87q-54 66 -54 161q0 31 6 65z" />
<glyph unicode="D" d="M51 0l252 1434h793q140 0 212 -86q53 -64 52 -159q0 -33 -6 -69l-144 -807q-23 -139 -124.5 -226t-241.5 -87h-793zM330 213h506q54 0 89.5 29.5t45.5 83.5l137 782q2 15 2 27q0 35 -18 57q-24 30 -76 31h-508z" />
<glyph unicode="E" horiz-adv-x="1177" d="M51 0l252 1434h963l-39 -211h-719l-70 -400h617l-37 -211h-617l-71 -399h719l-35 -213h-963z" />
<glyph unicode="F" horiz-adv-x="1054" d="M51 0l252 1434h922l-39 -211h-678l-78 -451h576l-37 -211h-576l-98 -561h-244z" />
<glyph unicode="G" d="M104 313l144 807q25 141 126.5 227.5t239.5 86.5h482q140 0 212 -86q52 -65 52 -159q0 -32 -6 -69l-27 -141h-242l23 129q2 15 2 27q0 35 -18 57q-24 31 -76 31h-393q-54 0 -89.5 -30.5t-44.5 -84.5l-137 -782q-3 -16 -3 -30q0 -33 17 -54q23 -29 76 -29h394 q54 0 89.5 29.5t45.5 83.5l39 223h-377l37 213h620l-133 -762h-180l-14 96q-104 -96 -252 -96h-349q-138 0 -210 87q-54 66 -54 161q0 31 6 65z" />
<glyph unicode="H" d="M51 0l252 1434h244l-109 -611h619l108 611h244l-252 -1434h-244l107 612h-619l-106 -612h-244z" />
<glyph unicode="I" horiz-adv-x="509" d="M51 0l252 1434h244l-252 -1434h-244z" />
<glyph unicode="J" horiz-adv-x="1243" d="M37 305l33 182h243l-30 -170q-3 -14 -3 -26q0 -31 16 -51q23 -27 73 -27h348q50 0 83 27.5t42 76.5l196 1117h242l-199 -1129q-23 -137 -121.5 -221t-236.5 -84h-434q-136 0 -205 84q-53 63 -53 156q0 31 6 65z" />
<glyph unicode="K" horiz-adv-x="1257" d="M51 0l252 1434h244l-119 -672l672 672h311l-713 -717l461 -717h-287l-452 711l-125 -711h-244z" />
<glyph unicode="L" horiz-adv-x="1136" d="M51 0l252 1434h244l-217 -1221h719l-35 -213h-963z" />
<glyph unicode="M" horiz-adv-x="1536" d="M51 0l252 1434h236l266 -754l532 754h236l-252 -1434h-244l168 954l-522 -737l-262 737l-166 -954h-244z" />
<glyph unicode="N" d="M51 0l252 1434h227l461 -988l174 988h244l-252 -1434h-227l-461 987l-174 -987h-244z" />
<glyph unicode="O" d="M104 313l144 807q25 141 125.5 227.5t240.5 86.5h480q141 0 213 -86q53 -64 53 -159q0 -33 -6 -69l-144 -807q-23 -139 -124.5 -226t-241.5 -87h-482q-138 0 -210 87q-54 66 -54 161q0 31 6 65zM352 326q-3 -16 -3 -30q1 -34 17 -54q24 -30 76 -29h394q54 0 89.5 29.5 t45.5 83.5l137 782q2 15 2 27q0 35 -18 57q-24 30 -76 31h-393q-54 0 -89.5 -30.5t-44.5 -84.5z" />
<glyph unicode="P" horiz-adv-x="1253" d="M51 0l252 1434h741q140 0 212 -86q53 -64 53 -159q0 -33 -6 -69l-54 -297q-25 -141 -125.5 -227t-240.5 -86h-498l-90 -510h-244zM420 721h454q53 0 89.5 30.5t46.5 84.5l47 272q2 15 2 27q1 35 -17 57q-24 30 -77 31h-457z" />
<glyph unicode="Q" d="M104 313l144 807q25 141 126.5 227.5t239.5 86.5h482q140 0 212 -86q52 -65 52 -159q0 -32 -6 -69l-144 -807q-23 -139 -124.5 -226t-241.5 -87h-117l-51 -287h-244l51 287h-121q-138 0 -210 87q-54 66 -54 161q0 31 6 65zM352 326q-3 -16 -3 -30q0 -33 17 -54 q23 -29 76 -29h394q54 0 89.5 29.5t45.5 83.5l137 782q2 15 2 27q0 35 -18 57q-24 31 -76 31h-393q-54 0 -89.5 -30.5t-44.5 -84.5z" />
<glyph unicode="R" horiz-adv-x="1290" d="M51 0l252 1434h752q139 0 211 -86q53 -64 53 -159q0 -33 -6 -69l-53 -297q-21 -123 -103 -204.5t-199 -102.5l158 -516h-254l-143 510h-334l-90 -510h-244zM420 721h465q53 0 89 30.5t46 84.5l47 272q2 15 2 27q1 35 -17 57q-24 30 -77 31h-467z" />
<glyph unicode="S" horiz-adv-x="1351" d="M104 313l23 127h244l-19 -114q-3 -16 -3 -30q1 -34 17 -54q24 -30 76 -29h373q54 0 89.5 29.5t45.5 83.5l29 174q3 15 3 28q0 32 -18 54q-24 30 -77 30h-418q-139 0 -209 86q-53 65 -53 162q0 31 6 66l35 194q25 141 126.5 227.5t239.5 86.5h461q139 0 211 -86 q53 -64 53 -159q0 -33 -6 -69l-22 -127h-244l20 115q2 15 2 27q1 35 -17 57q-24 30 -77 31h-372q-54 0 -89.5 -30.5t-44.5 -84.5l-30 -170q-2 -15 -3 -27q0 -35 18 -57q24 -30 77 -31h418q139 0 210 -86q54 -65 54 -161q0 -31 -6 -66l-37 -197q-25 -141 -126 -227t-239 -86 h-460q-140 0 -212 86q-55 65 -55 162q0 31 6 65z" />
<glyph unicode="T" horiz-adv-x="1153" d="M133 1223l37 211h1153l-39 -211h-455l-213 -1223h-243l215 1223h-455z" />
<glyph unicode="U" d="M104 313l199 1121h244l-195 -1108q-3 -16 -3 -30q1 -34 17 -54q24 -30 76 -29h394q54 0 89.5 29.5t45.5 83.5l194 1108h244l-199 -1121q-23 -139 -124.5 -226t-241.5 -87h-482q-138 0 -210 87q-54 66 -54 161q0 31 6 65z" />
<glyph unicode="V" horiz-adv-x="1282" d="M170 1434h248l188 -1131l588 1131h258l-752 -1434h-282z" />
<glyph unicode="W" horiz-adv-x="1773" d="M162 1434h241l68 -1096l463 1096h235l74 -1096l457 1096h252l-619 -1434h-274l-80 989l-428 -989h-275z" />
<glyph unicode="X" horiz-adv-x="1314" d="M-39 0l600 723l-348 711h274l246 -516l418 516h291l-600 -723l348 -711h-275l-245 518l-418 -518h-291z" />
<glyph unicode="Y" horiz-adv-x="1300" d="M174 1434h279l243 -662l482 662h286l-682 -908l-92 -526h-244l93 526z" />
<glyph unicode="Z" horiz-adv-x="1284" d="M31 0l37 213l946 1010h-768l37 211h1058l-36 -211l-947 -1010h768l-36 -213h-1059z" />
<glyph unicode="[" horiz-adv-x="632" d="M2 -276l350 1986h459l-37 -211h-217l-274 -1565h215l-37 -210h-459z" />
<glyph unicode="\" horiz-adv-x="675" d="M127 1710h192l318 -1986h-193z" />
<glyph unicode="]" horiz-adv-x="632" d="M-88 -276l35 210h217l274 1565h-215l37 211h459l-350 -1986h-457z" />
<glyph unicode="^" horiz-adv-x="1077" d="M113 766l530 963h234l190 -963h-229l-117 721l-371 -721h-237z" />
<glyph unicode="_" horiz-adv-x="1044" d="M-104 -186l28 166h1024l-30 -166h-1022z" />
<glyph unicode="`" horiz-adv-x="507" d="M225 1516h230l139 -328h-172z" />
<glyph unicode="a" horiz-adv-x="1142" d="M84 311l80 441q23 141 124 227t242 86h125q153 0 213 -102l19 102h227l-186 -1065h-174l-25 170l8 49l-145 -123q-110 -96 -252 -96q-140 0 -210 86q-52 65 -52 159q0 31 6 66zM313 309q-3 -15 -3 -28q0 -32 18 -54q24 -30 78 -30q51 0 98 39l276 235l54 295q1 8 1 15 q1 37 -21 59q-26 28 -75 28h-215q-54 0 -89 -29t-44 -83z" />
<glyph unicode="b" horiz-adv-x="1142" d="M51 0l266 1516h228l-117 -670l145 125q111 94 254 94q139 1 209 -85q52 -63 51 -155q0 -33 -6 -69l-77 -443q-25 -141 -126.5 -227t-242.5 -86h-125q-83 0 -142 32t-87 91l-56 -123h-174zM334 309q-2 -14 -2 -27q0 -34 18 -56q24 -30 76 -29h215q54 0 89 29.5t44 82.5 l80 447q2 14 2 27q0 33 -18 55q-24 30 -78 30t-98 -39l-281 -237z" />
<glyph unicode="c" horiz-adv-x="1101" d="M84 313l80 439q23 140 124 226.5t240 86.5h273q141 0 212 -86q54 -65 54 -161q0 -31 -6 -66l-12 -66h-228l13 70q2 13 2 25q0 36 -18 58q-24 29 -79 29h-215q-53 0 -88.5 -29.5t-44.5 -82.5l-78 -447q-3 -15 -3 -28q0 -33 18 -54q25 -30 78 -30h215q54 0 89 29.5t44 82.5 l12 70h227l-12 -66q-23 -140 -124.5 -226.5t-242.5 -86.5h-272q-138 0 -210 87q-54 66 -54 161q0 31 6 65z" />
<glyph unicode="d" horiz-adv-x="1142" d="M84 311l80 441q23 141 124 227t242 86h125q153 0 213 -102l99 553h227l-266 -1516h-174l-25 170l8 49l-145 -123q-107 -96 -252 -96q-140 0 -210 86q-52 65 -52 159q0 31 6 66zM313 309q-3 -15 -3 -28q0 -32 18 -54q24 -30 78 -30q51 0 98 39l276 235l54 295q1 8 1 15 q1 37 -21 59q-26 28 -75 28h-215q-54 0 -89 -29t-44 -83z" />
<glyph unicode="e" horiz-adv-x="1122" d="M84 313l80 439q23 140 124 226.5t240 86.5h273q141 0 212 -86q54 -65 54 -161q0 -31 -6 -66l-53 -301h-670l-25 -142q-3 -15 -3 -28q0 -33 18 -54q25 -30 78 -30h215q54 0 89 29.5t44 82.5l6 39h227l-6 -35q-23 -140 -124.5 -226.5t-242.5 -86.5h-272q-138 0 -210 87 q-54 66 -54 161q0 31 6 65zM369 633h442l23 123q2 13 2 25q0 36 -18 58q-24 29 -79 29h-215q-53 0 -88.5 -29.5t-44.5 -82.5z" />
<glyph unicode="f" horiz-adv-x="739" d="M70 868l34 197h236l27 145q25 137 123 221.5t233 84.5h201l-35 -197h-170q-50 0 -83 -28t-40 -77l-29 -149h277l-33 -197h-276l-226 -1278h-227l223 1278h-235z" />
<glyph unicode="g" horiz-adv-x="1142" d="M12 -96l6 35h230l-6 -39q-4 -17 -4 -31q0 -32 16 -52q24 -30 78 -30h215q54 0 90 30t45 83l57 319l-147 -123q-110 -96 -252 -96q-140 0 -210 86q-52 65 -52 159q0 31 6 66l80 441q23 141 124 227t242 86h125q83 0 143 -32.5t89 -92.5l53 125h174l-205 -1161 q-25 -141 -125.5 -227.5t-240.5 -86.5h-273q-141 0 -212 86q-53 64 -53 158q0 33 7 70zM313 309q-3 -15 -3 -28q0 -33 18 -54q24 -30 78 -30q51 0 98 39l278 235l49 285q2 15 2 28q0 35 -17 56q-25 28 -77 28h-215q-54 0 -89 -29t-44 -83z" />
<glyph unicode="h" horiz-adv-x="1163" d="M51 0l266 1516h228l-117 -670l145 125q111 94 254 94q139 1 209 -85q52 -63 52 -155q0 -33 -7 -69l-133 -756h-227l133 756q2 13 2 25q0 35 -18 57q-24 30 -78 30t-98 -39l-279 -235l-104 -594h-228z" />
<glyph unicode="i" horiz-adv-x="493" d="M51 0l187 1065h227l-186 -1065h-228zM264 1219l47 264h230l-49 -264h-228z" />
<glyph unicode="j" horiz-adv-x="493" d="M-23 -410l261 1475h227l-260 -1475h-228zM264 1219l47 264h230l-49 -264h-228z" />
<glyph unicode="k" horiz-adv-x="1048" d="M51 0l266 1516h228l-170 -963l514 512h280l-536 -533l354 -532h-278l-340 510l-90 -510h-228z" />
<glyph unicode="l" horiz-adv-x="493" d="M51 0l266 1516h228l-266 -1516h-228z" />
<glyph unicode="m" horiz-adv-x="1675" d="M51 0l187 1065h174l24 -170l-8 -49l150 127q105 92 208 92q100 0 162.5 -61t63.5 -162l155 131q105 92 209 92q118 0 180 -80q46 -59 47 -144q0 -30 -6 -63l-137 -778h-227l137 788q1 8 1 16q0 52 -56 52q-29 0 -68 -29l-274 -235l-103 -592h-229l139 788q5 32 -9.5 50 t-45.5 18q-29 0 -68 -29l-274 -233l-104 -594h-228z" />
<glyph unicode="n" horiz-adv-x="1163" d="M51 0l187 1065h174l24 -170l-8 -49l145 125q111 94 254 94q139 1 209 -85q52 -63 52 -155q0 -33 -7 -69l-133 -756h-227l133 756q2 13 2 25q0 35 -18 57q-24 30 -78 30t-98 -39l-279 -235l-104 -594h-228z" />
<glyph unicode="o" horiz-adv-x="1122" d="M84 313l80 439q23 140 124 226.5t240 86.5h273q141 0 212 -86q54 -65 54 -161q0 -31 -6 -66l-80 -439q-23 -140 -124.5 -226.5t-242.5 -86.5h-272q-138 0 -210 87q-54 66 -54 161q0 31 6 65zM313 309q-3 -15 -3 -28q0 -33 18 -54q25 -30 78 -30h215q54 0 89 29.5t44 82.5 l80 447q2 13 2 25q0 36 -18 58q-24 29 -79 29h-215q-53 0 -88.5 -29.5t-44.5 -82.5z" />
<glyph unicode="p" horiz-adv-x="1142" d="M-23 -410l261 1475h174l24 -170l-8 -49l145 125q111 94 254 94q139 0 209 -85q52 -64 52 -155q0 -33 -7 -69l-77 -443q-25 -141 -126.5 -227t-242.5 -86h-125q-153 0 -213 104l-92 -514h-228zM334 309q-2 -14 -2 -27q0 -34 18 -56q24 -29 76 -29h215q54 0 89 29.5 t44 82.5l80 447q2 14 2 27q0 34 -18 55q-24 30 -78 30t-98 -39l-279 -235z" />
<glyph unicode="q" horiz-adv-x="1142" d="M84 311l80 441q23 141 124 227t242 86h125q83 0 143 -32.5t89 -92.5l53 125h174l-260 -1475h-227l110 629l-145 -123q-110 -96 -252 -96q-140 0 -210 86q-52 65 -52 159q0 31 6 66zM313 309q-3 -15 -3 -28q0 -33 18 -54q24 -30 78 -30q51 0 98 39l278 235l49 285 q2 15 2 28q0 35 -17 56q-25 28 -77 28h-215q-54 0 -89 -29t-44 -83z" />
<glyph unicode="r" horiz-adv-x="768" d="M51 0l187 1065h174l24 -170l-8 -49l145 125q58 48 128 71t169 23l-34 -197q-80 0 -113.5 -8.5t-60.5 -30.5l-279 -235l-104 -594h-228z" />
<glyph unicode="s" horiz-adv-x="1122" d="M84 305l6 41h227l-6 -45q-3 -14 -3 -26q0 -31 16 -51q22 -28 73 -27h232q49 0 81.5 28t41.5 78l8 37q2 13 2 24q0 33 -17 54q-23 28 -73 28h-250q-136 0 -206 84q-51 62 -51 153q0 33 7 69l2 8q25 137 123 221t233 84h269q137 -1 207 -85q52 -62 51 -152q0 -32 -6 -68 l-9 -41h-227l8 45q2 13 2 25q-1 32 -17 52q-22 27 -71 27h-211q-50 0 -83 -27.5t-40 -76.5l-6 -33q-3 -14 -3 -26q0 -31 16 -51q22 -28 73 -27h252q135 -1 204 -85q51 -62 51 -151q0 -33 -7 -69l-2 -17q-25 -137 -123 -221t-233 -84h-289q-137 0 -207 84q-52 62 -52 153 q0 32 7 68z" />
<glyph unicode="t" horiz-adv-x="739" d="M70 868l34 197h256l56 307l239 68l-67 -375h256l-33 -197h-256l-154 -868h-227l152 868h-256z" />
<glyph unicode="u" horiz-adv-x="1163" d="M104 311l134 754h227l-131 -756q-2 -15 -3 -28q-1 -35 17 -55q24 -30 78 -29.5t98 39.5l277 235l106 594h228l-187 -1065h-174l-24 170l8 49l-146 -123q-107 -96 -252 -96q-140 0 -210 86q-52 65 -52 159q0 31 6 66z" />
<glyph unicode="v" horiz-adv-x="1081" d="M125 1065h231l142 -809l426 809h241l-571 -1065h-270z" />
<glyph unicode="w" horiz-adv-x="1579" d="M125 1065h223l78 -786l350 786h228l73 -786l355 786h231l-496 -1065h-256l-77 723l-328 -723h-258z" />
<glyph unicode="x" horiz-adv-x="1087" d="M-39 0l463 539l-277 526h254l181 -360l295 360h270l-463 -539l277 -526h-254l-181 360l-293 -360h-272z" />
<glyph unicode="y" horiz-adv-x="1081" d="M117 -410l221 410h-14l-199 1065h231l142 -811l426 811h241l-792 -1475h-256z" />
<glyph unicode="z" horiz-adv-x="1015" d="M0 0l35 197l686 671h-569l34 197h852l-34 -197l-687 -671h568l-33 -197h-852z" />
<glyph unicode="{" horiz-adv-x="694" d="M25 612l36 211h84q52 0 87 30t44 83l82 461q25 141 126 227t241 86h147l-38 -211h-101q-54 0 -90 -30.5t-43 -84.5l-70 -391q-19 -97 -73 -169t-135 -107q69 -35 98 -108t12 -169l-70 -391q-9 -54 16 -84.5t79 -30.5h102l-37 -210h-147q-139 0 -210 86t-48 227l82 461 q10 54 -13.5 84t-76.5 30h-84z" />
<glyph unicode="|" horiz-adv-x="471" d="M2 -276l350 1986h205l-350 -1986h-205z" />
<glyph unicode="}" horiz-adv-x="694" d="M-88 -276l35 210h102q54 0 89 30.5t44 84.5l70 391q17 96 72 169.5t135 107.5q-69 37 -98 109t-11 167l70 391q8 55 -16.5 85t-77.5 30h-103l37 211h148q140 0 210.5 -86t45.5 -227l-82 -461q-9 -53 15 -83t75 -30h84l-37 -213h-84q-53 0 -87.5 -30t-41.5 -82l-82 -461 q-25 -141 -126 -227t-241 -86h-145z" />
<glyph unicode="~" horiz-adv-x="1048" d="M109 633l90 127q60 88 148 115t167 -17l215 -123q25 -17 51.5 -10.5t48.5 35.5l72 100l127 -63l-82 -119q-60 -87 -148.5 -114.5t-168.5 16.5l-215 125q-23 16 -51 9t-48 -34l-79 -113z" />
<glyph unicode="&#xa1;" horiz-adv-x="575" d="M27 -369l176 1010h229l-178 -1010h-227zM233 801l46 264h227l-45 -264h-228z" />
<glyph unicode="&#xa2;" horiz-adv-x="1128" d="M129 682l78 438q26 144 128 229t238 85h48l36 204h228l-37 -204h45q140 0 211 -86t45 -228l-10 -65h-228l13 69q9 52 -15.5 82.5t-77.5 30.5h-262q-52 0 -88 -30t-45 -83l-78 -446q-10 -54 15.5 -83.5t77.5 -29.5h260q55 0 89.5 30t45.5 83l12 70h227l-12 -66 q-25 -139 -126 -226t-242 -87h-46l-34 -205h-228l35 205h-45q-141 0 -211 87t-47 226z" />
<glyph unicode="&#xa3;" horiz-adv-x="1265" d="M-31 0l37 213h195l73 410h-196l33 182h194l55 315q26 141 128 227.5t241 86.5h295q140 0 211.5 -86.5t46.5 -227.5l-22 -127h-244l20 115q9 54 -15.5 84.5t-76.5 30.5h-207q-54 0 -90 -30.5t-45 -84.5l-53 -303h383l-33 -182h-383l-72 -410h684l-36 -213h-1123z" />
<glyph unicode="&#xa5;" horiz-adv-x="1300" d="M127 301l35 180h370l7 45l-47 117h-304l33 182h201l-248 609h279l243 -662l482 662h286l-463 -609h203l-30 -182h-304l-88 -117l-8 -45h371l-33 -180h-371l-51 -301h-244l52 301h-371z" />
<glyph unicode="&#xa8;" horiz-adv-x="729" d="M170 1204l43 248h199l-43 -248h-199zM590 1204l43 248h198l-43 -248h-198z" />
<glyph unicode="&#xa9;" horiz-adv-x="1802" d="M195 569q0 197 67 364t183 280.5t275 177t341 63.5q291 0 465 -161.5t174 -426.5q0 -197 -67.5 -364t-184 -281t-276 -177.5t-341.5 -63.5q-290 0 -463 162t-173 427zM354 582q0 -213 129.5 -336t356.5 -123q143 0 270.5 53.5t221.5 147.5t149 231.5t55 296.5 q0 213 -129 336t-356 123q-114 0 -219.5 -33.5t-191.5 -98t-150.5 -152.5t-100 -202.5t-35.5 -242.5zM561 512l74 410q17 98 87 158.5t167 60.5h260q97 0 147 -60.5t31 -158.5l-14 -84h-158l12 75q7 41 -12 64.5t-59 23.5h-203q-40 0 -67.5 -23.5t-34.5 -64.5l-68 -393 q-8 -40 11 -64t59 -24h202q40 0 67.5 24t35.5 64l16 82h158l-17 -90q-17 -98 -87.5 -158.5t-168.5 -60.5h-260q-96 0 -145.5 60.5t-32.5 158.5z" />
<glyph unicode="&#xab;" horiz-adv-x="983" d="M35 430l35 205l505 315l-38 -229l-295 -189l227 -186l-41 -231zM465 430l37 205l504 315l-39 -229l-295 -189l227 -186l-39 -231z" />
<glyph unicode="&#xad;" horiz-adv-x="565" d="M55 438l35 197h442l-34 -197h-443z" />
<glyph unicode="&#xae;" horiz-adv-x="749" d="M170 1059q0 166 106 270.5t261 104.5q124 0 198 -69.5t74 -182.5q0 -165 -105.5 -270t-261.5 -105q-124 0 -198 69.5t-74 182.5zM242 1065q0 -91 54 -143t150 -52q129 0 210 83t81 225q0 90 -53.5 141t-151.5 51q-129 0 -209.5 -81.5t-80.5 -223.5zM319 942l62 358h205 q34 0 52.5 -21t12.5 -56l-14 -82q-6 -29 -25 -49.5t-45 -28.5l35 -121h-84l-33 119h-65l-21 -119h-80zM432 1133h98q22 0 29 26l6 45q7 27 -16 27h-98z" />
<glyph unicode="&#xb4;" horiz-adv-x="507" d="M168 1188l235 328h248l-295 -328h-188z" />
<glyph unicode="&#xb8;" horiz-adv-x="397" d="M-113 -410l140 164l-84 164h211l75 -164l-133 -164h-209z" />
<glyph unicode="&#xbb;" horiz-adv-x="983" d="M0 115l39 231l293 186l-226 187l39 231l396 -315l-37 -205zM430 115l39 231l293 186l-225 187l41 231l393 -315l-35 -205z" />
<glyph unicode="&#xbf;" horiz-adv-x="1294" d="M39 -63l37 204q23 137 121.5 221t236.5 84h17q49 0 82 27.5t42 77.5l15 90h227l-14 -86q-25 -138 -123.5 -221.5t-235.5 -83.5h-18q-50 0 -82 -28t-41 -79l-37 -211q-8 -50 14.5 -77t71.5 -27h363q50 0 83 27.5t42 76.5l24 140h228l-25 -135q-23 -137 -121.5 -221.5 t-234.5 -84.5h-420q-136 0 -205.5 84.5t-46.5 221.5zM618 801l48 264h227l-45 -264h-230z" />
<glyph unicode="&#xc0;" horiz-adv-x="1296" d="M-82 0l752 1434h297l247 -1434h-245l-56 336h-565l-172 -336h-258zM451 547h432l-105 629zM610 1812h244l133 -296h-184z" />
<glyph unicode="&#xc1;" horiz-adv-x="1296" d="M-82 0l752 1434h297l247 -1434h-245l-56 336h-565l-172 -336h-258zM451 547h432l-105 629zM678 1516l221 296h264l-280 -296h-205z" />
<glyph unicode="&#xc2;" horiz-adv-x="1296" d="M-82 0l752 1434h297l247 -1434h-245l-56 336h-565l-172 -336h-258zM451 547h432l-105 629zM492 1516l266 296h254l159 -296h-200l-103 178l-161 -178h-215z" />
<glyph unicode="&#xc4;" horiz-adv-x="1296" d="M-82 0l752 1434h297l247 -1434h-245l-56 336h-565l-172 -336h-258zM451 547h432l-105 629zM485 1524l43 248h199l-45 -248h-197zM987 1524l43 248h199l-45 -248h-197z" />
<glyph unicode="&#xc6;" horiz-adv-x="2099" d="M-82 0l1139 1434h1100l-37 -211h-719l-70 -400h617l-39 -211h-617l-69 -399h719l-37 -213h-961l57 336h-544l-264 -336h-275zM606 547h432l123 692z" />
<glyph unicode="&#xc7;" d="M104 313l144 807q25 141 126.5 227.5t239.5 86.5h482q140 0 211.5 -86.5t46.5 -227.5l-31 -172h-244l29 160q9 54 -15.5 84.5t-76.5 30.5h-393q-54 0 -89.5 -30.5t-44.5 -84.5l-137 -782q-10 -54 13.5 -83.5t76.5 -29.5h394q54 0 89.5 29.5t45.5 83.5l28 161h244 l-33 -174q-23 -139 -124.5 -226t-241.5 -87h-482q-138 0 -209.5 87t-48.5 226zM385 -410l139 164l-84 164h211l76 -164l-133 -164h-209z" />
<glyph unicode="&#xc8;" horiz-adv-x="1177" d="M51 0l252 1434h963l-39 -211h-719l-70 -400h617l-37 -211h-617l-71 -399h719l-35 -213h-963zM549 1812h244l133 -296h-185z" />
<glyph unicode="&#xc9;" horiz-adv-x="1177" d="M51 0l252 1434h963l-39 -211h-719l-70 -400h617l-37 -211h-617l-71 -399h719l-35 -213h-963zM618 1516l222 296h264l-281 -296h-205z" />
<glyph unicode="&#xca;" horiz-adv-x="1177" d="M51 0l252 1434h963l-39 -211h-719l-70 -400h617l-37 -211h-617l-71 -399h719l-35 -213h-963zM432 1516l266 296h254l160 -296h-201l-102 178l-162 -178h-215z" />
<glyph unicode="&#xcb;" horiz-adv-x="1177" d="M51 0l252 1434h963l-39 -211h-719l-70 -400h617l-37 -211h-617l-71 -399h719l-35 -213h-963zM424 1524l43 248h199l-45 -248h-197zM926 1524l43 248h198l-45 -248h-196z" />
<glyph unicode="&#xcd;" horiz-adv-x="509" d="M51 0l252 1434h244l-252 -1434h-244zM326 1516l221 296h264l-281 -296h-204z" />
<glyph unicode="&#xce;" horiz-adv-x="509" d="M51 0l252 1434h244l-252 -1434h-244zM100 1516l267 296h254l159 -296h-200l-103 178l-162 -178h-215z" />
<glyph unicode="&#xcf;" horiz-adv-x="509" d="M51 0l252 1434h244l-252 -1434h-244zM92 1524l43 248h199l-45 -248h-197zM594 1524l43 248h199l-45 -248h-197z" />
<glyph unicode="&#xd1;" d="M51 0l252 1434h227l461 -988l174 988h244l-252 -1434h-227l-461 987l-174 -987h-244zM434 1575l90 127q60 88 148.5 115t167.5 -17l215 -123q25 -17 51.5 -10.5t48.5 35.5l72 100l127 -63l-82 -119q-60 -87 -148 -114.5t-170 16.5l-215 125q-23 15 -49.5 8.5t-46.5 -33.5 l-82 -113z" />
<glyph unicode="&#xd2;" d="M104 313l144 807q25 141 125.5 227.5t240.5 86.5h480q141 0 213 -86.5t47 -227.5l-144 -807q-23 -139 -124.5 -226t-241.5 -87h-482q-138 0 -209.5 87t-48.5 226zM352 326q-10 -54 13.5 -83.5t76.5 -29.5h394q54 0 89.5 29.5t45.5 83.5l137 782q9 54 -15.5 84.5 t-76.5 30.5h-393q-54 0 -89.5 -30.5t-44.5 -84.5zM647 1812h244l133 -296h-184z" />
<glyph unicode="&#xd3;" d="M104 313l144 807q25 141 125.5 227.5t240.5 86.5h480q141 0 213 -86.5t47 -227.5l-144 -807q-23 -139 -124.5 -226t-241.5 -87h-482q-138 0 -209.5 87t-48.5 226zM352 326q-10 -54 13.5 -83.5t76.5 -29.5h394q54 0 89.5 29.5t45.5 83.5l137 782q9 54 -15.5 84.5 t-76.5 30.5h-393q-54 0 -89.5 -30.5t-44.5 -84.5zM717 1516l221 296h264l-280 -296h-205z" />
<glyph unicode="&#xd4;" d="M104 313l144 807q25 141 125.5 227.5t240.5 86.5h480q141 0 213 -86.5t47 -227.5l-144 -807q-23 -139 -124.5 -226t-241.5 -87h-482q-138 0 -209.5 87t-48.5 226zM352 326q-10 -54 13.5 -83.5t76.5 -29.5h394q54 0 89.5 29.5t45.5 83.5l137 782q9 54 -15.5 84.5 t-76.5 30.5h-393q-54 0 -89.5 -30.5t-44.5 -84.5zM530 1516l267 296h254l159 -296h-200l-103 178l-162 -178h-215z" />
<glyph unicode="&#xd6;" d="M104 313l144 807q25 141 125.5 227.5t240.5 86.5h480q141 0 213 -86.5t47 -227.5l-144 -807q-23 -139 -124.5 -226t-241.5 -87h-482q-138 0 -209.5 87t-48.5 226zM352 326q-10 -54 13.5 -83.5t76.5 -29.5h394q54 0 89.5 29.5t45.5 83.5l137 782q9 54 -15.5 84.5 t-76.5 30.5h-393q-54 0 -89.5 -30.5t-44.5 -84.5zM522 1524l43 248h199l-45 -248h-197zM1024 1524l43 248h199l-45 -248h-197z" />
<glyph unicode="&#xd9;" d="M104 313l199 1121h244l-195 -1108q-10 -54 13.5 -83.5t76.5 -29.5h394q54 0 89.5 29.5t45.5 83.5l194 1108h244l-199 -1121q-23 -139 -124.5 -226t-241.5 -87h-482q-138 0 -209.5 87t-48.5 226zM647 1812h244l133 -296h-184z" />
<glyph unicode="&#xda;" d="M104 313l199 1121h244l-195 -1108q-10 -54 13.5 -83.5t76.5 -29.5h394q54 0 89.5 29.5t45.5 83.5l194 1108h244l-199 -1121q-23 -139 -124.5 -226t-241.5 -87h-482q-138 0 -209.5 87t-48.5 226zM717 1516l221 296h264l-280 -296h-205z" />
<glyph unicode="&#xdb;" d="M104 313l199 1121h244l-195 -1108q-10 -54 13.5 -83.5t76.5 -29.5h394q54 0 89.5 29.5t45.5 83.5l194 1108h244l-199 -1121q-23 -139 -124.5 -226t-241.5 -87h-482q-138 0 -209.5 87t-48.5 226zM530 1516l267 296h254l159 -296h-200l-103 178l-162 -178h-215z" />
<glyph unicode="&#xdc;" d="M104 313l199 1121h244l-195 -1108q-10 -54 13.5 -83.5t76.5 -29.5h394q54 0 89.5 29.5t45.5 83.5l194 1108h244l-199 -1121q-23 -139 -124.5 -226t-241.5 -87h-482q-138 0 -209.5 87t-48.5 226zM522 1524l43 248h199l-45 -248h-197zM1024 1524l43 248h199l-45 -248h-197z " />
<glyph unicode="&#xdd;" horiz-adv-x="1300" d="M174 1434h279l243 -662l482 662h286l-682 -908l-92 -526h-244l93 526zM680 1516l221 296h264l-280 -296h-205z" />
<glyph unicode="&#xdf;" horiz-adv-x="1189" d="M-20 -410l284 1620q25 137 123.5 221.5t233.5 84.5h321q141 0 212 -86.5t46 -227.5l-20 -121q-19 -97 -73 -169t-136 -107q71 -36 102 -108.5t14 -168.5l-38 -215q-25 -141 -126 -227t-241 -86h-250l35 197h221q52 0 87 29.5t46 82.5l49 285q9 53 -15.5 83t-78.5 30h-170 l35 196h166q53 0 88.5 30.5t44.5 82.5l33 190q9 54 -14.5 83.5t-77.5 29.5h-265q-50 0 -82.5 -28t-39.5 -77l-287 -1624h-227z" />
<glyph unicode="&#xe0;" horiz-adv-x="1118" d="M84 311l80 441q23 141 124 227t242 86h125q153 0 213 -102l19 102h227l-186 -1065h-174l-25 170l8 49l-145 -123q-110 -96 -252 -96q-140 0 -209.5 86t-46.5 225zM313 309q-10 -52 14.5 -82t78.5 -30q51 0 98 39l276 235l54 295q5 47 -20.5 74.5t-74.5 27.5h-215 q-54 0 -89 -29t-44 -83zM449 1516h229l139 -328h-172z" />
<glyph unicode="&#xe1;" horiz-adv-x="1118" d="M84 311l80 441q23 141 124 227t242 86h125q153 0 213 -102l19 102h227l-186 -1065h-174l-25 170l8 49l-145 -123q-110 -96 -252 -96q-140 0 -209.5 86t-46.5 225zM313 309q-10 -52 14.5 -82t78.5 -30q51 0 98 39l276 235l54 295q5 47 -20.5 74.5t-74.5 27.5h-215 q-54 0 -89 -29t-44 -83zM555 1188l236 328h247l-295 -328h-188z" />
<glyph unicode="&#xe2;" horiz-adv-x="1118" d="M84 311l80 441q23 141 124 227t242 86h125q153 0 213 -102l19 102h227l-186 -1065h-174l-25 170l8 49l-145 -123q-110 -96 -252 -96q-140 0 -209.5 86t-46.5 225zM313 309q-10 -52 14.5 -82t78.5 -30q51 0 98 39l276 235l54 295q5 47 -20.5 74.5t-74.5 27.5h-215 q-54 0 -89 -29t-44 -83zM365 1188l264 328h225l150 -328h-201l-80 184l-145 -184h-213z" />
<glyph unicode="&#xe4;" horiz-adv-x="1118" d="M84 311l80 441q23 141 124 227t242 86h125q153 0 213 -102l19 102h227l-186 -1065h-174l-25 170l8 49l-145 -123q-110 -96 -252 -96q-140 0 -209.5 86t-46.5 225zM313 309q-10 -52 14.5 -82t78.5 -30q51 0 98 39l276 235l54 295q5 47 -20.5 74.5t-74.5 27.5h-215 q-54 0 -89 -29t-44 -83zM377 1204l43 248h198l-43 -248h-198zM797 1204l43 248h198l-43 -248h-198z" />
<glyph unicode="&#xe6;" horiz-adv-x="1765" d="M57 305l2 14q25 137 125 221.5t236 84.5h162q119 0 190 -68l37 207q8 50 -14.5 77t-73.5 27h-184q-50 0 -83 -27.5t-40 -76.5l-11 -47h-227l8 43q25 137 124 221t235 84h196q151 0 219 -104q104 104 261 104h225q141 0 213 -86t47 -227l-53 -301h-670l-25 -142 q-10 -52 15.5 -82t79.5 -30h213q54 0 89 29.5t44 82.5l6 39h229l-6 -35q-25 -140 -126.5 -226.5t-242.5 -86.5h-225q-165 0 -229 115q-105 -115 -264 -115h-228q-138 0 -207.5 84t-46.5 221zM285 301q-9 -49 14.5 -76.5t73.5 -27.5h231q50 0 82 27.5t41 76.5l6 37 q9 51 -13.5 78.5t-72.5 27.5h-231q-50 0 -83 -27.5t-42 -78.5zM1014 633h440l23 123q8 54 -16.5 83t-78.5 29h-215q-53 0 -88.5 -29.5t-44.5 -82.5z" />
<glyph unicode="&#xe7;" horiz-adv-x="1101" d="M84 313l80 439q23 140 124 226.5t240 86.5h273q141 0 212 -86t48 -227l-12 -66h-228l13 70q8 54 -16.5 83t-78.5 29h-215q-53 0 -88.5 -29.5t-44.5 -82.5l-78 -447q-10 -52 15 -82t78 -30h215q54 0 89 29.5t44 82.5l12 70h227l-12 -66q-23 -140 -124.5 -226.5 t-242.5 -86.5h-272q-138 0 -209.5 87t-48.5 226zM281 -410l139 164l-84 164h211l76 -164l-134 -164h-208z" />
<glyph unicode="&#xe8;" horiz-adv-x="1122" d="M84 313l80 439q23 140 124 226.5t240 86.5h273q141 0 212 -86t48 -227l-53 -301h-670l-25 -142q-10 -52 15 -82t78 -30h215q54 0 89 29.5t44 82.5l6 39h227l-6 -35q-23 -140 -124.5 -226.5t-242.5 -86.5h-272q-138 0 -209.5 87t-48.5 226zM369 633h442l23 123 q8 54 -16.5 83t-78.5 29h-215q-53 0 -88.5 -29.5t-44.5 -82.5zM461 1516h229l139 -328h-172z" />
<glyph unicode="&#xe9;" horiz-adv-x="1122" d="M84 313l80 439q23 140 124 226.5t240 86.5h273q141 0 212 -86t48 -227l-53 -301h-670l-25 -142q-10 -52 15 -82t78 -30h215q54 0 89 29.5t44 82.5l6 39h227l-6 -35q-23 -140 -124.5 -226.5t-242.5 -86.5h-272q-138 0 -209.5 87t-48.5 226zM369 633h442l23 123 q8 54 -16.5 83t-78.5 29h-215q-53 0 -88.5 -29.5t-44.5 -82.5zM557 1188l236 328h247l-295 -328h-188z" />
<glyph unicode="&#xea;" horiz-adv-x="1122" d="M84 313l80 439q23 140 124 226.5t240 86.5h273q141 0 212 -86t48 -227l-53 -301h-670l-25 -142q-10 -52 15 -82t78 -30h215q54 0 89 29.5t44 82.5l6 39h227l-6 -35q-23 -140 -124.5 -226.5t-242.5 -86.5h-272q-138 0 -209.5 87t-48.5 226zM367 1188l264 328h225l150 -328 h-201l-80 184l-145 -184h-213zM369 633h442l23 123q8 54 -16.5 83t-78.5 29h-215q-53 0 -88.5 -29.5t-44.5 -82.5z" />
<glyph unicode="&#xeb;" horiz-adv-x="1122" d="M84 313l80 439q23 140 124 226.5t240 86.5h273q141 0 212 -86t48 -227l-53 -301h-670l-25 -142q-10 -52 15 -82t78 -30h215q54 0 89 29.5t44 82.5l6 39h227l-6 -35q-23 -140 -124.5 -226.5t-242.5 -86.5h-272q-138 0 -209.5 87t-48.5 226zM369 633h442l23 123 q8 54 -16.5 83t-78.5 29h-215q-53 0 -88.5 -29.5t-44.5 -82.5zM381 1204l43 248h199l-43 -248h-199zM801 1204l43 248h198l-43 -248h-198z" />
<glyph unicode="&#xed;" horiz-adv-x="493" d="M51 0l187 1065h227l-186 -1065h-228zM264 1188l236 328h248l-295 -328h-189z" />
<glyph unicode="&#xee;" horiz-adv-x="493" d="M51 0l187 1065h227l-186 -1065h-228zM57 1188l265 328h225l149 -328h-200l-80 184l-146 -184h-213z" />
<glyph unicode="&#xef;" horiz-adv-x="493" d="M51 0l187 1065h227l-186 -1065h-228zM70 1204l43 248h198l-43 -248h-198zM489 1204l43 248h199l-43 -248h-199z" />
<glyph unicode="&#xf1;" horiz-adv-x="1163" d="M51 0l187 1065h174l24 -170l-8 -49l145 125q111 94 254 94q139 0 209 -85.5t45 -223.5l-133 -756h-227l133 756q8 53 -16.5 82.5t-77.5 29.5q-54 0 -98 -39l-279 -235l-104 -594h-228zM311 1296l97 123q66 85 155 106.5t164 -28.5l141 -98q23 -19 50.5 -13.5t50.5 33.5 l78 97l116 -76l-86 -113q-67 -85 -155.5 -107.5t-165.5 29.5l-142 99q-22 19 -49 13t-49 -34l-86 -108z" />
<glyph unicode="&#xf2;" horiz-adv-x="1122" d="M84 313l80 439q23 140 124 226.5t240 86.5h273q141 0 212 -86t48 -227l-80 -439q-23 -140 -124.5 -226.5t-242.5 -86.5h-272q-138 0 -209.5 87t-48.5 226zM313 309q-10 -52 15 -82t78 -30h215q54 0 89 29.5t44 82.5l80 447q8 54 -16.5 83t-78.5 29h-215 q-53 0 -88.5 -29.5t-44.5 -82.5zM451 1516h229l139 -328h-172z" />
<glyph unicode="&#xf3;" horiz-adv-x="1122" d="M84 313l80 439q23 140 124 226.5t240 86.5h273q141 0 212 -86t48 -227l-80 -439q-23 -140 -124.5 -226.5t-242.5 -86.5h-272q-138 0 -209.5 87t-48.5 226zM313 309q-10 -52 15 -82t78 -30h215q54 0 89 29.5t44 82.5l80 447q8 54 -16.5 83t-78.5 29h-215 q-53 0 -88.5 -29.5t-44.5 -82.5zM557 1188l236 328h247l-295 -328h-188z" />
<glyph unicode="&#xf4;" horiz-adv-x="1122" d="M84 313l80 439q23 140 124 226.5t240 86.5h273q141 0 212 -86t48 -227l-80 -439q-23 -140 -124.5 -226.5t-242.5 -86.5h-272q-138 0 -209.5 87t-48.5 226zM313 309q-10 -52 15 -82t78 -30h215q54 0 89 29.5t44 82.5l80 447q8 54 -16.5 83t-78.5 29h-215 q-53 0 -88.5 -29.5t-44.5 -82.5zM367 1188l264 328h225l150 -328h-201l-80 184l-145 -184h-213z" />
<glyph unicode="&#xf6;" horiz-adv-x="1122" d="M84 313l80 439q23 140 124 226.5t240 86.5h273q141 0 212 -86t48 -227l-80 -439q-23 -140 -124.5 -226.5t-242.5 -86.5h-272q-138 0 -209.5 87t-48.5 226zM313 309q-10 -52 15 -82t78 -30h215q54 0 89 29.5t44 82.5l80 447q8 54 -16.5 83t-78.5 29h-215 q-53 0 -88.5 -29.5t-44.5 -82.5zM381 1204l43 248h199l-43 -248h-199zM801 1204l43 248h198l-43 -248h-198z" />
<glyph unicode="&#xf9;" horiz-adv-x="1163" d="M104 311l134 754h227l-131 -756q-9 -53 14.5 -82.5t77.5 -29.5t98 39l277 235l106 594h228l-187 -1065h-174l-24 170l8 49l-146 -123q-107 -96 -252 -96q-140 0 -209.5 86t-46.5 225zM532 1516h230l139 -328h-172z" />
<glyph unicode="&#xfa;" horiz-adv-x="1163" d="M104 311l134 754h227l-131 -756q-9 -53 14.5 -82.5t77.5 -29.5t98 39l277 235l106 594h228l-187 -1065h-174l-24 170l8 49l-146 -123q-107 -96 -252 -96q-140 0 -209.5 86t-46.5 225zM516 1188l236 328h247l-294 -328h-189z" />
<glyph unicode="&#xfb;" horiz-adv-x="1163" d="M104 311l134 754h227l-131 -756q-9 -53 14.5 -82.5t77.5 -29.5t98 39l277 235l106 594h228l-187 -1065h-174l-24 170l8 49l-146 -123q-107 -96 -252 -96q-140 0 -209.5 86t-46.5 225zM387 1188l264 328h226l149 -328h-201l-80 184l-145 -184h-213z" />
<glyph unicode="&#xfc;" horiz-adv-x="1163" d="M104 311l134 754h227l-131 -756q-9 -53 14.5 -82.5t77.5 -29.5t98 39l277 235l106 594h228l-187 -1065h-174l-24 170l8 49l-146 -123q-107 -96 -252 -96q-140 0 -209.5 86t-46.5 225zM401 1204l43 248h199l-43 -248h-199zM821 1204l43 248h199l-43 -248h-199z" />
<glyph unicode="&#xfd;" horiz-adv-x="1081" d="M117 -410l221 410h-14l-199 1065h231l142 -811l426 811h241l-792 -1475h-256zM537 1188l235 328h248l-295 -328h-188z" />
<glyph unicode="&#xff;" horiz-adv-x="1081" d="M117 -410l221 410h-14l-199 1065h231l142 -811l426 811h241l-792 -1475h-256zM358 1204l43 248h199l-43 -248h-199zM778 1204l43 248h199l-43 -248h-199z" />
<glyph unicode="&#x10c;" d="M104 313l144 807q25 141 126.5 227.5t239.5 86.5h482q140 0 211.5 -86.5t46.5 -227.5l-31 -172h-244l29 160q9 54 -15.5 84.5t-76.5 30.5h-393q-54 0 -89.5 -30.5t-44.5 -84.5l-137 -782q-10 -54 13.5 -83.5t76.5 -29.5h394q54 0 89.5 29.5t45.5 83.5l28 161h244 l-33 -174q-23 -139 -124.5 -226t-241.5 -87h-482q-138 0 -209.5 87t-48.5 226zM584 1812h200l101 -178l164 178h215l-267 -296h-254z" />
<glyph unicode="&#x10d;" horiz-adv-x="1101" d="M84 313l80 439q23 140 124 226.5t240 86.5h273q141 0 212 -86t48 -227l-12 -66h-228l13 70q8 54 -16.5 83t-78.5 29h-215q-53 0 -88.5 -29.5t-44.5 -82.5l-78 -447q-10 -52 15 -82t78 -30h215q54 0 89 29.5t44 82.5l12 70h227l-12 -66q-23 -140 -124.5 -226.5 t-242.5 -86.5h-272q-138 0 -209.5 87t-48.5 226zM414 1516h200l80 -185l146 185h213l-265 -328h-225z" />
<glyph unicode="&#x10e;" d="M51 0l252 1434h793q140 0 211.5 -86.5t46.5 -227.5l-144 -807q-23 -139 -124.5 -226t-241.5 -87h-793zM330 213h506q54 0 89.5 29.5t45.5 83.5l137 782q9 54 -15.5 84.5t-76.5 30.5h-508zM522 1812h201l100 -178l164 178h215l-266 -296h-254z" />
<glyph unicode="&#x10f;" horiz-adv-x="1245" d="M84 311l80 441q23 141 124 227t242 86h125q153 0 213 -102l99 553h227l-266 -1516h-174l-25 170l8 49l-145 -123q-107 -96 -252 -96q-140 0 -209.5 86t-46.5 225zM313 309q-10 -52 14.5 -82t78.5 -30q51 0 98 39l276 235l54 295q5 47 -20.5 74.5t-74.5 27.5h-215 q-54 0 -89 -29t-44 -83zM1229 1188l88 409h215l-168 -409h-135z" />
<glyph unicode="&#x11a;" horiz-adv-x="1177" d="M51 0l252 1434h963l-39 -211h-719l-70 -400h617l-37 -211h-617l-71 -399h719l-35 -213h-963zM485 1812h201l100 -178l164 178h215l-266 -296h-254z" />
<glyph unicode="&#x11b;" horiz-adv-x="1122" d="M84 313l80 439q23 140 124 226.5t240 86.5h273q141 0 212 -86t48 -227l-53 -301h-670l-25 -142q-10 -52 15 -82t78 -30h215q54 0 89 29.5t44 82.5l6 39h227l-6 -35q-23 -140 -124.5 -226.5t-242.5 -86.5h-272q-138 0 -209.5 87t-48.5 226zM369 633h442l23 123 q8 54 -16.5 83t-78.5 29h-215q-53 0 -88.5 -29.5t-44.5 -82.5zM424 1516h201l80 -185l145 185h213l-264 -328h-226z" />
<glyph unicode="&#x139;" horiz-adv-x="1136" d="M51 0l252 1434h244l-217 -1221h719l-35 -213h-963zM317 1516l222 296h264l-281 -296h-205z" />
<glyph unicode="&#x13a;" horiz-adv-x="493" d="M51 0l266 1516h228l-266 -1516h-228zM319 1597l222 297h264l-281 -297h-205z" />
<glyph unicode="&#x13d;" horiz-adv-x="1136" d="M51 0l252 1434h244l-217 -1221h719l-35 -213h-963zM635 1188l88 409h215l-168 -409h-135z" />
<glyph unicode="&#x13e;" horiz-adv-x="595" d="M51 0l266 1516h228l-266 -1516h-228zM580 1188l88 409h215l-168 -409h-135z" />
<glyph unicode="&#x13f;" horiz-adv-x="1136" d="M51 0l252 1434h244l-217 -1221h719l-35 -213h-963zM598 586l47 264h229l-49 -264h-227z" />
<glyph unicode="&#x140;" horiz-adv-x="788" d="M51 0l266 1516h228l-266 -1516h-228zM530 571l52 293h258l-52 -293h-258z" />
<glyph unicode="&#x147;" d="M51 0l252 1434h227l461 -988l174 988h244l-252 -1434h-227l-461 987l-174 -987h-244zM584 1812h200l101 -178l164 178h215l-267 -296h-254z" />
<glyph unicode="&#x148;" horiz-adv-x="1163" d="M51 0l187 1065h174l24 -170l-8 -49l145 125q111 94 254 94q139 0 209 -85.5t45 -223.5l-133 -756h-227l133 756q8 53 -16.5 82.5t-77.5 29.5q-54 0 -98 -39l-279 -235l-104 -594h-228zM444 1516h201l80 -185l145 185h213l-264 -328h-225z" />
<glyph unicode="&#x152;" horiz-adv-x="2070" d="M104 313l144 807q25 141 126.5 227.5t239.5 86.5h349q118 0 190 -66l12 66h963l-39 -211h-719l-70 -400h617l-37 -211h-616l-72 -399h719l-35 -213h-963l11 66q-91 -66 -213 -66h-349q-138 0 -209.5 87t-48.5 226zM352 326q-10 -54 13.5 -83.5t76.5 -29.5h394 q53 0 88 28.5t45 80.5l133 753l8 45q5 48 -20 75.5t-74 27.5h-393q-54 0 -89.5 -30.5t-44.5 -84.5z" />
<glyph unicode="&#x153;" horiz-adv-x="1792" d="M84 313l80 439q23 140 124 226.5t240 86.5h226q81 0 139 -31.5t86 -89.5q100 121 266 121h225q141 0 212.5 -86t46.5 -227l-54 -301h-667l-27 -142q-9 -52 16 -82t78 -30h215q53 0 87.5 29.5t45.5 82.5l7 39h227l-6 -35q-23 -140 -124.5 -226.5t-242.5 -86.5h-225 q-81 0 -139 31.5t-86 89.5q-48 -58 -117 -89.5t-150 -31.5h-225q-138 0 -209.5 87t-48.5 226zM313 309q-10 -52 14.5 -82t78.5 -30h215q54 0 89 29.5t44 82.5l80 447q8 54 -16.5 83t-78.5 29h-215q-53 0 -88.5 -29.5t-44.5 -82.5zM1038 633h443l20 123q9 54 -14.5 83 t-77.5 29h-215q-55 0 -90.5 -29.5t-42.5 -82.5z" />
<glyph unicode="&#x154;" horiz-adv-x="1290" d="M51 0l252 1434h752q140 0 211.5 -86.5t46.5 -227.5l-53 -297q-21 -123 -103 -204.5t-199 -102.5l158 -516h-254l-143 510h-334l-90 -510h-244zM420 721h465q53 0 89 30.5t46 84.5l47 272q9 54 -15.5 84.5t-76.5 30.5h-467zM655 1516l222 296h264l-281 -296h-205z" />
<glyph unicode="&#x155;" horiz-adv-x="757" d="M51 0l187 1065h174l24 -170l-8 -49l145 125q58 48 128 71t169 23l-34 -197q-80 0 -113.5 -8.5t-60.5 -30.5l-279 -235l-104 -594h-228zM375 1188l235 328h248l-295 -328h-188z" />
<glyph unicode="&#x158;" horiz-adv-x="1290" d="M51 0l252 1434h752q140 0 211.5 -86.5t46.5 -227.5l-53 -297q-21 -123 -103 -204.5t-199 -102.5l158 -516h-254l-143 510h-334l-90 -510h-244zM420 721h465q53 0 89 30.5t46 84.5l47 272q9 54 -15.5 84.5t-76.5 30.5h-467zM543 1812h200l101 -178l164 178h215l-267 -296 h-254z" />
<glyph unicode="&#x159;" horiz-adv-x="757" d="M51 0l187 1065h174l24 -170l-8 -49l145 125q58 48 128 71t169 23l-34 -197q-80 0 -113.5 -8.5t-60.5 -30.5l-279 -235l-104 -594h-228zM244 1516h200l80 -185l146 185h213l-265 -328h-225z" />
<glyph unicode="&#x160;" horiz-adv-x="1351" d="M104 313l23 127h244l-19 -114q-10 -54 13.5 -83.5t76.5 -29.5h373q54 0 89.5 29.5t45.5 83.5l29 174q10 52 -14.5 82t-77.5 30h-418q-138 0 -208.5 86.5t-47.5 227.5l35 194q25 141 126.5 227.5t239.5 86.5h461q140 0 211.5 -86.5t46.5 -227.5l-22 -127h-244l20 115 q9 54 -15.5 84.5t-76.5 30.5h-372q-54 0 -89.5 -30.5t-44.5 -84.5l-30 -170q-9 -54 15.5 -84.5t76.5 -30.5h418q139 0 210 -86t48 -227l-37 -197q-25 -141 -126 -227t-239 -86h-460q-140 0 -212 86t-49 227zM573 1812h201l100 -178l164 178h215l-266 -296h-254z" />
<glyph unicode="&#x161;" horiz-adv-x="1122" d="M84 305l6 41h227l-6 -45q-9 -49 13.5 -76.5t72.5 -27.5h232q49 0 81.5 28t41.5 78l8 37q8 50 -15 78t-73 28h-250q-136 0 -205.5 84.5t-44.5 221.5l2 8q25 137 123 221t233 84h269q137 0 207 -84.5t45 -220.5l-9 -41h-227l8 45q8 50 -14.5 77t-71.5 27h-211 q-50 0 -83 -27.5t-40 -76.5l-6 -33q-9 -49 13.5 -76.5t72.5 -27.5h252q135 0 204 -84.5t44 -220.5l-2 -17q-25 -137 -123 -221t-233 -84h-289q-137 0 -207 84.5t-45 220.5zM424 1516h201l80 -185l145 185h213l-264 -328h-226z" />
<glyph unicode="&#x164;" horiz-adv-x="1153" d="M133 1223l37 211h1153l-39 -211h-455l-213 -1223h-243l215 1223h-455zM473 1812h201l100 -178l164 178h215l-266 -296h-254z" />
<glyph unicode="&#x165;" horiz-adv-x="739" d="M70 868l34 197h256l56 307l239 68l-67 -375h256l-33 -197h-256l-154 -868h-227l152 868h-256zM702 1188l89 409h215l-168 -409h-136z" />
<glyph unicode="&#x16e;" d="M104 313l199 1121h244l-195 -1108q-10 -54 13.5 -83.5t76.5 -29.5h394q54 0 89.5 29.5t45.5 83.5l194 1108h244l-199 -1121q-23 -139 -124.5 -226t-241.5 -87h-482q-138 0 -209.5 87t-48.5 226zM668 1632q0 106 78 177t188 71q87 0 138.5 -46t51.5 -122 q0 -106 -77.5 -176t-186.5 -70q-89 0 -140.5 45t-51.5 121zM805 1640q0 -69 74 -69q48 0 79 35.5t31 97.5q0 70 -76 70q-48 0 -78 -36t-30 -98z" />
<glyph unicode="&#x16f;" horiz-adv-x="1163" d="M104 311l134 754h227l-131 -756q-9 -53 14.5 -82.5t77.5 -29.5t98 39l277 235l106 594h228l-187 -1065h-174l-24 170l8 49l-146 -123q-107 -96 -252 -96q-140 0 -209.5 86t-46.5 225zM506 1300q0 104 77.5 175t186.5 71q89 0 140 -45t51 -121q0 -106 -78 -176.5 t-187 -70.5q-89 0 -139.5 45t-50.5 122zM641 1309q0 -34 19.5 -52t54.5 -18q49 0 79.5 35t30.5 96q0 70 -73 70q-49 0 -80 -35t-31 -96z" />
<glyph unicode="&#x178;" horiz-adv-x="1300" d="M174 1434h279l243 -662l482 662h286l-682 -908l-92 -526h-244l93 526zM485 1524l43 248h199l-45 -248h-197zM987 1524l43 248h199l-45 -248h-197z" />
<glyph unicode="&#x17d;" horiz-adv-x="1284" d="M31 0l37 213l946 1010h-768l37 211h1058l-36 -211l-947 -1010h768l-36 -213h-1059zM539 1812h200l101 -178l164 178h215l-267 -296h-254z" />
<glyph unicode="&#x17e;" horiz-adv-x="1015" d="M0 0l35 197l686 671h-569l34 197h852l-34 -197l-687 -671h568l-33 -197h-852zM371 1516h200l80 -185l146 185h213l-265 -328h-225z" />
<glyph unicode="&#x2c6;" horiz-adv-x="720" d="M168 1188l264 328h225l150 -328h-201l-80 184l-145 -184h-213z" />
<glyph unicode="&#x2da;" horiz-adv-x="495" d="M174 1300q0 104 77.5 175t186.5 71q89 0 140 -45t51 -121q0 -106 -77.5 -176.5t-186.5 -70.5q-89 0 -140 45t-51 122zM309 1309q0 -34 19.5 -52t54.5 -18q49 0 80 35t31 96q0 34 -19.5 52t-54.5 18q-49 0 -80 -35t-31 -96z" />
<glyph unicode="&#x2dc;" horiz-adv-x="909" d="M186 1296l97 123q66 85 155 106.5t164 -28.5l141 -98q23 -19 50.5 -13.5t50.5 33.5l78 97l116 -76l-86 -113q-67 -85 -155.5 -107.5t-165.5 29.5l-142 99q-22 19 -49 13t-49 -34l-86 -108z" />
<glyph unicode="&#x2000;" horiz-adv-x="947" />
<glyph unicode="&#x2001;" horiz-adv-x="1894" />
<glyph unicode="&#x2002;" horiz-adv-x="947" />
<glyph unicode="&#x2003;" horiz-adv-x="1894" />
<glyph unicode="&#x2004;" horiz-adv-x="631" />
<glyph unicode="&#x2005;" horiz-adv-x="473" />
<glyph unicode="&#x2006;" horiz-adv-x="315" />
<glyph unicode="&#x2007;" horiz-adv-x="315" />
<glyph unicode="&#x2008;" horiz-adv-x="236" />
<glyph unicode="&#x2009;" horiz-adv-x="378" />
<glyph unicode="&#x200a;" horiz-adv-x="105" />
<glyph unicode="&#x2010;" horiz-adv-x="565" d="M55 438l35 197h442l-34 -197h-443z" />
<glyph unicode="&#x2011;" horiz-adv-x="565" d="M55 438l35 197h442l-34 -197h-443z" />
<glyph unicode="&#x2012;" horiz-adv-x="565" d="M55 438l35 197h442l-34 -197h-443z" />
<glyph unicode="&#x2013;" horiz-adv-x="1044" d="M4 438l35 197h1024l-35 -197h-1024z" />
<glyph unicode="&#x2014;" horiz-adv-x="2068" d="M4 438l35 197h2048l-35 -197h-2048z" />
<glyph unicode="&#x2018;" horiz-adv-x="524" d="M248 1122l186 529h166l-92 -529h-260z" />
<glyph unicode="&#x2019;" horiz-adv-x="524" d="M248 1122l94 529h258l-184 -529h-168z" />
<glyph unicode="&#x201a;" horiz-adv-x="524" d="M8 -236l94 531h260l-188 -531h-166z" />
<glyph unicode="&#x201c;" horiz-adv-x="876" d="M248 1122l186 529h166l-92 -529h-260zM600 1122l184 529h166l-92 -529h-258z" />
<glyph unicode="&#x201d;" horiz-adv-x="876" d="M248 1122l94 529h258l-184 -529h-168zM600 1122l92 529h258l-184 -529h-166z" />
<glyph unicode="&#x201e;" horiz-adv-x="876" d="M8 -236l94 531h260l-188 -531h-166zM358 -236l97 531h258l-187 -531h-168z" />
<glyph unicode="&#x2022;" horiz-adv-x="692" d="M106 659q0 144 98 241t236 97q108 0 171 -60.5t63 -162.5q0 -144 -97.5 -240t-236.5 -96q-108 0 -171 60.5t-63 160.5z" />
<glyph unicode="&#x2026;" horiz-adv-x="1943" d="M51 0l51 295h260l-53 -295h-258zM760 0l53 295h258l-51 -295h-260zM1470 0l52 295h258l-51 -295h-259z" />
<glyph unicode="&#x202f;" horiz-adv-x="378" />
<glyph unicode="&#x2039;" horiz-adv-x="552" d="M35 430l35 205l505 315l-38 -229l-295 -189l227 -186l-41 -231z" />
<glyph unicode="&#x203a;" horiz-adv-x="552" d="M-16 115l41 231l290 186l-225 187l41 231l393 -315l-35 -205z" />
<glyph unicode="&#x205f;" horiz-adv-x="473" />
<glyph unicode="&#x20ac;" horiz-adv-x="1300" d="M49 455l31 182h133l29 162h-133l32 180h133l25 141q25 141 127 227.5t240 86.5h399q140 0 211.5 -86.5t46.5 -227.5l-31 -172h-243l28 160q9 54 -15.5 84.5t-78.5 30.5h-309q-54 0 -89 -30.5t-44 -84.5l-25 -129h371l-33 -180h-369l-28 -162h368l-30 -182h-371l-21 -129 q-10 -54 14 -83.5t77 -29.5h311q54 0 89.5 29.5t45.5 83.5l29 161h243l-32 -174q-23 -139 -125 -226t-242 -87h-399q-138 0 -209.5 87t-48.5 226l26 142h-133z" />
<glyph unicode="&#x2122;" horiz-adv-x="1527" d="M193 1296l24 138h608l-24 -138h-226l-104 -579h-156l105 579h-227zM762 717l127 717h151l140 -347l260 347h149l-127 -717h-153l80 442l-259 -340l-133 340l-79 -442h-156z" />
<glyph unicode="&#x2190;" horiz-adv-x="1951" d="M41 795l868 868l162 -160l-586 -585h1426v-246h-1426l586 -586l-162 -160z" />
<glyph unicode="&#x2191;" horiz-adv-x="1818" d="M41 862l868 869l869 -869l-160 -162l-586 586v-1425h-246v1425l-585 -586z" />
<glyph unicode="&#x2192;" horiz-adv-x="1951" d="M41 672v246h1425l-585 585l161 160l869 -868l-869 -869l-161 160l585 586h-1425z" />
<glyph unicode="&#x2193;" horiz-adv-x="1818" d="M41 731l160 162l585 -586v1426h246v-1426l586 586l160 -162l-869 -868z" />
<glyph unicode="&#x25fc;" horiz-adv-x="1064" d="M0 0v1065h1065v-1065h-1065z" />
</font>
</defs>
</svg>
