<?xml version="1.0" standalone="no"?>
<!DOCTYPE svg PUBLIC "-//W3C//DTD SVG 1.1//EN" "http://www.w3.org/Graphics/SVG/1.1/DTD/svg11.dtd" >
<svg xmlns="http://www.w3.org/2000/svg">
<metadata></metadata>
<defs>
<font id="puristathin_italic" horiz-adv-x="1320" >
<font-face units-per-em="2048" ascent="1638" descent="-410" />
<missing-glyph horiz-adv-x="614" />
<glyph horiz-adv-x="0" />
<glyph horiz-adv-x="682" />
<glyph unicode=" "  horiz-adv-x="614" />
<glyph unicode="&#x09;" horiz-adv-x="614" />
<glyph unicode="&#xa0;" horiz-adv-x="614" />
<glyph unicode="!" horiz-adv-x="430" d="M123 0l29 164h20l-29 -164h-20zM182 348l193 1086h20l-192 -1086h-21z" />
<glyph unicode="&#x22;" horiz-adv-x="491" d="M252 973l82 461h20l-82 -461h-20zM395 973l82 461h21l-82 -461h-21z" />
<glyph unicode="#" horiz-adv-x="1497" d="M41 397v21h281l192 598h-293v20h299l127 398h21l-127 -398h620l127 398h21l-127 -398h274v-20h-280l-193 -598h293v-21h-299l-127 -397h-21l127 397h-620l-127 -397h-21l127 397h-274zM342 418h621l192 598h-620z" />
<glyph unicode="$" horiz-adv-x="1239" d="M131 289l23 121h20l-22 -123q-22 -121 38.5 -195t180.5 -74h334q120 0 207.5 74t109.5 195l27 153q22 120 -39 194.5t-181 74.5h-333q-129 0 -195.5 79.5t-44.5 208.5l27 148q23 130 117 209.5t223 79.5h155l37 204h21l-37 -204h157q129 0 195 -79.5t43 -209.5l-20 -121 h-21l21 123q22 121 -39.5 194.5t-182.5 73.5h-331q-121 0 -208.5 -73.5t-109.5 -194.5l-27 -152q-22 -120 40 -194t182 -74h333q129 0 195 -80t43 -209l-27 -149q-23 -131 -115.5 -210t-221.5 -79h-158l-37 -205h-21l37 205h-155q-130 0 -196.5 79.5t-43.5 209.5z" />
<glyph unicode="%" horiz-adv-x="1431" d="M127 0l1241 1434h25l-1241 -1434h-25zM172 860l76 430q10 64 56.5 104t111.5 40h168q64 0 96.5 -39.5t21.5 -104.5l-75 -430q-12 -64 -58.5 -103.5t-111.5 -39.5h-168q-65 0 -97 39.5t-20 103.5zM193 860q-10 -57 17 -91t83 -34h168q56 0 95.5 34t49.5 91l76 430 q9 57 -18.5 91t-83.5 34h-168q-56 0 -95.5 -34t-48.5 -91zM817 143l76 430q10 64 56.5 104t111.5 40h168q64 0 97 -39.5t22 -104.5l-76 -430q-12 -65 -58 -104t-110 -39h-168q-65 0 -98 39.5t-21 103.5zM838 143q-10 -57 17 -91t83 -34h168q56 0 95.5 34t49.5 91l76 430 q9 57 -18 91t-82 34h-168q-56 0 -96.5 -34t-49.5 -91z" />
<glyph unicode="&#x26;" horiz-adv-x="1241" d="M131 289l27 147q20 112 95 188t181 95q-90 23 -132.5 98.5t-22.5 181.5l24 146q23 130 117 209.5t223 79.5h295q129 0 195 -79.5t43 -209.5l-17 -90h-20l16 92q22 121 -37.5 194.5t-179.5 73.5h-295q-121 0 -209 -73.5t-110 -194.5l-27 -152q-22 -120 37.5 -194 t179.5 -74h772l-2 -18h-184l-125 -709h-21l31 176q-43 -83 -121.5 -129.5t-177.5 -46.5h-315q-129 0 -195.5 80t-44.5 209zM152 287q-22 -120 38.5 -194.5t180.5 -74.5h315q120 0 208 74.5t110 194.5l22 123l53 299h-579q-120 0 -210 -74.5t-112 -194.5z" />
<glyph unicode="'" horiz-adv-x="348" d="M252 973l82 461h20l-82 -461h-20z" />
<glyph unicode="(" horiz-adv-x="559" d="M84 12l248 1409q23 130 117 209.5t223 79.5h65l-4 -18h-61q-121 0 -209.5 -74t-110.5 -195l-250 -1413q-20 -121 39 -194.5t178 -73.5h70l-2 -18h-65q-129 0 -195 79.5t-43 208.5z" />
<glyph unicode=")" horiz-adv-x="559" d="M-88 -276l2 18h59q121 0 209.5 73.5t110.5 194.5l250 1413q22 120 -37.5 194.5t-179.5 74.5h-70l4 18h66q129 0 194.5 -80t42.5 -209l-248 -1409q-23 -130 -117 -209t-223 -79h-63z" />
<glyph unicode="*" horiz-adv-x="913" d="M178 1135l10 20l357 -125l71 404h21l-72 -404l402 125l2 -20l-400 -123l179 -324l-19 -12l-178 323l-293 -323l-14 12l293 324z" />
<glyph unicode="+" horiz-adv-x="1048" d="M104 709l2 18h451l82 465h20l-81 -465h454l-2 -18h-455l-81 -461h-21l82 461h-451z" />
<glyph unicode="," horiz-adv-x="348" d="M39 -236l72 400h20l-72 -400h-20z" />
<glyph unicode="-" horiz-adv-x="460" d="M74 535l2 18h338l-2 -18h-338z" />
<glyph unicode="." horiz-adv-x="348" d="M82 0l29 164h20l-29 -164h-20z" />
<glyph unicode="/" horiz-adv-x="557" d="M-190 -276l1005 1986h23l-1006 -1986h-22z" />
<glyph unicode="0" horiz-adv-x="1239" d="M131 289l152 856q23 131 114.5 210t220.5 79h334q130 0 197.5 -79.5t44.5 -209.5l-152 -856q-22 -129 -115 -209t-222 -80h-334q-129 0 -195.5 80t-44.5 209zM152 287q-22 -120 38.5 -194.5t180.5 -74.5h334q120 0 207.5 74.5t109.5 194.5l152 860q22 121 -39 194.5 t-181 73.5h-333q-121 0 -208.5 -73.5t-109.5 -194.5z" />
<glyph unicode="1" horiz-adv-x="583" d="M207 1184l4 22l358 228h21l-252 -1434h-21l248 1411z" />
<glyph unicode="2" horiz-adv-x="1200" d="M82 0l2 18l895 791q116 101 135 219l21 119q22 121 -37.5 194.5t-179.5 73.5h-295q-121 0 -209.5 -73.5t-110.5 -194.5l-29 -164h-20l29 162q23 130 117 209.5t223 79.5h295q129 0 194.5 -79.5t42.5 -209.5l-20 -117q-12 -66 -48 -122t-102 -115l-874 -773h843l-2 -18 h-870z" />
<glyph unicode="3" horiz-adv-x="1220" d="M131 289l23 123h20l-22 -125q-22 -121 38.5 -195t180.5 -74h315q120 0 208 74t110 195l26 153q22 120 -39.5 194.5t-181.5 74.5h-287l2 18h264q120 0 209 74t111 194l27 152q22 121 -37.5 194.5t-179.5 73.5h-295q-121 0 -209.5 -73.5t-110.5 -194.5l-20 -123h-21l21 121 q23 130 117 209.5t223 79.5h295q129 0 194.5 -79.5t42.5 -209.5l-25 -146q-20 -107 -89.5 -182t-168.5 -98q101 -19 150 -95.5t29 -187.5l-27 -147q-23 -130 -116 -209.5t-222 -79.5h-315q-130 0 -196.5 79.5t-43.5 209.5z" />
<glyph unicode="4" horiz-adv-x="1116" d="M18 348l5 19l1034 1067h24l-188 -1067h164l-4 -19h-164l-60 -348h-20l59 348h-850zM47 367h825l185 1042z" />
<glyph unicode="5" horiz-adv-x="1200" d="M131 289l8 39h21l-8 -41q-22 -120 38.5 -194.5t180.5 -74.5h295q120 0 207.5 74.5t109.5 194.5l45 256q22 121 -37.5 194.5t-179.5 73.5h-295q-121 0 -209 -73.5t-110 -194.5l-2 -11h-21l160 902h831l-4 -19h-811l-135 -764q43 83 123 130.5t180 47.5h293q129 0 195 -79 t43 -209l-45 -252q-22 -129 -115.5 -209t-222.5 -80h-295q-129 0 -195.5 80t-44.5 209z" />
<glyph unicode="6" horiz-adv-x="1200" d="M131 289l152 856q23 130 117 209.5t223 79.5h295q129 0 194.5 -79.5t42.5 -209.5l-20 -121h-21l21 123q22 121 -37.5 194.5t-179.5 73.5h-295q-121 0 -209.5 -73.5t-110.5 -194.5l-96 -541q43 85 123.5 133.5t179.5 48.5h293q130 0 196 -79t43 -209l-38 -211 q-22 -129 -115.5 -209t-222.5 -80h-295q-129 0 -195.5 80t-44.5 209zM152 287q-22 -120 38.5 -194.5t180.5 -74.5h295q120 0 207.5 74.5t109.5 194.5l39 215q22 121 -38.5 194.5t-180.5 73.5h-295q-121 0 -208.5 -73.5t-109.5 -194.5l-24 -131z" />
<glyph unicode="7" horiz-adv-x="1034" d="M213 0l903 1415h-889l4 19h912l-4 -19l-903 -1415h-23z" />
<glyph unicode="8" horiz-adv-x="1241" d="M131 289l27 147q20 113 94 188.5t182 94.5q-91 23 -133 98t-22 182l24 146q23 130 117 209.5t223 79.5h295q129 0 195 -79.5t43 -209.5l-25 -146q-20 -107 -89.5 -182t-168.5 -98q101 -19 149.5 -94.5t28.5 -188.5l-27 -147q-22 -129 -115 -209t-222 -80h-336 q-129 0 -195.5 80t-44.5 209zM152 287q-22 -120 38.5 -194.5t180.5 -74.5h336q120 0 207.5 74.5t109.5 194.5l27 153q22 122 -36.5 195.5t-178.5 73.5h-336q-121 0 -210.5 -74t-111.5 -195zM297 995q-22 -120 37.5 -194t179.5 -74h295q120 0 208.5 74t110.5 194l27 152 q22 121 -37.5 194.5t-179.5 73.5h-295q-121 0 -209 -73.5t-110 -194.5z" />
<glyph unicode="9" horiz-adv-x="1200" d="M131 289l21 121h20l-20 -123q-22 -122 37.5 -195.5t179.5 -73.5h295q121 0 209 74t110 195l90 514q-43 -83 -122 -129.5t-177 -46.5h-293q-130 0 -196 79t-43 209l41 232q22 129 115.5 209t222.5 80h294q129 0 195.5 -80t44.5 -209l-151 -856q-23 -130 -117 -209.5 t-223 -79.5h-295q-129 0 -195 79.5t-43 209.5zM262 911q-22 -121 38.5 -194.5t180.5 -73.5h295q116 0 202.5 68.5t111.5 183.5l30 168l15 84q22 120 -39 194t-181 74h-294q-120 0 -208 -74t-110 -194z" />
<glyph unicode=":" horiz-adv-x="348" d="M82 0l29 164h20l-29 -164h-20zM240 901l28 164h21l-29 -164h-20z" />
<glyph unicode=";" horiz-adv-x="348" d="M39 -236l72 400h20l-72 -400h-20zM240 901l28 164h21l-29 -164h-20z" />
<glyph unicode="&#x3c;" horiz-adv-x="1048" d="M104 709l2 20l994 381l-4 -23l-969 -368l838 -371l-2 -20z" />
<glyph unicode="=" horiz-adv-x="1048" d="M57 453l4 18h926l-4 -18h-926zM150 965l2 18h925l-2 -18h-925z" />
<glyph unicode="&#x3e;" horiz-adv-x="1048" d="M37 328l2 22l969 369l-838 371l4 20l858 -381l-2 -20z" />
<glyph unicode="?" horiz-adv-x="1259" d="M262 1024l27 154q20 115 102.5 185.5t198.5 70.5h420q115 0 173 -70t38 -186l-37 -213q-22 -116 -104 -186t-197 -70h-13q-106 0 -182.5 -65t-95.5 -171l-23 -125h-20l22 123q20 115 102.5 185.5t198.5 70.5h13q106 0 181.5 65t94.5 171l39 217q19 106 -33 170.5 t-157 64.5h-420q-106 0 -184 -65t-97 -170l-26 -156h-21zM489 0l29 164h21l-29 -164h-21z" />
<glyph unicode="@" horiz-adv-x="2127" d="M113 303q0 168 40.5 322.5t113.5 280.5t176.5 229t228 173t270 108t299.5 38q372 0 583.5 -196.5t211.5 -536.5q0 -52 -5 -111t-18 -130.5t-32.5 -137t-52 -129t-74 -110t-100.5 -75t-128 -28.5q-119 0 -180 72.5t-39 193.5l14 86l-319 -272q-93 -80 -225 -80 q-130 0 -195.5 80t-42.5 209l86 487q23 131 116.5 210t223.5 79h211q100 0 164 -48t76 -138l32 186h21l-142 -803q-20 -110 35.5 -177t163.5 -67q60 0 112 23t88.5 60t67 89t49.5 105.5t33 113.5t21.5 108.5t11.5 96t5 70.5t1 37q0 330 -206 522.5t-568 192.5 q-151 0 -293.5 -37.5t-265 -106.5t-224.5 -170.5t-173.5 -225t-111.5 -275.5t-40 -318q0 -330 206.5 -522.5t569.5 -192.5q269 0 502 115l6 -18q-239 -115 -508 -115q-373 0 -584.5 196.5t-211.5 536.5zM659 287q-22 -120 39.5 -194.5t182.5 -74.5q120 0 209 76l337 285 l70 399q19 122 -41 195.5t-180 73.5h-215q-121 0 -207.5 -73.5t-108.5 -195.5z" />
<glyph unicode="A" horiz-adv-x="1204" d="M-82 0l842 1434h24l338 -1434h-22l-101 432h-802l-254 -432h-25zM207 451h788l-225 960z" />
<glyph unicode="B" horiz-adv-x="1218" d="M82 0l252 1434h663q129 0 195 -80q49 -59 49 -145q0 -30 -6 -64l-25 -146q-20 -107 -89.5 -182t-168.5 -98q102 -19 150 -95q34 -53 34 -125q0 -30 -6 -63l-26 -147q-22 -129 -115.5 -209t-222.5 -80h-684zM104 18h662q120 0 207.5 74.5t109.5 194.5l27 153q6 32 6 60 q0 80 -46 135q-62 74 -181 74h-662zM229 727h639q120 0 209 74t111 194l26 152q6 32 6 61q0 80 -44 134q-60 74 -181 73h-645z" />
<glyph unicode="C" d="M131 289l152 856q23 130 117 209.5t223 79.5h415q129 0 195 -80q49 -59 49 -145q0 -30 -6 -64l-21 -121h-20l20 123q6 32 6 61q-1 80 -45 134q-60 74 -180 73h-415q-121 0 -208.5 -73.5t-109.5 -194.5l-151 -860q-6 -32 -5 -61q-1 -80 43 -134q60 -74 181 -74h415 q120 0 208 74.5t110 194.5l22 123h21l-23 -121q-22 -129 -115.5 -209t-222.5 -80h-415q-129 0 -195 80q-50 60 -50 148q0 29 5 61z" />
<glyph unicode="D" d="M82 0l252 1434h704q129 0 195 -80q49 -59 49 -145q0 -30 -6 -64l-152 -856q-22 -129 -115.5 -209t-222.5 -80h-704zM104 18h682q120 0 208 74.5t110 194.5l151 860q6 32 6 61q-1 80 -45 134q-60 74 -180 73h-686z" />
<glyph unicode="E" horiz-adv-x="1095" d="M82 0l252 1434h850l-4 -19h-830l-121 -688h727l-2 -18h-727l-123 -691h830l-2 -18h-850z" />
<glyph unicode="F" horiz-adv-x="972" d="M82 0l252 1434h809l-4 -19h-789l-125 -708h686l-2 -19h-686l-121 -688h-20z" />
<glyph unicode="G" d="M131 289l152 856q23 130 117 209.5t223 79.5h415q129 0 195 -80q49 -58 49 -145q0 -30 -6 -64l-21 -121h-20l20 123q6 32 6 61q0 80 -45 134q-60 73 -180 73h-415q-121 0 -208.5 -73.5t-109.5 -194.5l-151 -860q-6 -32 -6 -61q0 -79 44 -134q61 -74 181 -74h415 q120 0 208 74.5t110 194.5l63 356h-600l2 19h621l-115 -662h-20l30 178q-43 -83 -123 -130.5t-178 -47.5h-413q-129 0 -195 80q-50 60 -50 148q0 29 5 61z" />
<glyph unicode="H" d="M82 0l252 1434h20l-125 -707h953l125 707h20l-252 -1434h-20l125 709h-953l-125 -709h-20z" />
<glyph unicode="I" horiz-adv-x="348" d="M82 0l252 1434h20l-252 -1434h-20z" />
<glyph unicode="J" horiz-adv-x="1177" d="M45 256l27 154h20l-29 -156q-5 -28 -5 -53q0 -70 39 -118q53 -65 159 -65h420q106 0 182.5 65t95.5 171l209 1180h21l-207 -1178q-22 -116 -104 -186t-197 -70h-420q-116 0 -174 70q-43 52 -43 126q0 29 6 60z" />
<glyph unicode="K" horiz-adv-x="1075" d="M82 0l252 1434h20l-125 -707l945 707h30l-958 -719l706 -715h-28l-699 705l-123 -705h-20z" />
<glyph unicode="L" horiz-adv-x="1054" d="M82 0l252 1434h20l-250 -1416h830l-2 -18h-850z" />
<glyph unicode="M" horiz-adv-x="1486" d="M82 0l252 1434h18l377 -1039l741 1039h23l-252 -1434h-20l243 1391l-741 -1037l-377 1037l-244 -1391h-20z" />
<glyph unicode="N" d="M82 0l252 1434h20l707 -1401l246 1401h20l-252 -1434h-20l-707 1401l-246 -1401h-20z" />
<glyph unicode="O" d="M131 289l152 856q23 131 114.5 210t220.5 79h416q130 0 198 -80q50 -59 50 -146q0 -30 -6 -63l-152 -856q-22 -129 -115.5 -209t-222.5 -80h-415q-129 0 -195 80q-50 60 -50 148q0 29 5 61zM152 287q-6 -32 -5 -61q-1 -80 43 -134q60 -74 181 -74h415q120 0 208 74.5 t110 194.5l151 860q6 32 6 61q-1 80 -45 134q-60 74 -180 73h-415q-121 0 -208.5 -73.5t-109.5 -194.5z" />
<glyph unicode="P" horiz-adv-x="1157" d="M82 0l252 1434h622q129 0 195 -80q49 -59 49 -145q0 -30 -6 -64l-43 -250q-23 -129 -117 -209t-223 -80h-602l-107 -606h-20zM211 625h600q120 0 208.5 74t108.5 194l46 254q6 32 6 61q0 80 -45 134q-61 74 -181 73h-604z" />
<glyph unicode="Q" d="M131 289l152 856q23 130 117 209.5t223 79.5h415q129 0 195 -80q49 -58 49 -145q0 -30 -6 -64l-152 -856q-22 -129 -115.5 -209t-222.5 -80h-196l-51 -287h-21l51 287h-198q-129 0 -195 80q-50 60 -50 148q0 29 5 61zM152 287q-6 -32 -6 -61q0 -79 44 -134 q61 -74 181 -74h415q120 0 208 74.5t110 194.5l151 860q6 32 6 61q0 80 -45 134q-60 73 -180 73h-415q-121 0 -208.5 -73.5t-109.5 -194.5z" />
<glyph unicode="R" horiz-adv-x="1239" d="M82 0l252 1434h663q129 0 195 -80q49 -59 49 -145q0 -30 -6 -64l-43 -250q-23 -126 -113.5 -206t-216.5 -83l172 -606h-22l-172 606h-631l-107 -606h-20zM211 625h641q120 0 208.5 74t108.5 194l45 254q6 32 6 61q0 80 -44 134q-60 74 -181 73h-645z" />
<glyph unicode="S" horiz-adv-x="1300" d="M131 289l23 121h20l-22 -123q-6 -32 -6 -61q0 -80 44 -134q60 -74 181 -74h395q120 0 207.5 74t109.5 195l27 153q6 32 6 61q0 79 -44 133q-60 74 -181 75h-395q-130 -1 -196 79q-50 60 -49 148q0 29 5 61l27 148q23 130 117 209.5t223 79.5h395q128 0 194 -80 q48 -59 49 -145q0 -30 -6 -64l-20 -121h-21l21 123q6 32 6 61q-1 80 -45 134q-60 74 -180 73h-395q-121 0 -208.5 -73.5t-109.5 -194.5l-27 -152q-6 -31 -5 -60q0 -80 45 -134q62 -74 182 -74h395q129 0 195 -80q48 -59 48 -145q0 -30 -6 -64l-26 -149q-23 -130 -116 -209.5 t-222 -79.5h-395q-131 0 -197 80q-49 59 -49 146q0 30 6 63z" />
<glyph unicode="T" horiz-adv-x="1163" d="M166 1415l4 19h1163l-4 -19h-571l-248 -1415h-21l248 1415h-571z" />
<glyph unicode="U" d="M131 289l203 1145h20l-202 -1147q-6 -32 -5 -61q-1 -80 43 -134q60 -74 181 -74h415q120 0 208 74.5t110 194.5l203 1147h20l-203 -1145q-22 -129 -115.5 -209t-222.5 -80h-415q-129 0 -195 80q-50 60 -50 148q0 29 5 61z" />
<glyph unicode="V" horiz-adv-x="1204" d="M170 1434h23l329 -1411l828 1411h24l-842 -1434h-24z" />
<glyph unicode="W" horiz-adv-x="1732" d="M170 1434h20l170 -1407l666 1407h21l170 -1407l663 1407h23l-678 -1434h-25l-170 1399l-661 -1399h-25z" />
<glyph unicode="X" horiz-adv-x="1157" d="M2 0l608 717l-358 717h22l351 -699l594 699h26l-610 -717l358 -717h-22l-350 698l-594 -698h-25z" />
<glyph unicode="Y" horiz-adv-x="1157" d="M188 1434h23l389 -822l680 822h27l-699 -844l-102 -590h-21l103 590z" />
<glyph unicode="Z" horiz-adv-x="1157" d="M0 0l2 18l1212 1397h-966l4 19h993l-4 -19l-1212 -1397h966l-2 -18h-993z" />
<glyph unicode="[" horiz-adv-x="559" d="M33 -276l350 1986h354l-4 -18h-334l-344 -1950h334l-2 -18h-354z" />
<glyph unicode="\" horiz-adv-x="557" d="M158 1710h20l309 -1986h-20z" />
<glyph unicode="]" horiz-adv-x="559" d="M-88 -276l2 18h332l344 1950h-334l4 18h354l-350 -1986h-352z" />
<glyph unicode="^" horiz-adv-x="970" d="M113 766l581 963h25l242 -963h-25l-234 938l-565 -938h-24z" />
<glyph unicode="_" horiz-adv-x="1044" d="M-80 -39l4 19h1024l-4 -19h-1024z" />
<glyph unicode="`" horiz-adv-x="350" d="M223 1516h25l188 -328h-24z" />
<glyph unicode="a" horiz-adv-x="1099" d="M111 289l86 487q23 131 116.5 210t223.5 79h213q99 0 163 -49t74 -137l33 186h20l-188 -1065h-21l31 176l33 176l-279 -235q-82 -69 -140.5 -93t-127.5 -24q-130 0 -195 80q-48 59 -48 145q0 30 6 64zM131 287q-6 -32 -6 -61q0 -80 44 -134q60 -74 181 -74q65 0 120 23 t128 86l301 254l70 397q5 30 5 57q0 83 -44 139q-58 74 -178 73h-215q-122 0 -210 -74t-110 -195z" />
<glyph unicode="b" horiz-adv-x="1099" d="M82 0l266 1516h21l-142 -803l279 235q82 69 140.5 93t127.5 24q130 0 196 -80q48 -59 48 -145q0 -30 -6 -64l-86 -487q-23 -131 -116.5 -210t-223.5 -79h-213q-100 0 -164 49t-74 137l-33 -186h-20zM154 287q-5 -30 -5 -57q1 -82 45 -138q58 -74 177 -74h215 q122 0 209.5 74t109.5 195l86 491q6 32 6 60q0 78 -45 134q-61 74 -182 75q-64 0 -120 -23.5t-128 -85.5l-299 -254z" />
<glyph unicode="c" horiz-adv-x="1058" d="M111 289l86 487q23 130 117 209.5t223 79.5h215q130 0 195 -79q48 -58 48 -145q0 -31 -6 -65l-4 -28h-20l6 30q5 31 5 59q0 81 -43 137q-58 74 -179 73h-215q-121 0 -209.5 -74t-110.5 -195l-88 -491q-6 -32 -5 -60q0 -81 44 -135q62 -74 182 -74h215q121 0 207.5 74 t108.5 195l6 30h20l-6 -28q-22 -129 -115 -209t-223 -80h-215q-129 0 -195 80q-49 60 -49 148q0 29 5 61z" />
<glyph unicode="d" horiz-adv-x="1099" d="M111 289l86 487q23 131 116.5 210t223.5 79h213q99 0 163 -49t74 -137l113 637h20l-268 -1516h-21l31 176l33 176l-279 -235q-80 -67 -140 -92t-128 -25q-130 0 -195 80q-48 59 -48 145q0 30 6 64zM131 287q-6 -32 -6 -61q0 -80 44 -134q60 -74 181 -74q65 0 120 23 t128 86l301 254l70 397q5 30 5 57q0 83 -44 139q-58 74 -178 73h-215q-122 0 -210 -74t-110 -195z" />
<glyph unicode="e" horiz-adv-x="1079" d="M111 289l86 487q23 130 117 209.5t223 79.5h215q130 0 195 -79q48 -58 48 -145q0 -31 -6 -65l-41 -233h-772l-45 -256q-6 -32 -5 -60q0 -81 44 -135q62 -74 182 -74h213q121 0 208.5 74.5t109.5 194.5l6 30h20l-6 -28q-22 -129 -115 -209t-223 -80h-215q-129 0 -195 80 q-49 60 -49 148q0 29 5 61zM180 561h752l39 217q5 31 5 59q0 83 -44 137q-59 74 -180 73h-213q-121 0 -210.5 -74t-109.5 -195z" />
<glyph unicode="f" horiz-adv-x="593" d="M102 1047l2 18h267l35 195q20 115 102.5 185.5t198.5 70.5h71l-4 -19h-69q-106 0 -183 -64.5t-96 -170.5l-35 -197h307l-2 -18h-307l-256 -1457h-20l256 1457h-267z" />
<glyph unicode="g" horiz-adv-x="1099" d="M39 -121l6 29h21l-7 -31q-6 -33 -6 -62q0 -79 43 -133q59 -73 180 -73h216q120 0 208.5 74t110.5 194l84 475l-279 -235q-82 -69 -140.5 -93t-127.5 -24q-130 0 -195 80q-48 59 -48 145q0 30 6 64l86 487q23 131 116.5 210t223.5 79h213q99 0 163 -49t74 -137l33 186h20 l-209 -1186q-23 -129 -116.5 -209t-222.5 -80h-216q-130 0 -195 80q-48 59 -48 145q0 30 6 64zM131 287q-6 -32 -6 -61q0 -79 44 -134q60 -74 181 -74q65 0 119.5 22.5t128.5 86.5l301 254l70 397q5 30 5 57q0 83 -44 139q-59 73 -178 73h-215q-122 0 -210 -74t-110 -195z " />
<glyph unicode="h" horiz-adv-x="1120" d="M82 0l266 1516h21l-142 -803l279 235q81 68 140.5 92.5t127.5 24.5q130 0 196 -80q48 -59 48 -145q0 -30 -6 -64l-138 -776h-20l137 778q6 32 6 60q0 78 -45 134q-61 74 -182 75q-62 0 -119.5 -24.5t-128.5 -84.5l-299 -254l-121 -684h-20z" />
<glyph unicode="i" horiz-adv-x="348" d="M82 0l186 1065h21l-187 -1065h-20zM295 1219l31 163h20l-31 -163h-20z" />
<glyph unicode="j" horiz-adv-x="348" d="M8 -410l260 1475h21l-260 -1475h-21zM295 1219l31 163h20l-31 -163h-20z" />
<glyph unicode="k" horiz-adv-x="874" d="M82 0l266 1516h21l-172 -975l727 524h34l-741 -533l576 -532h-31l-567 522l-93 -522h-20z" />
<glyph unicode="l" horiz-adv-x="348" d="M82 0l266 1516h21l-267 -1516h-20z" />
<glyph unicode="m" horiz-adv-x="1630" d="M82 0l186 1065h21l-62 -352l293 248q74 63 120 83.5t97 20.5q89 -1 132 -55q32 -40 32 -100q0 -21 -4 -44l-27 -153l291 248q74 63 120 83.5t97 20.5q89 -1 132 -55q32 -40 32 -100q0 -21 -4 -44l-154 -866h-20l154 870q4 21 4 40q0 52 -28 88q-38 49 -116 49 q-46 0 -89.5 -20t-108.5 -75l-316 -268l-121 -684h-20l154 870q4 21 4 40q-1 52 -29 88q-38 49 -115 49q-46 0 -89.5 -20t-108.5 -75l-316 -268l-121 -684h-20z" />
<glyph unicode="n" horiz-adv-x="1120" d="M82 0l186 1065h21l-62 -352l279 235q80 67 140.5 92t127.5 25q130 0 196 -80q48 -59 48 -145q0 -30 -6 -64l-138 -776h-20l137 778q6 32 6 60q0 78 -45 134q-61 74 -182 75q-61 0 -118.5 -24t-129.5 -85l-299 -254l-121 -684h-20z" />
<glyph unicode="o" horiz-adv-x="1079" d="M111 289l86 487q23 130 117 209.5t223 79.5h215q130 0 195 -79q48 -58 48 -145q0 -31 -6 -65l-86 -487q-22 -129 -115 -209t-223 -80h-215q-129 0 -195 80q-49 60 -49 148q0 29 5 61zM131 287q-6 -32 -5 -60q0 -81 44 -135q62 -74 182 -74h215q121 0 207.5 74t108.5 195 l88 491q5 31 5 59q0 83 -44 137q-59 74 -180 73h-213q-121 0 -210.5 -74t-109.5 -195z" />
<glyph unicode="p" horiz-adv-x="1099" d="M8 -410l260 1475h21l-62 -352l279 235q82 69 140.5 93t127.5 24q130 0 196 -80q48 -59 48 -145q0 -30 -6 -64l-86 -487q-23 -131 -116.5 -210t-223.5 -79h-213q-100 0 -163 48t-75 138l-106 -596h-21zM154 287q-5 -30 -5 -57q0 -83 45 -138q58 -74 177 -74h215 q122 0 209.5 74t109.5 195l86 491q6 32 6 60q0 80 -45 134q-61 75 -182 75q-64 0 -120 -23.5t-128 -85.5l-299 -254z" />
<glyph unicode="q" horiz-adv-x="1099" d="M111 289l86 487q23 131 116.5 210t223.5 79h213q99 0 163 -49t74 -137l33 186h20l-260 -1475h-20l135 762l-279 -235q-81 -68 -140 -92.5t-128 -24.5q-130 0 -195 80q-48 59 -48 145q0 30 6 64zM131 287q-6 -32 -6 -61q0 -79 44 -134q60 -74 181 -74q65 0 118.5 22 t129.5 87l301 254l70 397q5 30 5 57q0 83 -44 139q-59 73 -178 73h-215q-122 0 -210 -74t-110 -195z" />
<glyph unicode="r" horiz-adv-x="671" d="M82 0l186 1065h21l-62 -352l279 235q74 64 137.5 90.5t130.5 26.5l-4 -18q-63 0 -121 -25t-127 -84l-299 -254l-121 -684h-20z" />
<glyph unicode="s" horiz-adv-x="1079" d="M106 256l9 51h20l-10 -53q-5 -28 -5 -53q0 -70 38 -118q52 -65 159 -65h281q106 0 183 65t96 171l8 45q5 28 5 53q0 70 -39 118q-53 65 -159 65h-270q-116 1 -174 71q-43 51 -43 125q0 28 6 60l2 18q20 115 102.5 185.5t198.5 70.5h260q115 0 173 -70q43 -52 43 -130 q0 -27 -5 -56l-8 -51h-21l9 53q5 28 5 53q0 70 -38 118q-52 65 -158 65h-260q-106 0 -184 -65.5t-97 -170.5l-4 -23q-5 -28 -5 -52q0 -70 40 -118q54 -64 160 -65h270q115 0 173 -70q43 -52 43 -130q0 -27 -5 -56l-6 -41q-22 -116 -104 -186t-197 -70h-281q-117 0 -175 70 q-43 51 -42 126q0 29 6 60z" />
<glyph unicode="t" horiz-adv-x="593" d="M102 1047l2 18h287l66 369h20l-65 -369h286l-2 -18h-286l-185 -1047h-20l184 1047h-287z" />
<glyph unicode="u" horiz-adv-x="1120" d="M131 289l137 776h21l-137 -778q-6 -32 -6 -61q0 -80 44 -134q60 -74 181 -74q61 0 118 24t129 85l302 254l120 684h21l-187 -1065h-20l61 352l-278 -235q-80 -67 -140.5 -92t-127.5 -25q-129 0 -195 80q-48 59 -49 145q0 30 6 64z" />
<glyph unicode="v" horiz-adv-x="1097" d="M186 1065h23l260 -1045l627 1045h24l-641 -1065h-24z" />
<glyph unicode="w" horiz-adv-x="1679" d="M186 1065h21l182 -1040l547 1040h16l183 -1038l544 1038h23l-559 -1065h-25l-178 1030l-543 -1030h-24z" />
<glyph unicode="x" horiz-adv-x="997" d="M0 0l496 532l-312 533h23l303 -516l481 516h27l-498 -535l311 -530h-22l-303 516l-479 -516h-27z" />
<glyph unicode="y" horiz-adv-x="1097" d="M186 1065h23l260 -1045l627 1045h24l-887 -1475h-26l250 410h-2z" />
<glyph unicode="z" horiz-adv-x="956" d="M0 0l2 18l948 1029h-766l2 18h793l-2 -18l-948 -1029h766l-2 -18h-793z" />
<glyph unicode="{" horiz-adv-x="679" d="M43 707l2 18h29q115 0 199 75t104 193l76 428q23 130 117 209.5t223 79.5h65l-4 -18h-61q-121 0 -209.5 -74t-110.5 -195l-76 -428q-20 -109 -89 -184.5t-167 -95.5q91 -23 134 -97.5t24 -181.5l-76 -426q-20 -121 39 -194.5t178 -73.5h70l-2 -18h-66q-129 0 -194.5 79.5 t-42.5 208.5l74 426q22 119 -36 194t-173 75h-27z" />
<glyph unicode="|" horiz-adv-x="348" d="M33 -276l350 1986h20l-350 -1986h-20z" />
<glyph unicode="}" horiz-adv-x="679" d="M-90 -276l4 18h61q121 0 209.5 73.5t110.5 194.5l76 428q20 109 89 185t167 96q-91 23 -134 97t-24 181l76 426q20 121 -39 195t-178 74h-70l2 18h66q129 0 194.5 -80t42.5 -209l-74 -426q-22 -119 36 -193.5t173 -74.5h27l-2 -18h-29q-115 0 -199 -75.5t-104 -193.5 l-76 -428q-23 -130 -117 -209t-223 -79h-65z" />
<glyph unicode="~" horiz-adv-x="1048" d="M143 635l117 133q51 60 117 72t119 -31l182 -150q50 -38 108 -27.5t109 66.5l78 88l14 -12l-78 -88q-56 -62 -124 -73.5t-121 30.5l-183 150q-44 37 -103.5 26.5t-103.5 -63.5l-116 -133z" />
<glyph unicode="&#xa1;" horiz-adv-x="430" d="M57 -369l191 1086h20l-190 -1086h-21zM281 901l28 164h21l-29 -164h-20z" />
<glyph unicode="&#xa2;" horiz-adv-x="1099" d="M156 657l86 488q23 130 117 209.5t223 79.5h129l37 204h20l-37 -204h127q131 0 196 -79.5t42 -209.5l-4 -29h-21l6 31q23 118 -36.5 193t-180.5 75h-276q-121 0 -209.5 -73.5t-110.5 -194.5l-88 -492q-22 -120 39.5 -194t181.5 -74h277q121 0 207 73.5t108 194.5l6 31h21 l-6 -29q-23 -130 -115.5 -209t-222.5 -79h-129l-35 -205h-21l35 205h-127q-129 0 -195.5 80.5t-43.5 207.5z" />
<glyph unicode="&#xa3;" horiz-adv-x="1327" d="M0 0l2 18h272l119 678h-272l4 19h272l76 430q23 130 117 209.5t223 79.5h246q129 0 194.5 -79.5t42.5 -209.5l-20 -121h-21l21 123q22 121 -37.5 194.5t-179.5 73.5h-246q-121 0 -209 -73.5t-110 -194.5l-76 -432h528l-4 -19h-528l-119 -678h829l-2 -18h-1122z" />
<glyph unicode="&#xa5;" horiz-adv-x="1157" d="M135 403l4 19h420l29 168l-70 147h-323l4 19h311l-322 678h23l389 -822l680 822h27l-562 -678h314l-4 -19h-324l-123 -147l-28 -168h419l-4 -19h-420l-69 -403h-21l70 403h-420z" />
<glyph unicode="&#xa8;" horiz-adv-x="522" d="M172 1219l31 163h20l-30 -163h-21zM592 1219l31 163h20l-31 -163h-20z" />
<glyph unicode="&#xa9;" horiz-adv-x="1802" d="M193 553q0 197 69.5 366.5t188.5 286t281 182.5t343 66q291 0 457 -154t166 -419q0 -197 -69.5 -366.5t-189 -286t-281.5 -182.5t-343 -66q-291 0 -456.5 154t-165.5 419zM213 557q0 -259 160.5 -409t443.5 -150q177 0 334.5 64.5t273 178t183 279t67.5 357.5 q0 259 -160.5 409t-443.5 150q-177 0 -334.5 -64.5t-273 -178t-183 -279t-67.5 -357.5zM575 545l62 344q20 110 100 178t189 68h182q110 0 166.5 -68t36.5 -178l-4 -27h-21l4 27q19 103 -32 165t-152 62h-182q-100 0 -174 -62.5t-93 -164.5l-61 -344q-17 -102 34.5 -165 t151.5 -63h183q101 0 174 62.5t90 165.5l10 49h21l-11 -49q-19 -110 -98.5 -178t-189.5 -68h-183q-109 0 -165.5 68t-37.5 178z" />
<glyph unicode="&#xab;" horiz-adv-x="710" d="M51 528l2 9l434 352l-4 -31l-403 -328l287 -321l-5 -33zM287 528l2 9l434 352l-4 -31l-404 -328l287 -321l-4 -33z" />
<glyph unicode="&#xad;" horiz-adv-x="460" d="M74 535l2 18h338l-2 -18h-338z" />
<glyph unicode="&#xae;" horiz-adv-x="749" d="M170 1051q0 169 108 276t267 107q124 0 194 -65.5t70 -178.5q0 -169 -108 -276t-267 -107q-124 0 -194 65.5t-70 178.5zM190 1055q0 -106 66 -168t182 -62q148 0 249 100.5t101 260.5q0 106 -65.5 167.5t-181.5 61.5q-148 0 -249.5 -100.5t-101.5 -259.5zM340 940l63 360 h168q32 0 49 -19.5t11 -51.5l-10 -64q-6 -31 -28.5 -51.5t-53.5 -21.5l41 -152h-23l-41 152h-129l-27 -152h-20zM391 1110h148q23 0 39.5 15t21.5 40l10 64q4 25 -7 39t-34 14h-147z" />
<glyph unicode="&#xb4;" horiz-adv-x="350" d="M168 1188l303 328h25l-303 -328h-25z" />
<glyph unicode="&#xb8;" horiz-adv-x="217" d="M-113 -410l140 164l-84 164h22l84 -164l-139 -164h-23z" />
<glyph unicode="&#xbb;" horiz-adv-x="710" d="M10 176l4 31l402 328l-287 321l6 33l311 -352l-2 -9zM246 176l4 31l401 328l-286 321l6 33l311 -352l-2 -9z" />
<glyph unicode="&#xbf;" horiz-adv-x="1259" d="M61 -113l37 213q20 115 102.5 185.5t198.5 70.5h13q106 0 181.5 65t94.5 171l23 125h20l-20 -123q-22 -116 -104 -186t-197 -70h-13q-106 0 -182.5 -65t-95.5 -171l-37 -217q-20 -106 31 -170.5t157 -64.5h420q106 0 184.5 65t98.5 170l26 156h21l-27 -154 q-20 -115 -102.5 -185.5t-198.5 -70.5h-420q-115 0 -173 70t-38 186zM743 901l29 164h21l-29 -164h-21z" />
<glyph unicode="&#xc0;" horiz-adv-x="1204" d="M-82 0l842 1434h24l338 -1434h-22l-101 432h-802l-254 -432h-25zM207 451h788l-225 960zM664 1812h22l154 -296h-23z" />
<glyph unicode="&#xc1;" horiz-adv-x="1204" d="M-82 0l842 1434h24l338 -1434h-22l-101 432h-802l-254 -432h-25zM207 451h788l-225 960zM733 1516l260 296h25l-260 -296h-25z" />
<glyph unicode="&#xc2;" horiz-adv-x="1204" d="M-82 0l842 1434h24l338 -1434h-22l-101 432h-802l-254 -432h-25zM207 451h788l-225 960zM510 1516l319 296h23l213 -296h-25l-200 280l-301 -280h-29z" />
<glyph unicode="&#xc4;" horiz-adv-x="1204" d="M-82 0l842 1434h24l338 -1434h-22l-101 432h-802l-254 -432h-25zM207 451h788l-225 960zM526 1516l29 163h20l-28 -163h-21zM1028 1516l29 163h20l-28 -163h-21z" />
<glyph unicode="&#xc6;" horiz-adv-x="2113" d="M-80 0l1421 1434h861l-2 -19h-832l-121 -688h727l-2 -18h-727l-123 -691h830l-2 -18h-850l76 432h-801l-426 -432h-29zM393 451h787l168 962z" />
<glyph unicode="&#xc7;" d="M131 289l152 856q23 130 117 209.5t223 79.5h415q129 0 195 -79.5t43 -209.5l-21 -121h-20l20 123q22 121 -38.5 194.5t-180.5 73.5h-415q-121 0 -208.5 -73.5t-109.5 -194.5l-151 -860q-22 -120 38.5 -194.5t180.5 -74.5h415q120 0 208 74.5t110 194.5l22 123h21 l-23 -121q-22 -129 -115.5 -209t-222.5 -80h-415q-129 0 -195.5 80t-44.5 209zM479 -410l139 164l-83 164h22l84 -164l-139 -164h-23z" />
<glyph unicode="&#xc8;" horiz-adv-x="1095" d="M82 0l252 1434h850l-4 -19h-830l-121 -688h727l-2 -18h-727l-123 -691h830l-2 -18h-850zM608 1812h23l153 -296h-22z" />
<glyph unicode="&#xc9;" horiz-adv-x="1095" d="M82 0l252 1434h850l-4 -19h-830l-121 -688h727l-2 -18h-727l-123 -691h830l-2 -18h-850zM678 1516l260 296h25l-261 -296h-24z" />
<glyph unicode="&#xca;" horiz-adv-x="1095" d="M82 0l252 1434h850l-4 -19h-830l-121 -688h727l-2 -18h-727l-123 -691h830l-2 -18h-850zM455 1516l319 296h23l213 -296h-25l-201 280l-301 -280h-28z" />
<glyph unicode="&#xcb;" horiz-adv-x="1095" d="M82 0l252 1434h850l-4 -19h-830l-121 -688h727l-2 -18h-727l-123 -691h830l-2 -18h-850zM471 1516l29 163h20l-28 -163h-21zM973 1516l28 163h21l-29 -163h-20z" />
<glyph unicode="&#xcd;" horiz-adv-x="348" d="M82 0l252 1434h20l-252 -1434h-20zM346 1516l260 296h25l-260 -296h-25z" />
<glyph unicode="&#xce;" horiz-adv-x="348" d="M82 0l252 1434h20l-252 -1434h-20zM82 1516l319 296h23l213 -296h-25l-200 280l-301 -280h-29z" />
<glyph unicode="&#xcf;" horiz-adv-x="348" d="M82 0l252 1434h20l-252 -1434h-20zM98 1516l29 163h20l-28 -163h-21zM600 1516l29 163h20l-28 -163h-21z" />
<glyph unicode="&#xd1;" d="M82 0l252 1434h20l707 -1401l246 1401h20l-252 -1434h-20l-707 1401l-246 -1401h-20zM442 1565l117 133q53 60 118 71.5t118 -30.5l180 -150q50 -38 108 -27.5t109 66.5l78 88l16 -12l-78 -88q-56 -62 -124 -73.5t-121 30.5l-181 149q-44 37 -103.5 26.5t-103.5 -62.5 l-116 -134z" />
<glyph unicode="&#xd2;" d="M131 289l152 856q23 131 114.5 210t220.5 79h416q130 0 197.5 -79.5t44.5 -209.5l-152 -856q-22 -129 -115.5 -209t-222.5 -80h-415q-129 0 -195.5 80t-44.5 209zM152 287q-22 -120 38.5 -194.5t180.5 -74.5h415q120 0 208 74.5t110 194.5l151 860q22 121 -38.5 194.5 t-180.5 73.5h-415q-121 0 -208.5 -73.5t-109.5 -194.5zM721 1812h22l154 -296h-23z" />
<glyph unicode="&#xd3;" d="M131 289l152 856q23 131 114.5 210t220.5 79h416q130 0 197.5 -79.5t44.5 -209.5l-152 -856q-22 -129 -115.5 -209t-222.5 -80h-415q-129 0 -195.5 80t-44.5 209zM152 287q-22 -120 38.5 -194.5t180.5 -74.5h415q120 0 208 74.5t110 194.5l151 860q22 121 -38.5 194.5 t-180.5 73.5h-415q-121 0 -208.5 -73.5t-109.5 -194.5zM791 1516l260 296h24l-260 -296h-24z" />
<glyph unicode="&#xd4;" d="M131 289l152 856q23 131 114.5 210t220.5 79h416q130 0 197.5 -79.5t44.5 -209.5l-152 -856q-22 -129 -115.5 -209t-222.5 -80h-415q-129 0 -195.5 80t-44.5 209zM152 287q-22 -120 38.5 -194.5t180.5 -74.5h415q120 0 208 74.5t110 194.5l151 860q22 121 -38.5 194.5 t-180.5 73.5h-415q-121 0 -208.5 -73.5t-109.5 -194.5zM567 1516l320 296h22l213 -296h-24l-201 280l-301 -280h-29z" />
<glyph unicode="&#xd6;" d="M131 289l152 856q23 131 114.5 210t220.5 79h416q130 0 197.5 -79.5t44.5 -209.5l-152 -856q-22 -129 -115.5 -209t-222.5 -80h-415q-129 0 -195.5 80t-44.5 209zM152 287q-22 -120 38.5 -194.5t180.5 -74.5h415q120 0 208 74.5t110 194.5l151 860q22 121 -38.5 194.5 t-180.5 73.5h-415q-121 0 -208.5 -73.5t-109.5 -194.5zM584 1516l28 163h21l-29 -163h-20zM1085 1516l29 163h21l-29 -163h-21z" />
<glyph unicode="&#xd9;" d="M131 289l203 1145h20l-202 -1147q-22 -120 38.5 -194.5t180.5 -74.5h415q120 0 208 74.5t110 194.5l203 1147h20l-203 -1145q-22 -129 -115.5 -209t-222.5 -80h-415q-129 0 -195.5 80t-44.5 209zM721 1812h22l154 -296h-23z" />
<glyph unicode="&#xda;" d="M131 289l203 1145h20l-202 -1147q-22 -120 38.5 -194.5t180.5 -74.5h415q120 0 208 74.5t110 194.5l203 1147h20l-203 -1145q-22 -129 -115.5 -209t-222.5 -80h-415q-129 0 -195.5 80t-44.5 209zM791 1516l260 296h24l-260 -296h-24z" />
<glyph unicode="&#xdb;" d="M131 289l203 1145h20l-202 -1147q-22 -120 38.5 -194.5t180.5 -74.5h415q120 0 208 74.5t110 194.5l203 1147h20l-203 -1145q-22 -129 -115.5 -209t-222.5 -80h-415q-129 0 -195.5 80t-44.5 209zM567 1516l320 296h22l213 -296h-24l-201 280l-301 -280h-29z" />
<glyph unicode="&#xdc;" d="M131 289l203 1145h20l-202 -1147q-22 -120 38.5 -194.5t180.5 -74.5h415q120 0 208 74.5t110 194.5l203 1147h20l-203 -1145q-22 -129 -115.5 -209t-222.5 -80h-415q-129 0 -195.5 80t-44.5 209zM584 1516l28 163h21l-29 -163h-20zM1085 1516l29 163h21l-29 -163h-21z " />
<glyph unicode="&#xdd;" horiz-adv-x="1157" d="M188 1434h23l389 -822l680 822h27l-699 -844l-102 -590h-21l103 590zM709 1516l260 296h24l-260 -296h-24z" />
<glyph unicode="&#xdf;" horiz-adv-x="1161" d="M10 -410l293 1670q20 115 102.5 185.5t198.5 70.5h289q129 0 194.5 -79.5t42.5 -209.5l-22 -125q-19 -107 -88 -182.5t-168 -98.5q101 -19 149.5 -94.5t28.5 -187.5l-45 -250q-23 -130 -116 -209.5t-222 -79.5h-299l2 18h297q120 0 208 74t110 195l45 256q22 120 -40 194 t-182 74h-217l4 18h197q120 0 206.5 74.5t108.5 194.5l23 131q22 121 -37.5 194.5t-179.5 73.5h-289q-106 0 -183.5 -65t-96.5 -170l-293 -1672h-21z" />
<glyph unicode="&#xe0;" horiz-adv-x="1058" d="M111 289l86 487q23 131 116.5 210t223.5 79h213q99 0 163 -49t74 -137l33 186h20l-188 -1065h-21l31 176l33 176l-279 -235q-82 -69 -140.5 -93t-127.5 -24q-130 0 -195 80t-42 209zM131 287q-22 -120 38 -194.5t181 -74.5q65 0 120 23t128 86l301 254l70 397 q19 122 -39.5 195.5t-177.5 73.5h-215q-122 0 -210 -74t-110 -195zM496 1516h24l189 -328h-25z" />
<glyph unicode="&#xe1;" horiz-adv-x="1058" d="M111 289l86 487q23 131 116.5 210t223.5 79h213q99 0 163 -49t74 -137l33 186h20l-188 -1065h-21l31 176l33 176l-279 -235q-82 -69 -140.5 -93t-127.5 -24q-130 0 -195 80t-42 209zM131 287q-22 -120 38 -194.5t181 -74.5q65 0 120 23t128 86l301 254l70 397 q19 122 -39.5 195.5t-177.5 73.5h-215q-122 0 -210 -74t-110 -195zM604 1188l303 328h25l-303 -328h-25z" />
<glyph unicode="&#xe2;" horiz-adv-x="1058" d="M111 289l86 487q23 131 116.5 210t223.5 79h213q99 0 163 -49t74 -137l33 186h20l-188 -1065h-21l31 176l33 176l-279 -235q-82 -69 -140.5 -93t-127.5 -24q-130 0 -195 80t-42 209zM131 287q-22 -120 38 -194.5t181 -74.5q65 0 120 23t128 86l301 254l70 397 q19 122 -39.5 195.5t-177.5 73.5h-215q-122 0 -210 -74t-110 -195zM399 1188l303 328h23l188 -328h-22l-178 313l-289 -313h-25z" />
<glyph unicode="&#xe4;" horiz-adv-x="1058" d="M111 289l86 487q23 131 116.5 210t223.5 79h213q99 0 163 -49t74 -137l33 186h20l-188 -1065h-21l31 176l33 176l-279 -235q-82 -69 -140.5 -93t-127.5 -24q-130 0 -195 80t-42 209zM131 287q-22 -120 38 -194.5t181 -74.5q65 0 120 23t128 86l301 254l70 397 q19 122 -39.5 195.5t-177.5 73.5h-215q-122 0 -210 -74t-110 -195zM440 1219l31 163h21l-31 -163h-21zM860 1219l31 163h20l-30 -163h-21z" />
<glyph unicode="&#xe6;" horiz-adv-x="1810" d="M66 256l8 51q20 115 102.5 185.5t198.5 70.5h278q85 0 140.5 -39.5t70.5 -109.5l70 397q19 106 -34 171t-159 65h-247q-106 0 -184 -65.5t-97 -170.5l-10 -63h-21l11 61q20 115 102.5 185.5t198.5 70.5h247q99 0 157 -54t58 -145q41 93 125 146t189 53h213q130 0 195 -79 t42 -210l-41 -233h-772l-45 -256q-22 -120 39.5 -194.5t181.5 -74.5h213q121 0 208.5 74.5t109.5 194.5l6 30h20l-6 -28q-22 -129 -115 -209t-223 -80h-213q-105 0 -168.5 53t-74.5 146q-34 -92 -110 -145.5t-175 -53.5h-279q-116 0 -174 70.5t-36 185.5zM84 254 q-19 -105 36 -170.5t161 -65.5h278q106 0 182 65t95 171l10 55q19 106 -35 171t-160 65h-278q-106 0 -183 -65t-96 -171zM911 561h752l39 217q20 122 -39 195.5t-180 73.5h-215q-121 0 -209.5 -74t-108.5 -195z" />
<glyph unicode="&#xe7;" horiz-adv-x="1058" d="M111 289l86 487q23 130 117 209.5t223 79.5h215q130 0 195 -79t42 -210l-4 -28h-20l6 30q20 122 -38 195.5t-179 73.5h-215q-121 0 -209.5 -74t-110.5 -195l-88 -491q-22 -120 39.5 -194.5t181.5 -74.5h215q121 0 207.5 74t108.5 195l6 30h20l-6 -28q-22 -129 -115 -209 t-223 -80h-215q-129 0 -195 80t-44 209zM348 -410l139 164l-84 164h23l84 -164l-139 -164h-23z" />
<glyph unicode="&#xe8;" horiz-adv-x="1079" d="M111 289l86 487q23 130 117 209.5t223 79.5h215q130 0 195 -79t42 -210l-41 -233h-772l-45 -256q-22 -120 39.5 -194.5t181.5 -74.5h213q121 0 208.5 74.5t109.5 194.5l6 30h20l-6 -28q-22 -129 -115 -209t-223 -80h-215q-129 0 -195 80t-44 209zM180 561h752l39 217 q20 122 -39 195.5t-180 73.5h-213q-121 0 -210.5 -74t-109.5 -195zM547 1516h24l189 -328h-25z" />
<glyph unicode="&#xe9;" horiz-adv-x="1079" d="M111 289l86 487q23 130 117 209.5t223 79.5h215q130 0 195 -79t42 -210l-41 -233h-772l-45 -256q-22 -120 39.5 -194.5t181.5 -74.5h213q121 0 208.5 74.5t109.5 194.5l6 30h20l-6 -28q-22 -129 -115 -209t-223 -80h-215q-129 0 -195 80t-44 209zM180 561h752l39 217 q20 122 -39 195.5t-180 73.5h-213q-121 0 -210.5 -74t-109.5 -195zM614 1188l304 328h24l-303 -328h-25z" />
<glyph unicode="&#xea;" horiz-adv-x="1079" d="M111 289l86 487q23 130 117 209.5t223 79.5h215q130 0 195 -79t42 -210l-41 -233h-772l-45 -256q-22 -120 39.5 -194.5t181.5 -74.5h213q121 0 208.5 74.5t109.5 194.5l6 30h20l-6 -28q-22 -129 -115 -209t-223 -80h-215q-129 0 -195 80t-44 209zM180 561h752l39 217 q20 122 -39 195.5t-180 73.5h-213q-121 0 -210.5 -74t-109.5 -195zM410 1188l303 328h22l189 -328h-23l-178 313l-289 -313h-24z" />
<glyph unicode="&#xeb;" horiz-adv-x="1079" d="M111 289l86 487q23 130 117 209.5t223 79.5h215q130 0 195 -79t42 -210l-41 -233h-772l-45 -256q-22 -120 39.5 -194.5t181.5 -74.5h213q121 0 208.5 74.5t109.5 194.5l6 30h20l-6 -28q-22 -129 -115 -209t-223 -80h-215q-129 0 -195 80t-44 209zM180 561h752l39 217 q20 122 -39 195.5t-180 73.5h-213q-121 0 -210.5 -74t-109.5 -195zM451 1219l30 163h21l-31 -163h-20zM870 1219l31 163h21l-31 -163h-21z" />
<glyph unicode="&#xed;" horiz-adv-x="348" d="M82 0l186 1065h21l-187 -1065h-20zM270 1188l303 328h25l-303 -328h-25z" />
<glyph unicode="&#xee;" horiz-adv-x="348" d="M45 1188l303 328h23l188 -328h-22l-179 313l-288 -313h-25zM82 0l186 1065h21l-187 -1065h-20z" />
<glyph unicode="&#xef;" horiz-adv-x="348" d="M82 0l186 1065h21l-187 -1065h-20zM86 1219l31 163h20l-31 -163h-20zM506 1219l31 163h20l-31 -163h-20z" />
<glyph unicode="&#xf1;" horiz-adv-x="1120" d="M82 0l186 1065h21l-62 -352l279 235q80 67 140.5 92t127.5 25q130 0 195.5 -80t42.5 -209l-138 -776h-20l137 778q22 120 -39 194.5t-182 74.5q-61 0 -118.5 -24t-129.5 -85l-299 -254l-121 -684h-20zM311 1270l115 133q52 60 119 71t119 -30l143 -123q50 -38 108 -27.5 t109 66.5l78 88l16 -12l-78 -88q-56 -62 -124 -73.5t-121 30.5l-146 122q-41 38 -102 27.5t-105 -63.5l-114 -134z" />
<glyph unicode="&#xf2;" horiz-adv-x="1079" d="M111 289l86 487q23 130 117 209.5t223 79.5h215q130 0 195 -79t42 -210l-86 -487q-22 -129 -115 -209t-223 -80h-215q-129 0 -195 80t-44 209zM131 287q-22 -120 39.5 -194.5t181.5 -74.5h215q121 0 207.5 74t108.5 195l88 491q20 122 -39 195.5t-180 73.5h-213 q-121 0 -210.5 -74t-109.5 -195zM506 1516h24l189 -328h-25z" />
<glyph unicode="&#xf3;" horiz-adv-x="1079" d="M111 289l86 487q23 130 117 209.5t223 79.5h215q130 0 195 -79t42 -210l-86 -487q-22 -129 -115 -209t-223 -80h-215q-129 0 -195 80t-44 209zM131 287q-22 -120 39.5 -194.5t181.5 -74.5h215q121 0 207.5 74t108.5 195l88 491q20 122 -39 195.5t-180 73.5h-213 q-121 0 -210.5 -74t-109.5 -195zM614 1188l304 328h24l-303 -328h-25z" />
<glyph unicode="&#xf4;" horiz-adv-x="1079" d="M111 289l86 487q23 130 117 209.5t223 79.5h215q130 0 195 -79t42 -210l-86 -487q-22 -129 -115 -209t-223 -80h-215q-129 0 -195 80t-44 209zM131 287q-22 -120 39.5 -194.5t181.5 -74.5h215q121 0 207.5 74t108.5 195l88 491q20 122 -39 195.5t-180 73.5h-213 q-121 0 -210.5 -74t-109.5 -195zM410 1188l303 328h22l189 -328h-23l-178 313l-289 -313h-24z" />
<glyph unicode="&#xf6;" horiz-adv-x="1079" d="M111 289l86 487q23 130 117 209.5t223 79.5h215q130 0 195 -79t42 -210l-86 -487q-22 -129 -115 -209t-223 -80h-215q-129 0 -195 80t-44 209zM131 287q-22 -120 39.5 -194.5t181.5 -74.5h215q121 0 207.5 74t108.5 195l88 491q20 122 -39 195.5t-180 73.5h-213 q-121 0 -210.5 -74t-109.5 -195zM451 1219l30 163h21l-31 -163h-20zM870 1219l31 163h21l-31 -163h-21z" />
<glyph unicode="&#xf9;" horiz-adv-x="1120" d="M131 289l137 776h21l-137 -778q-22 -120 38 -194.5t181 -74.5q61 0 118 24t129 85l302 254l120 684h21l-187 -1065h-20l61 352l-278 -235q-80 -67 -140.5 -92t-127.5 -25q-130 0 -195.5 80t-42.5 209zM526 1516h25l188 -328h-24z" />
<glyph unicode="&#xfa;" horiz-adv-x="1120" d="M131 289l137 776h21l-137 -778q-22 -120 38 -194.5t181 -74.5q61 0 118 24t129 85l302 254l120 684h21l-187 -1065h-20l61 352l-278 -235q-80 -67 -140.5 -92t-127.5 -25q-130 0 -195.5 80t-42.5 209zM635 1188l303 328h25l-304 -328h-24z" />
<glyph unicode="&#xfb;" horiz-adv-x="1120" d="M131 289l137 776h21l-137 -778q-22 -120 38 -194.5t181 -74.5q61 0 118 24t129 85l302 254l120 684h21l-187 -1065h-20l61 352l-278 -235q-80 -67 -140.5 -92t-127.5 -25q-130 0 -195.5 80t-42.5 209zM430 1188l303 328h23l188 -328h-22l-179 313l-288 -313h-25z" />
<glyph unicode="&#xfc;" horiz-adv-x="1120" d="M131 289l137 776h21l-137 -778q-22 -120 38 -194.5t181 -74.5q61 0 118 24t129 85l302 254l120 684h21l-187 -1065h-20l61 352l-278 -235q-80 -67 -140.5 -92t-127.5 -25q-130 0 -195.5 80t-42.5 209zM471 1219l31 163h20l-30 -163h-21zM891 1219l31 163h20l-31 -163h-20 z" />
<glyph unicode="&#xfd;" horiz-adv-x="1097" d="M186 1065h23l260 -1045l627 1045h24l-887 -1475h-26l250 410h-2zM625 1188l303 328h24l-303 -328h-24z" />
<glyph unicode="&#xff;" horiz-adv-x="1097" d="M186 1065h23l260 -1045l627 1045h24l-887 -1475h-26l250 410h-2zM459 1219l30 163h21l-31 -163h-20zM879 1219l30 163h21l-31 -163h-20z" />
<glyph unicode="&#x10c;" d="M131 289l152 856q23 130 117 209.5t223 79.5h415q129 0 195 -79.5t43 -209.5l-21 -121h-20l20 123q22 121 -38.5 194.5t-180.5 73.5h-415q-121 0 -208.5 -73.5t-109.5 -194.5l-151 -860q-22 -120 38.5 -194.5t180.5 -74.5h415q120 0 208 74.5t110 194.5l22 123h21 l-23 -121q-22 -129 -115.5 -209t-222.5 -80h-415q-129 0 -195.5 80t-44.5 209zM621 1812h24l201 -280l301 280h29l-320 -296h-22z" />
<glyph unicode="&#x10d;" horiz-adv-x="1058" d="M111 289l86 487q23 130 117 209.5t223 79.5h215q130 0 195 -79t42 -210l-4 -28h-20l6 30q20 122 -38 195.5t-179 73.5h-215q-121 0 -209.5 -74t-110.5 -195l-88 -491q-22 -120 39.5 -194.5t181.5 -74.5h215q121 0 207.5 74t108.5 195l6 30h20l-6 -28q-22 -129 -115 -209 t-223 -80h-215q-129 0 -195 80t-44 209zM457 1516h22l178 -314l289 314h25l-303 -328h-23z" />
<glyph unicode="&#x10e;" d="M82 0l252 1434h704q129 0 195 -79.5t43 -209.5l-152 -856q-22 -129 -115.5 -209t-222.5 -80h-704zM104 18h682q120 0 208 74.5t110 194.5l151 860q22 121 -38.5 194.5t-180.5 73.5h-686zM621 1812h24l201 -280l301 280h29l-320 -296h-22z" />
<glyph unicode="&#x10f;" horiz-adv-x="1099" d="M111 289l86 487q23 131 116.5 210t223.5 79h213q99 0 163 -49t74 -137l113 637h20l-268 -1516h-21l31 176l33 176l-279 -235q-80 -67 -140 -92t-128 -25q-130 0 -195 80t-42 209zM131 287q-22 -120 38 -194.5t181 -74.5q65 0 120 23t128 86l301 254l70 397 q19 122 -39.5 195.5t-177.5 73.5h-215q-122 0 -210 -74t-110 -195zM1186 1188l139 409h21l-140 -409h-20z" />
<glyph unicode="&#x11a;" horiz-adv-x="1095" d="M82 0l252 1434h850l-4 -19h-830l-121 -688h727l-2 -18h-727l-123 -691h830l-2 -18h-850zM508 1812h24l201 -280l301 280h29l-320 -296h-22z" />
<glyph unicode="&#x11b;" horiz-adv-x="1079" d="M111 289l86 487q23 130 117 209.5t223 79.5h215q130 0 195 -79t42 -210l-41 -233h-772l-45 -256q-22 -120 39.5 -194.5t181.5 -74.5h213q121 0 208.5 74.5t109.5 194.5l6 30h20l-6 -28q-22 -129 -115 -209t-223 -80h-215q-129 0 -195 80t-44 209zM180 561h752l39 217 q20 122 -39 195.5t-180 73.5h-213q-121 0 -210.5 -74t-109.5 -195zM467 1516h22l179 -314l288 314h25l-303 -328h-23z" />
<glyph unicode="&#x139;" horiz-adv-x="1054" d="M82 0l252 1434h20l-250 -1416h830l-2 -18h-850zM348 1516l260 296h25l-260 -296h-25z" />
<glyph unicode="&#x13a;" horiz-adv-x="348" d="M82 0l266 1516h21l-267 -1516h-20zM340 1597l260 297h25l-260 -297h-25z" />
<glyph unicode="&#x13d;" horiz-adv-x="1054" d="M82 0l252 1434h20l-250 -1416h830l-2 -18h-850zM475 1188l139 409h21l-139 -409h-21z" />
<glyph unicode="&#x13e;" horiz-adv-x="348" d="M82 0l266 1516h21l-267 -1516h-20zM432 1188l139 409h21l-139 -409h-21z" />
<glyph unicode="&#x13f;" horiz-adv-x="1054" d="M82 0l252 1434h20l-250 -1416h830l-2 -18h-850zM543 635l30 164h21l-31 -164h-20z" />
<glyph unicode="&#x140;" horiz-adv-x="512" d="M82 0l266 1516h21l-267 -1516h-20zM449 635l28 164h21l-29 -164h-20z" />
<glyph unicode="&#x147;" d="M82 0l252 1434h20l707 -1401l246 1401h20l-252 -1434h-20l-707 1401l-246 -1401h-20zM621 1812h24l201 -280l301 280h29l-320 -296h-22z" />
<glyph unicode="&#x148;" horiz-adv-x="1120" d="M82 0l186 1065h21l-62 -352l279 235q80 67 140.5 92t127.5 25q130 0 195.5 -80t42.5 -209l-138 -776h-20l137 778q22 120 -39 194.5t-182 74.5q-61 0 -118.5 -24t-129.5 -85l-299 -254l-121 -684h-20zM487 1516h23l178 -314l289 314h24l-303 -328h-22z" />
<glyph unicode="&#x152;" horiz-adv-x="2068" d="M131 289l152 856q23 130 117 209.5t223 79.5h413q98 0 161 -48t77 -131l33 179h850l-5 -19h-829l-121 -688h727l-2 -18h-727l-123 -691h830l-2 -18h-850l30 178q-43 -83 -123 -130.5t-178 -47.5h-413q-129 0 -195.5 80t-44.5 209zM152 287q-22 -120 38.5 -194.5 t180.5 -74.5h415q120 0 208 74.5t110 194.5l151 860q22 121 -38.5 194.5t-180.5 73.5h-415q-121 0 -208.5 -73.5t-109.5 -194.5z" />
<glyph unicode="&#x153;" horiz-adv-x="1851" d="M111 289l86 487q23 130 117 209.5t223 79.5h213q108 0 172.5 -57t70.5 -154q38 97 124 154t194 57h213q130 0 195 -79t42 -210l-41 -233h-772l-45 -256q-22 -120 39.5 -194.5t181.5 -74.5h213q121 0 208.5 74.5t109.5 194.5l6 30h20l-6 -28q-22 -129 -115 -209t-223 -80 h-213q-108 0 -173 57t-70 154q-40 -97 -125 -154t-193 -57h-213q-129 0 -195 80t-44 209zM131 287q-22 -120 37.5 -194.5t179.5 -74.5h215q121 0 209.5 74.5t110.5 194.5l88 491q20 122 -40 195.5t-181 73.5h-213q-121 0 -209.5 -74t-108.5 -195zM952 561h752l39 217 q20 122 -39 195.5t-180 73.5h-215q-121 0 -209.5 -74t-108.5 -195z" />
<glyph unicode="&#x154;" horiz-adv-x="1239" d="M82 0l252 1434h663q129 0 195 -79.5t43 -209.5l-43 -250q-23 -126 -113.5 -206t-216.5 -83l172 -606h-22l-172 606h-631l-107 -606h-20zM211 625h641q120 0 208.5 74t108.5 194l45 254q22 121 -38.5 194.5t-180.5 73.5h-645zM729 1516l260 296h25l-260 -296h-25z" />
<glyph unicode="&#x155;" horiz-adv-x="634" d="M82 0l186 1065h21l-62 -352l279 235q74 64 137.5 90.5t130.5 26.5l-4 -18q-63 0 -121 -25t-127 -84l-299 -254l-121 -684h-20zM393 1188l303 328h25l-303 -328h-25z" />
<glyph unicode="&#x158;" horiz-adv-x="1239" d="M82 0l252 1434h663q129 0 195 -79.5t43 -209.5l-43 -250q-23 -126 -113.5 -206t-216.5 -83l172 -606h-22l-172 606h-631l-107 -606h-20zM211 625h641q120 0 208.5 74t108.5 194l45 254q22 121 -38.5 194.5t-180.5 73.5h-645zM580 1812h24l201 -280l301 280h29l-320 -296 h-22z" />
<glyph unicode="&#x159;" horiz-adv-x="634" d="M82 0l186 1065h21l-62 -352l279 235q74 64 137.5 90.5t130.5 26.5l-4 -18q-63 0 -121 -25t-127 -84l-299 -254l-121 -684h-20zM246 1516h22l178 -314l289 314h25l-303 -328h-23z" />
<glyph unicode="&#x160;" horiz-adv-x="1300" d="M131 289l23 121h20l-22 -123q-22 -121 38.5 -195t180.5 -74h395q120 0 207.5 74t109.5 195l27 153q22 120 -38.5 194.5t-180.5 74.5h-395q-129 0 -195.5 79.5t-44.5 208.5l27 148q23 130 117 209.5t223 79.5h395q129 0 194.5 -79.5t42.5 -209.5l-20 -121h-21l21 123 q22 121 -38.5 194.5t-180.5 73.5h-395q-121 0 -208.5 -73.5t-109.5 -194.5l-27 -152q-22 -120 40 -194t182 -74h395q129 0 194.5 -80t42.5 -209l-26 -149q-23 -130 -116 -209.5t-222 -79.5h-395q-130 0 -196.5 79.5t-43.5 209.5zM610 1812h25l201 -280l301 280h28l-319 -296 h-23z" />
<glyph unicode="&#x161;" horiz-adv-x="1079" d="M106 256l9 51h20l-10 -53q-19 -106 33.5 -171t158.5 -65h281q106 0 183 65t96 171l8 45q19 106 -34 171t-159 65h-270q-116 0 -174.5 70.5t-36.5 185.5l2 18q20 115 102.5 185.5t198.5 70.5h260q115 0 173 -70t38 -186l-8 -51h-21l9 53q19 106 -33.5 171t-157.5 65h-260 q-106 0 -184 -65.5t-97 -170.5l-4 -23q-19 -106 35 -170.5t160 -64.5h270q115 0 173 -70t38 -186l-6 -41q-22 -116 -104 -186t-197 -70h-281q-116 0 -174.5 70.5t-36.5 185.5zM467 1516h22l179 -314l288 314h25l-303 -328h-23z" />
<glyph unicode="&#x164;" horiz-adv-x="1163" d="M166 1415l4 19h1163l-4 -19h-571l-248 -1415h-21l248 1415h-571zM543 1812h24l201 -280l301 280h29l-320 -296h-22z" />
<glyph unicode="&#x165;" horiz-adv-x="593" d="M102 1047l2 18h287l66 369h20l-65 -369h286l-2 -18h-286l-185 -1047h-20l184 1047h-287zM557 1188l139 409h21l-139 -409h-21z" />
<glyph unicode="&#x16e;" d="M131 289l203 1145h20l-202 -1147q-22 -120 38.5 -194.5t180.5 -74.5h415q120 0 208 74.5t110 194.5l203 1147h20l-203 -1145q-22 -129 -115.5 -209t-222.5 -80h-415q-129 0 -195.5 80t-44.5 209zM688 1620q0 91 62 152t149 61q69 0 109.5 -38t40.5 -101q0 -91 -62 -152 t-149 -61q-69 0 -109.5 38t-40.5 101zM709 1624q0 -56 35 -90.5t94 -34.5q76 0 133 55.5t57 135.5q0 56 -35 90.5t-96 34.5q-76 0 -132 -55.5t-56 -135.5z" />
<glyph unicode="&#x16f;" horiz-adv-x="1120" d="M131 289l137 776h21l-137 -778q-22 -120 38 -194.5t181 -74.5q61 0 118 24t129 85l302 254l120 684h21l-187 -1065h-20l61 352l-278 -235q-80 -67 -140.5 -92t-127.5 -25q-130 0 -195.5 80t-42.5 209zM532 1303q0 91 62 152t149 61q69 0 109.5 -38.5t40.5 -101.5 q0 -91 -62 -152t-149 -61q-69 0 -109.5 38.5t-40.5 101.5zM553 1307q0 -56 35 -90.5t94 -34.5q77 0 133.5 55t56.5 135q0 56 -35 90.5t-96 34.5q-76 0 -132 -55t-56 -135z" />
<glyph unicode="&#x178;" horiz-adv-x="1157" d="M188 1434h23l389 -822l680 822h27l-699 -844l-102 -590h-21l103 590zM502 1516l28 163h21l-29 -163h-20zM1004 1516l28 163h21l-29 -163h-20z" />
<glyph unicode="&#x17d;" horiz-adv-x="1157" d="M0 0l2 18l1212 1397h-966l4 19h993l-4 -19l-1212 -1397h966l-2 -18h-993zM539 1812h24l201 -280l301 280h29l-320 -296h-22z" />
<glyph unicode="&#x17e;" horiz-adv-x="956" d="M0 0l2 18l948 1029h-766l2 18h793l-2 -18l-948 -1029h766l-2 -18h-793zM406 1516h22l178 -314l289 314h25l-304 -328h-22z" />
<glyph unicode="&#x2c6;" horiz-adv-x="595" d="M168 1188l303 328h23l188 -328h-23l-178 313l-288 -313h-25z" />
<glyph unicode="&#x2da;" horiz-adv-x="434" d="M190 1303q0 91 62 152t149 61q69 0 109.5 -38.5t40.5 -101.5q0 -91 -62 -152t-149 -61q-69 0 -109.5 38.5t-40.5 101.5zM211 1307q0 -56 35 -90.5t94 -34.5q77 0 133.5 55t56.5 135q0 56 -35 90.5t-96 34.5q-76 0 -132 -55t-56 -135z" />
<glyph unicode="&#x2dc;" horiz-adv-x="860" d="M182 1270l115 133q52 60 119 71t119 -30l143 -123q50 -38 108 -27.5t109 66.5l78 88l16 -12l-78 -88q-56 -62 -124 -73.5t-121 30.5l-146 122q-41 38 -102 27.5t-105 -63.5l-114 -134z" />
<glyph unicode="&#x2000;" horiz-adv-x="947" />
<glyph unicode="&#x2001;" horiz-adv-x="1894" />
<glyph unicode="&#x2002;" horiz-adv-x="947" />
<glyph unicode="&#x2003;" horiz-adv-x="1894" />
<glyph unicode="&#x2004;" horiz-adv-x="631" />
<glyph unicode="&#x2005;" horiz-adv-x="473" />
<glyph unicode="&#x2006;" horiz-adv-x="315" />
<glyph unicode="&#x2007;" horiz-adv-x="315" />
<glyph unicode="&#x2008;" horiz-adv-x="236" />
<glyph unicode="&#x2009;" horiz-adv-x="378" />
<glyph unicode="&#x200a;" horiz-adv-x="105" />
<glyph unicode="&#x2010;" horiz-adv-x="460" d="M74 535l2 18h338l-2 -18h-338z" />
<glyph unicode="&#x2011;" horiz-adv-x="460" d="M74 535l2 18h338l-2 -18h-338z" />
<glyph unicode="&#x2012;" horiz-adv-x="460" d="M74 535l2 18h338l-2 -18h-338z" />
<glyph unicode="&#x2013;" horiz-adv-x="1044" d="M23 535l2 18h1024l-2 -18h-1024z" />
<glyph unicode="&#x2014;" horiz-adv-x="2068" d="M23 535l2 18h2048l-2 -18h-2048z" />
<glyph unicode="&#x2018;" horiz-adv-x="348" d="M293 1198l69 399h21l-70 -399h-20z" />
<glyph unicode="&#x2019;" horiz-adv-x="348" d="M293 1198l69 399h21l-70 -399h-20z" />
<glyph unicode="&#x201a;" horiz-adv-x="348" d="M39 -236l72 400h20l-72 -400h-20z" />
<glyph unicode="&#x201c;" horiz-adv-x="491" d="M293 1198l69 399h21l-70 -399h-20zM436 1198l70 399h20l-69 -399h-21z" />
<glyph unicode="&#x201d;" horiz-adv-x="491" d="M293 1198l69 399h21l-70 -399h-20zM436 1198l70 399h20l-69 -399h-21z" />
<glyph unicode="&#x201e;" horiz-adv-x="491" d="M39 -236l72 400h20l-72 -400h-20zM182 -236l72 400h20l-71 -400h-21z" />
<glyph unicode="&#x2022;" horiz-adv-x="483" d="M121 684q0 82 56.5 137.5t135.5 55.5q63 0 99.5 -35t36.5 -92q0 -82 -57 -137.5t-136 -55.5q-62 0 -98.5 34.5t-36.5 92.5z" />
<glyph unicode="&#x2026;" horiz-adv-x="1413" d="M82 0l29 164h20l-29 -164h-20zM614 0l29 164h21l-29 -164h-21zM1147 0l29 164h20l-29 -164h-20z" />
<glyph unicode="&#x202f;" horiz-adv-x="378" />
<glyph unicode="&#x2039;" horiz-adv-x="475" d="M51 528l2 9l434 352l-4 -31l-403 -328l287 -321l-5 -33z" />
<glyph unicode="&#x203a;" horiz-adv-x="475" d="M10 176l4 31l402 328l-287 321l6 33l311 -352l-2 -9z" />
<glyph unicode="&#x205f;" horiz-adv-x="473" />
<glyph unicode="&#x20ac;" horiz-adv-x="1280" d="M94 541l4 18h164l55 315h-163l2 19h163l46 252q23 130 117 209.5t223 79.5h333q129 0 195 -79.5t43 -209.5l-21 -121h-20l20 123q22 121 -39.5 194.5t-181.5 73.5h-332q-120 0 -207.5 -73.5t-109.5 -194.5l-45 -254h561l-2 -19h-561l-55 -315h561l-4 -18h-561l-46 -254 q-22 -120 39 -194.5t181 -74.5h335q120 0 207 74.5t109 194.5l22 123h21l-23 -121q-22 -129 -115.5 -209t-222.5 -80h-333q-129 0 -195.5 80t-44.5 209l45 252h-164z" />
<glyph unicode="&#x2122;" horiz-adv-x="1445" d="M227 1415l4 19h592l-4 -19h-284l-123 -698h-21l123 698h-287zM768 717l127 717h20l187 -523l371 523h20l-127 -717h-20l118 674l-370 -521l-187 521l-119 -674h-20z" />
<glyph unicode="&#x2190;" horiz-adv-x="1951" d="M41 795l868 868l15 -14l-844 -844h1831v-21h-1831l844 -843l-15 -15z" />
<glyph unicode="&#x2191;" horiz-adv-x="1818" d="M41 862l868 869l869 -869l-15 -14l-843 844v-1831h-21v1831l-844 -844z" />
<glyph unicode="&#x2192;" horiz-adv-x="1951" d="M41 784v21h1831l-844 844l14 14l869 -868l-869 -869l-14 15l844 843h-1831z" />
<glyph unicode="&#x2193;" horiz-adv-x="1818" d="M41 731l14 14l844 -843v1831h21v-1831l843 843l15 -14l-869 -868z" />
<glyph unicode="&#x25fc;" horiz-adv-x="1064" d="M0 0v1065h1065v-1065h-1065z" />
</font>
</defs>
</svg>
