<?xml version="1.0" encoding="UTF-8"?>
<svg width="189px" height="19px" viewBox="0 0 189 19" version="1.1" xmlns="http://www.w3.org/2000/svg" xmlns:xlink="http://www.w3.org/1999/xlink">
    <!-- Generator: Sketch 48.2 (47327) - http://www.bohemiancoding.com/sketch -->
    <title>logo-koma-space-inline-white</title>
    <desc>Created with Sketch.</desc>
    <defs></defs>
    <g id="Footer-Part-B" stroke="none" stroke-width="1" fill="none" fill-rule="evenodd" transform="translate(-192.000000, -53.000000)">
        <g id="logo-koma-space-inline-white" transform="translate(192.000000, 53.000000)">
            <path d="M121.334286,8.04857143 C123.622857,8.04857143 125.165714,9.59142857 125.165714,11.88 L125.165714,14.1685714 C125.165714,16.4571429 123.622857,18 121.334286,18 L115.831429,18 C113.542857,18 112,16.4571429 112,14.1685714 L112,12.6 L114.134286,12.6 L114.134286,14.0657143 C114.134286,15.3514286 114.931429,16.1485714 116.191429,16.1485714 L120.974286,16.1485714 C122.234286,16.1485714 123.031429,15.3514286 123.031429,14.0657143 L123.031429,11.9828571 C123.031429,10.7228571 122.234286,9.9 120.974286,9.9 L115.831429,9.9 C113.542857,9.9 112,8.35714286 112,6.06857143 L112,3.83142857 C112,1.51714286 113.542857,0 115.831429,0 L121.334286,0 C123.622857,0 125.165714,1.51714286 125.165714,3.83142857 L125.165714,5.4 L123.031429,5.4 L123.031429,3.90857143 C123.031429,2.64857143 122.234286,1.85142857 120.974286,1.85142857 L116.191429,1.85142857 C114.931429,1.85142857 114.134286,2.64857143 114.134286,3.90857143 L114.134286,5.99142857 C114.134286,7.25142857 114.931429,8.04857143 116.191429,8.04857143 L121.334286,8.04857143 Z M139.282857,7.27714286 L139.282857,3.90857143 C139.282857,2.64857143 138.485714,1.85142857 137.225714,1.85142857 L130.9,1.85142857 L130.9,9.33428571 L137.225714,9.33428571 C138.485714,9.33428571 139.282857,8.53714286 139.282857,7.27714286 Z M141.417143,7.35428571 C141.417143,9.64285714 139.874286,11.1857143 137.585714,11.1857143 L130.9,11.1857143 L130.9,18 L128.765714,18 L128.765714,0 L137.585714,0 C139.874286,0 141.417143,1.51714286 141.417143,3.83142857 L141.417143,7.35428571 Z M151.574286,0 L158.208571,18 L155.971429,18 L154.274286,13.3714286 L146.2,13.3714286 L144.502857,18 L142.317143,18 L148.977143,0 L151.574286,0 Z M150.237143,2.26285714 L146.765714,11.52 L153.708571,11.52 L150.237143,2.26285714 Z M173.431429,5.78571429 L171.297143,5.78571429 L171.297143,3.90857143 C171.297143,2.64857143 170.5,1.85142857 169.24,1.85142857 L164.2,1.85142857 C162.94,1.85142857 162.142857,2.64857143 162.142857,3.90857143 L162.142857,14.0657143 C162.142857,15.3257143 162.94,16.1485714 164.2,16.1485714 L169.24,16.1485714 C170.5,16.1485714 171.297143,15.3257143 171.297143,14.0657143 L171.297143,12.2142857 L173.431429,12.2142857 L173.431429,14.1685714 C173.431429,16.4571429 171.888571,18 169.6,18 L163.84,18 C161.551429,18 160.008571,16.4571429 160.008571,14.1685714 L160.008571,3.83142857 C160.008571,1.51714286 161.551429,0 163.84,0 L169.6,0 C171.888571,0 173.431429,1.51714286 173.431429,3.83142857 L173.431429,5.78571429 Z M177.031429,18 L177.031429,0 L188.654286,0 L188.654286,1.85142857 L179.165714,1.85142857 L179.165714,8.04857143 L187.368571,8.04857143 L187.368571,9.9 L179.165714,9.9 L179.165714,16.1485714 L188.654286,16.1485714 L188.654286,18 L177.031429,18 Z" id="SPACE" fill="#FFFFFF"></path>
            <path d="M21.4655769,18.08 L11.7466619,8.8230689 L20.9584546,0.08 L14.0304537,0.08 L7.19405521,6.7651496 L5.32578328,6.7651496 L5.32578328,0.08 L0.251077465,0.08 L0.251077465,18.08 L5.32578328,18.08 L5.32578328,11.3944975 L7.32431877,11.3944975 L14.1579309,18.08 L21.4655769,18.08 L21.4655769,18.08 Z M39.0034398,13.0652555 C39.0034398,13.3221866 38.8759626,13.4510051 38.6227498,13.4510051 L28.3448161,13.4510051 C28.0909066,13.4510051 27.964126,13.3221866 27.964126,13.0652555 L27.964126,5.09368574 C27.964126,4.83710756 28.0909066,4.70864201 28.3448161,4.70864201 L38.6227498,4.70864201 C38.8759626,4.70864201 39.0034398,4.83710756 39.0034398,5.09368574 L39.0034398,13.0652555 L39.0034398,13.0652555 Z M44.0781456,13.9645143 L44.0781456,4.1933681 C44.0781456,1.72534724 42.4540307,0.08 39.0034398,0.08 L27.964126,0.08 C24.5128385,0.08 22.8887236,1.72534724 22.8887236,4.1933681 L22.8887236,13.9645143 C22.8887236,16.4339469 24.5128385,18.08 27.964126,18.08 L39.0034398,18.08 C42.4540307,18.08 44.0781456,16.4339469 44.0781456,13.9645143 L44.0781456,13.9645143 Z M66.7485318,18.08 L71.8239342,18.08 L71.8239342,0.08 L66.7485318,0.08 L60.0493628,8.53966825 L53.349149,0.08 L48.2740949,0.08 L48.2740949,18.08 L53.349149,18.08 L53.349149,8.10274421 L60.0493628,16.5366488 L66.7485318,8.10274421 L66.7485318,18.08 L66.7485318,18.08 Z M89.2061077,10.3653614 L84.0547763,10.3653614 L86.6179033,5.17132975 L89.2061077,10.3653614 L89.2061077,10.3653614 Z M98.7989387,18.08 L89.3335849,0.08 L84.2327567,0.08 L74.7667063,18.08 L80.2234953,18.08 L81.7455588,14.9936504 L91.4898995,14.9936504 L93.0380853,18.08 L98.7989387,18.08 L98.7989387,18.08 Z" id="KOMA" fill="#F1F1F1"></path>
        </g>
    </g>
</svg>