<?xml version="1.0" encoding="UTF-8"?>
<svg width="225px" height="19px" viewBox="0 0 225 19" version="1.1" xmlns="http://www.w3.org/2000/svg" xmlns:xlink="http://www.w3.org/1999/xlink">
    <!-- Generator: Sketch 48.2 (47327) - http://www.bohemiancoding.com/sketch -->
    <title>logo-koma-modular-inline-white</title>
    <desc>Created with Sketch.</desc>
    <defs></defs>
    <g id="Footer-Part-B" stroke="none" stroke-width="1" fill="none" fill-rule="evenodd" transform="translate(-192.000000, -53.000000)">
        <g id="logo-koma-modular-inline-white" transform="translate(192.000000, 53.000000)">
            <path d="M125.371429,18 L125.371429,4.19142857 L119.74,14.7085714 L114.134286,4.19142857 L114.134286,18 L112,18 L112,0 L114.057143,0 L119.74,10.6457143 L125.422857,0 L127.48,0 L127.48,18 L125.371429,18 Z M142.368571,14.0657143 L142.368571,3.90857143 C142.368571,2.64857143 141.571429,1.85142857 140.311429,1.85142857 L135.271429,1.85142857 C134.011429,1.85142857 133.214286,2.64857143 133.214286,3.90857143 L133.214286,14.0657143 C133.214286,15.3257143 134.011429,16.1485714 135.271429,16.1485714 L140.311429,16.1485714 C141.571429,16.1485714 142.368571,15.3257143 142.368571,14.0657143 Z M144.502857,14.1685714 C144.502857,16.4571429 142.96,18 140.671429,18 L134.911429,18 C132.622857,18 131.08,16.4571429 131.08,14.1685714 L131.08,3.83142857 C131.08,1.51714286 132.622857,0 134.911429,0 L140.671429,0 C142.96,0 144.502857,1.51714286 144.502857,3.83142857 L144.502857,14.1685714 Z M159.391429,14.0657143 L159.391429,3.90857143 C159.391429,2.64857143 158.594286,1.85142857 157.334286,1.85142857 L150.237143,1.85142857 L150.237143,16.1485714 L157.334286,16.1485714 C158.594286,16.1485714 159.391429,15.3257143 159.391429,14.0657143 Z M161.525714,14.1685714 C161.525714,16.4571429 159.982857,18 157.694286,18 L148.102857,18 L148.102857,0 L157.694286,0 C159.982857,0 161.525714,1.51714286 161.525714,3.83142857 L161.525714,14.1685714 Z M176.414286,0 L178.548571,0 L178.548571,14.1685714 C178.548571,16.4571429 177.005714,18 174.717143,18 L168.957143,18 C166.668571,18 165.125714,16.4571429 165.125714,14.1685714 L165.125714,0 L167.26,0 L167.26,14.0657143 C167.26,15.3257143 168.057143,16.1485714 169.317143,16.1485714 L174.357143,16.1485714 C175.617143,16.1485714 176.414286,15.3257143 176.414286,14.0657143 L176.414286,0 Z M182.148571,18 L182.148571,0 L184.282857,0 L184.282857,16.1485714 L193.771429,16.1485714 L193.771429,18 L182.148571,18 Z M203.542857,0 L210.177143,18 L207.94,18 L206.242857,13.3714286 L198.168571,13.3714286 L196.471429,18 L194.285714,18 L200.945714,0 L203.542857,0 Z M202.205714,2.26285714 L198.734286,11.52 L205.677143,11.52 L202.205714,2.26285714 Z M224.885714,7.35428571 C224.885714,9.41142857 223.651429,10.8514286 221.748571,11.1342857 L224.885714,18 L222.545714,18 L219.537143,11.1857143 L214.111429,11.1857143 L214.111429,18 L211.977143,18 L211.977143,0 L221.054286,0 C223.342857,0 224.885714,1.51714286 224.885714,3.83142857 L224.885714,7.35428571 Z M222.751429,7.27714286 L222.751429,3.90857143 C222.751429,2.64857143 221.954286,1.85142857 220.694286,1.85142857 L214.111429,1.85142857 L214.111429,9.33428571 L220.694286,9.33428571 C221.954286,9.33428571 222.751429,8.53714286 222.751429,7.27714286 Z" id="MODULAR" fill="#FFFFFF"></path>
            <path d="M21.4655769,18.08 L11.7466619,8.8230689 L20.9584546,0.08 L14.0304537,0.08 L7.19405521,6.7651496 L5.32578328,6.7651496 L5.32578328,0.08 L0.251077465,0.08 L0.251077465,18.08 L5.32578328,18.08 L5.32578328,11.3944975 L7.32431877,11.3944975 L14.1579309,18.08 L21.4655769,18.08 L21.4655769,18.08 Z M39.0034398,13.0652555 C39.0034398,13.3221866 38.8759626,13.4510051 38.6227498,13.4510051 L28.3448161,13.4510051 C28.0909066,13.4510051 27.964126,13.3221866 27.964126,13.0652555 L27.964126,5.09368574 C27.964126,4.83710756 28.0909066,4.70864201 28.3448161,4.70864201 L38.6227498,4.70864201 C38.8759626,4.70864201 39.0034398,4.83710756 39.0034398,5.09368574 L39.0034398,13.0652555 L39.0034398,13.0652555 Z M44.0781456,13.9645143 L44.0781456,4.1933681 C44.0781456,1.72534724 42.4540307,0.08 39.0034398,0.08 L27.964126,0.08 C24.5128385,0.08 22.8887236,1.72534724 22.8887236,4.1933681 L22.8887236,13.9645143 C22.8887236,16.4339469 24.5128385,18.08 27.964126,18.08 L39.0034398,18.08 C42.4540307,18.08 44.0781456,16.4339469 44.0781456,13.9645143 L44.0781456,13.9645143 Z M66.7485318,18.08 L71.8239342,18.08 L71.8239342,0.08 L66.7485318,0.08 L60.0493628,8.53966825 L53.349149,0.08 L48.2740949,0.08 L48.2740949,18.08 L53.349149,18.08 L53.349149,8.10274421 L60.0493628,16.5366488 L66.7485318,8.10274421 L66.7485318,18.08 L66.7485318,18.08 Z M89.2061077,10.3653614 L84.0547763,10.3653614 L86.6179033,5.17132975 L89.2061077,10.3653614 L89.2061077,10.3653614 Z M98.7989387,18.08 L89.3335849,0.08 L84.2327567,0.08 L74.7667063,18.08 L80.2234953,18.08 L81.7455588,14.9936504 L91.4898995,14.9936504 L93.0380853,18.08 L98.7989387,18.08 L98.7989387,18.08 Z" id="KOMA" fill="#F1F1F1"></path>
        </g>
    </g>
</svg>