<?xml version="1.0" encoding="UTF-8" standalone="no"?>
<svg width="202px" height="19px" viewBox="0 0 202 19" version="1.1" xmlns="http://www.w3.org/2000/svg" xmlns:xlink="http://www.w3.org/1999/xlink" xmlns:sketch="http://www.bohemiancoding.com/sketch/ns">
    <!-- Generator: Sketch 3.2.2 (9983) - http://www.bohemiancoding.com/sketch -->
    <title>logo-koma-modular-inline-white</title>
    <desc>Created with Sketch.</desc>
    <defs></defs>
    <g id="Výrobková-řada-single-(není-hotovo)" stroke="none" stroke-width="1" fill="none" fill-rule="evenodd" sketch:type="MSPage">
        <g id="Výrobková-řada-single-1680px" sketch:type="MSArtboardGroup" transform="translate(-193.000000, -4413.000000)">
            <g id="Footer-Part-B" sketch:type="MSLayerGroup" transform="translate(1.000000, 4360.000000)">
                <g id="logo-koma-modular-inline-white" transform="translate(192.000000, 53.000000)" sketch:type="MSShapeGroup">
                    <path d="M21.9123768,18.4590991 L11.9887711,9.00720721 L21.3945739,0.08 L14.320662,0.08 L7.34028169,6.90594595 L5.43266197,6.90594595 L5.43266197,0.08 L0.251077465,0.08 L0.251077465,18.4590991 L5.43266197,18.4590991 L5.43266197,11.6327928 L7.47328873,11.6327928 L14.4508239,18.4590991 L21.9123768,18.4590991 L21.9123768,18.4590991 Z M39.8196056,13.3387387 C39.8196056,13.6010811 39.6894437,13.7326126 39.4308979,13.7326126 L28.9365,13.7326126 C28.677243,13.7326126 28.5477923,13.6010811 28.5477923,13.3387387 L28.5477923,5.19927928 C28.5477923,4.9372973 28.677243,4.80612613 28.9365,4.80612613 L39.4308979,4.80612613 C39.6894437,4.80612613 39.8196056,4.9372973 39.8196056,5.19927928 L39.8196056,13.3387387 L39.8196056,13.3387387 Z M45.0011901,14.2569369 L45.0011901,4.28 C45.0011901,1.76 43.3428697,0.08 39.8196056,0.08 L28.5477923,0.08 C25.0238169,0.08 23.3654965,1.76 23.3654965,4.28 L23.3654965,14.2569369 C23.3654965,16.7783784 25.0238169,18.4590991 28.5477923,18.4590991 L39.8196056,18.4590991 C43.3428697,18.4590991 45.0011901,16.7783784 45.0011901,14.2569369 L45.0011901,14.2569369 Z M68.1490387,18.4590991 L73.3313345,18.4590991 L73.3313345,0.08 L68.1490387,0.08 L61.3087782,8.71783784 L54.4674507,0.08 L49.2855106,0.08 L49.2855106,18.4590991 L54.4674507,18.4590991 L54.4674507,8.27171171 L61.3087782,16.8832432 L68.1490387,8.27171171 L68.1490387,18.4590991 L68.1490387,18.4590991 Z M91.0795951,10.581982 L85.8197711,10.581982 L88.4368803,5.27855856 L91.0795951,10.581982 L91.0795951,10.581982 Z M100.874461,18.4590991 L91.209757,0.08 L86.0015,0.08 L76.3360845,18.4590991 L81.9077993,18.4590991 L83.461919,15.3077477 L93.4114859,15.3077477 L94.9922782,18.4590991 L100.874461,18.4590991 L100.874461,18.4590991 Z" id="Fill-2" fill="#F2F2F2"></path>
                </g>
            </g>
        </g>
    </g>
</svg>
