<?xml version="1.0" encoding="UTF-8" standalone="no"?>
<svg width="155px" height="58px" viewBox="0 0 155 58" version="1.1" xmlns="http://www.w3.org/2000/svg" xmlns:xlink="http://www.w3.org/1999/xlink" xmlns:sketch="http://www.bohemiancoding.com/sketch/ns">
    <!-- Generator: Sketch 3.4 (15575) - http://www.bohemiancoding.com/sketch -->
    <title>Logo KOMA Rent</title>
    <desc>Created with Sketch.</desc>
    <defs></defs>
    <g id="_Library" stroke="none" stroke-width="1" fill="none" fill-rule="evenodd" sketch:type="MSPage">
        <g id="Menu-–-dropdown-–-Firma-&amp;-Lidé" sketch:type="MSArtboardGroup" transform="translate(-194.000000, -75.000000)">
            <g id="Header-(MAIN)" sketch:type="MSLayerGroup">
                <g id="Logo-KOMA-Rent" transform="translate(194.000000, 75.000000)" sketch:type="MSShapeGroup">
                    <path d="M14.8987063,45.4588218 L14.8987063,41.3079942 C14.8987063,38.5816511 13.1176498,36.7946463 10.4769741,36.7946463 L0,36.7946463 L0,58 L2.46338651,58 L2.46338651,49.9721697 L8.72566028,49.9721697 L12.1979622,58 L14.8987063,58 L11.2782746,49.911452 C13.4751441,49.5781 14.8987063,47.8815764 14.8987063,45.4588218 L14.8987063,45.4588218 Z M12.4353197,45.3683405 C12.4353197,46.8517569 11.5150489,47.7910952 10.0617442,47.7910952 L2.46338651,47.7910952 L2.46338651,38.9757208 L10.0617442,38.9757208 C11.5150489,38.9757208 12.4353197,39.9144638 12.4353197,41.3990707 L12.4353197,45.3683405 L12.4353197,45.3683405 Z M28.9663695,53.0009106 L28.9663695,53.5158204 C28.9663695,55.0016179 28.0466819,55.9701245 26.5624682,55.9701245 L23.4464942,55.9701245 C21.9914399,55.9701245 21.0717522,55.0016179 21.0717522,53.5158204 L21.0717522,50.8811491 L31.2518836,50.8811491 L31.2518836,46.7618709 C31.2518836,44.0343373 29.5005698,42.2473325 26.8295683,42.2473325 L23.179394,42.2473325 C20.537552,42.2473325 18.7564955,44.0343373 18.7564955,46.7618709 L18.7564955,53.4866521 C18.7564955,56.1820411 20.537552,58 23.179394,58 L26.8295683,58 C29.5005698,58 31.2518836,56.1820411 31.2518836,53.4866521 L31.2518836,53.0009106 L28.9663695,53.0009106 L28.9663695,53.0009106 Z M21.0717522,46.700558 C21.0717522,45.215951 21.9914399,44.2778033 23.4464942,44.2778033 L26.5624682,44.2778033 C28.0466819,44.2778033 28.9663695,45.215951 28.9663695,46.700558 L28.9663695,49.0024725 L21.0717522,49.0024725 L21.0717522,46.700558 L21.0717522,46.700558 Z M48.1975801,58 L48.1975801,46.7618709 C48.1975801,44.0343373 46.4468494,42.2473325 43.775848,42.2473325 L40.9263909,42.2473325 C39.5908902,42.2473325 38.4630044,42.7021198 37.6914466,43.5194275 L37.4832484,42.2473325 L35.7033584,42.2473325 L35.7033584,58 L38.0174487,58 L38.0174487,46.700558 C38.0174487,45.215951 38.9383027,44.2778033 40.3921906,44.2778033 L43.5087478,44.2778033 C44.9929615,44.2778033 45.912066,45.215951 45.912066,46.700558 L45.912066,58 L48.1975801,58 L48.1975801,58 Z M50.8685816,44.2778033 L54.726954,44.2778033 L54.726954,58 L57.0422108,58 L57.0422108,44.2778033 L60.9,44.2778033 L60.9,42.2473325 L57.0422108,42.2473325 L57.0422108,36.7333333 L54.726954,37.399442 L54.726954,42.2473325 L50.8685816,42.2473325 L50.8685816,44.2778033 L50.8685816,44.2778033 Z" id="Fill-1" fill="#A0ADA2"></path>
                    <path d="M154.666667,29 L139.810831,0 L131.807003,0 L116.951167,29 L125.51372,29 L127.903029,24.0282795 L143.197004,24.0282795 L145.625598,29 L154.666667,29 L154.666667,29 Z M139.611677,16.571834 L131.526549,16.571834 L135.549471,8.20333875 L139.611677,16.571834 L139.611677,16.571834 Z M104.366239,29 L112.331328,29 L112.331328,0 L104.366239,0 L93.8514267,13.6308002 L83.3371598,0 L75.3709794,0 L75.3709794,29 L83.3371598,29 L83.3371598,12.9264732 L93.8514267,26.5135722 L104.366239,12.9264732 L104.366239,29 L104.366239,29 Z M68.7863311,22.3710394 L68.7863311,6.6289606 C68.7863311,2.65215179 66.237699,0 60.8201506,0 L43.4953451,0 C38.078888,0 35.5297103,2.65215179 35.5297103,6.6289606 L35.5297103,22.3710394 C35.5297103,26.3489833 38.078888,29 43.4953451,29 L60.8201506,29 C66.237699,29 68.7863311,26.3489833 68.7863311,22.3710394 L68.7863311,22.3710394 Z M60.8201506,20.9215218 C60.8201506,21.3352643 60.6215418,21.5424193 60.2226871,21.5424193 L44.092263,21.5424193 C43.6944996,21.5424193 43.4953451,21.3352643 43.4953451,20.9215218 L43.4953451,8.07961328 C43.4953451,7.66416815 43.6944996,7.45758068 44.092263,7.45758068 L60.2226871,7.45758068 C60.6215418,7.45758068 60.8201506,7.66416815 60.8201506,8.07961328 L60.8201506,20.9215218 L60.8201506,20.9215218 Z M33.2969973,29 L18.0423074,14.0854062 L32.5009249,0 L21.6270886,0 L10.8967527,10.772061 L7.96618042,10.772061 L7.96618042,0 L0,0 L0,29 L7.96618042,29 L7.96618042,18.2290741 L11.1019091,18.2290741 L21.8256975,29 L33.2969973,29 L33.2969973,29 Z" id="Fill-2" fill="#C20E1A"></path>
                </g>
            </g>
        </g>
    </g>
</svg>