<?xml version="1.0" encoding="UTF-8" standalone="no"?>
<svg width="176px" height="20px" viewBox="0 0 176 20" version="1.1" xmlns="http://www.w3.org/2000/svg" xmlns:xlink="http://www.w3.org/1999/xlink" xmlns:sketch="http://www.bohemiancoding.com/sketch/ns">
    <!-- Generator: Sketch 3.4.2 (15855) - http://www.bohemiancoding.com/sketch -->
    <title>logo-koma-modular-inline-white</title>
    <desc>Created with Sketch.</desc>
    <defs></defs>
    <g id="PRONÁJEM-KONTEJNERů" stroke="none" stroke-width="1" fill="none" fill-rule="evenodd" sketch:type="MSPage">
        <g id="Pronájem-kontejnerů-1680px-MAIN" sketch:type="MSArtboardGroup" transform="translate(-191.000000, -4484.000000)">
            <g id="Footer-Part-B" sketch:type="MSLayerGroup" transform="translate(-1.000000, 4431.000000)">
                <g id="logo-koma-modular-inline-white" transform="translate(192.000000, 53.000000)" sketch:type="MSShapeGroup">
                    <path d="M22.5852147,19.0299861 L12.3533645,9.28450192 L22.051328,0.08 L14.7576879,0.08 L7.5604848,7.1179718 L5.59361107,7.1179718 L5.59361107,0.08 L0.251077465,0.08 L0.251077465,19.0299861 L5.59361107,19.0299861 L5.59361107,11.9916428 L7.69762328,11.9916428 L14.891893,19.0299861 L22.5852147,19.0299861 L22.5852147,19.0299861 Z M41.0486735,13.7505784 C41.0486735,14.0210696 40.9144685,14.1566867 40.6478918,14.1566867 L29.8275195,14.1566867 C29.5602095,14.1566867 29.4267378,14.0210696 29.4267378,13.7505784 L29.4267378,5.35829307 C29.4267378,5.08817347 29.5602095,4.95292789 29.8275195,4.95292789 L40.6478918,4.95292789 C40.9144685,4.95292789 41.0486735,5.08817347 41.0486735,5.35829307 L41.0486735,13.7505784 L41.0486735,13.7505784 Z M46.3912071,14.6972975 L46.3912071,4.41045936 C46.3912071,1.81218375 44.6813763,0.08 41.0486735,0.08 L29.4267378,0.08 C25.7933016,0.08 24.0834709,1.81218375 24.0834709,4.41045936 L24.0834709,14.6972975 C24.0834709,17.2970593 25.7933016,19.0299861 29.4267378,19.0299861 L41.0486735,19.0299861 C44.6813763,19.0299861 46.3912071,17.2970593 46.3912071,14.6972975 L46.3912071,14.6972975 Z M70.2580685,19.0299861 L75.6013354,19.0299861 L75.6013354,0.08 L70.2580685,0.08 L63.2053374,8.98614423 L56.1515063,0.08 L50.808606,0.08 L50.808606,19.0299861 L56.1515063,19.0299861 L56.1515063,8.52616064 L63.2053374,17.4051814 L70.2580685,8.52616064 L70.2580685,19.0299861 L70.2580685,19.0299861 Z M93.9008881,10.908192 L88.4776848,10.908192 L91.1760859,5.4400349 L93.9008881,10.908192 L93.9008881,10.908192 Z M104,19.0299861 L94.0350931,0.08 L88.6650585,0.08 L78.6994182,19.0299861 L84.4442003,19.0299861 L86.0465937,15.7807483 L96.3052115,15.7807483 L97.935106,19.0299861 L104,19.0299861 L104,19.0299861 Z" id="Fill-2" fill="#F2F2F2"></path>
                    <path d="M131.571486,7.86749769 L131.571486,4.12497275 C131.571486,1.66637972 129.932424,0.0546354006 127.501148,0.0546354006 L117.858,0.0546354006 L117.858,19.1770256 L120.125369,19.1770256 L120.125369,11.937835 L125.889404,11.937835 L129.085575,19.1770256 L131.571486,19.1770256 L128.238726,11.8831996 C130.260236,11.5827049 131.571486,10.0529137 131.571486,7.86749769 L131.571486,7.86749769 Z M129.304116,7.78554459 C129.304116,9.12411191 128.457268,9.97096062 127.1187,9.97096062 L120.125369,9.97096062 L120.125369,2.02150982 L127.1187,2.02150982 C128.457268,2.02150982 129.304116,2.86835853 129.304116,4.20692585 L129.304116,7.78554459 Z M145.215435,14.6696051 L145.215435,15.134006 C145.215435,16.4725733 144.368586,17.3467397 143.002701,17.3467397 L140.134343,17.3467397 C138.795776,17.3467397 137.948927,16.4725733 137.948927,15.134006 L137.948927,12.7573661 L147.318898,12.7573661 L147.318898,9.04215881 C147.318898,6.58356578 145.707154,4.97182146 143.248561,4.97182146 L139.888484,4.97182146 C137.457208,4.97182146 135.818146,6.58356578 135.818146,9.04215881 L135.818146,15.1066883 C135.818146,17.5379636 137.457208,19.1770256 139.888484,19.1770256 L143.248561,19.1770256 C145.707154,19.1770256 147.318898,17.5379636 147.318898,15.1066883 L147.318898,14.6696051 L145.215435,14.6696051 Z M137.948927,8.98752341 C137.948927,7.64895609 138.795776,6.80210738 140.134343,6.80210738 L143.002701,6.80210738 C144.368586,6.80210738 145.215435,7.64895609 145.215435,8.98752341 L145.215435,11.0636686 L137.948927,11.0636686 L137.948927,8.98752341 Z M163.612665,19.1770256 L163.612665,9.04215881 C163.612665,6.58356578 162.00092,4.97182146 159.542327,4.97182146 L156.919828,4.97182146 C155.690532,4.97182146 154.652459,5.38158696 153.942199,6.11916487 L153.750975,4.97182146 L152.111913,4.97182146 L152.111913,19.1770256 L154.242693,19.1770256 L154.242693,8.98752341 C154.242693,7.64895609 155.089542,6.80210738 156.428109,6.80210738 L159.296468,6.80210738 C160.662353,6.80210738 161.509202,7.64895609 161.509202,8.98752341 L161.509202,19.1770256 L163.612665,19.1770256 Z M166.766617,6.80210738 L170.317918,6.80210738 L170.317918,19.1770256 L172.448699,19.1770256 L172.448699,6.80210738 L176,6.80210738 L176,4.97182146 L172.448699,4.97182146 L172.448699,0 L170.317918,0.600989407 L170.317918,4.97182146 L166.766617,4.97182146 L166.766617,6.80210738 Z" id="Type-something" fill="#F8F8F8"></path>
                </g>
            </g>
        </g>
    </g>
</svg>