<?xml version="1.0" encoding="UTF-8"?>
<svg width="174px" height="19px" viewBox="0 0 174 19" version="1.1" xmlns="http://www.w3.org/2000/svg" xmlns:xlink="http://www.w3.org/1999/xlink">
    <!-- Generator: Sketch 48.2 (47327) - http://www.bohemiancoding.com/sketch -->
    <title>logo-koma-rent-inline-white</title>
    <desc>Created with Sketch.</desc>
    <defs></defs>
    <g id="Footer-Part-B" stroke="none" stroke-width="1" fill="none" fill-rule="evenodd" transform="translate(-192.000000, -53.000000)">
        <g id="logo-koma-rent-inline-white" transform="translate(192.000000, 53.000000)">
            <path d="M125.908571,7.35428571 C125.908571,9.41142857 124.674286,10.8514286 122.771429,11.1342857 L125.908571,18 L123.568571,18 L120.56,11.1857143 L115.134286,11.1857143 L115.134286,18 L113,18 L113,0 L122.077143,0 C124.365714,0 125.908571,1.51714286 125.908571,3.83142857 L125.908571,7.35428571 Z M123.774286,7.27714286 L123.774286,3.90857143 C123.774286,2.64857143 122.977143,1.85142857 121.717143,1.85142857 L115.134286,1.85142857 L115.134286,9.33428571 L121.717143,9.33428571 C122.977143,9.33428571 123.774286,8.53714286 123.774286,7.27714286 Z M128.994286,18 L128.994286,0 L140.617143,0 L140.617143,1.85142857 L131.128571,1.85142857 L131.128571,8.04857143 L139.331429,8.04857143 L139.331429,9.9 L131.128571,9.9 L131.128571,16.1485714 L140.617143,16.1485714 L140.617143,18 L128.994286,18 Z M154.862857,18 L145.58,3.88285714 L145.58,18 L143.445714,18 L143.445714,0 L145.451429,0 L154.734286,14.0914286 L154.734286,0 L156.868571,0 L156.868571,18 L154.862857,18 Z M158.668571,1.85142857 L158.668571,0 L173.197143,0 L173.197143,1.85142857 L167,1.85142857 L167,18 L164.865714,18 L164.865714,1.85142857 L158.668571,1.85142857 Z" id="RENT" fill="#FFFFFF"></path>
            <path d="M21.4655769,18.08 L11.7466619,8.8230689 L20.9584546,0.08 L14.0304537,0.08 L7.19405521,6.7651496 L5.32578328,6.7651496 L5.32578328,0.08 L0.251077465,0.08 L0.251077465,18.08 L5.32578328,18.08 L5.32578328,11.3944975 L7.32431877,11.3944975 L14.1579309,18.08 L21.4655769,18.08 L21.4655769,18.08 Z M39.0034398,13.0652555 C39.0034398,13.3221866 38.8759626,13.4510051 38.6227498,13.4510051 L28.3448161,13.4510051 C28.0909066,13.4510051 27.964126,13.3221866 27.964126,13.0652555 L27.964126,5.09368574 C27.964126,4.83710756 28.0909066,4.70864201 28.3448161,4.70864201 L38.6227498,4.70864201 C38.8759626,4.70864201 39.0034398,4.83710756 39.0034398,5.09368574 L39.0034398,13.0652555 L39.0034398,13.0652555 Z M44.0781456,13.9645143 L44.0781456,4.1933681 C44.0781456,1.72534724 42.4540307,0.08 39.0034398,0.08 L27.964126,0.08 C24.5128385,0.08 22.8887236,1.72534724 22.8887236,4.1933681 L22.8887236,13.9645143 C22.8887236,16.4339469 24.5128385,18.08 27.964126,18.08 L39.0034398,18.08 C42.4540307,18.08 44.0781456,16.4339469 44.0781456,13.9645143 L44.0781456,13.9645143 Z M66.7485318,18.08 L71.8239342,18.08 L71.8239342,0.08 L66.7485318,0.08 L60.0493628,8.53966825 L53.349149,0.08 L48.2740949,0.08 L48.2740949,18.08 L53.349149,18.08 L53.349149,8.10274421 L60.0493628,16.5366488 L66.7485318,8.10274421 L66.7485318,18.08 L66.7485318,18.08 Z M89.2061077,10.3653614 L84.0547763,10.3653614 L86.6179033,5.17132975 L89.2061077,10.3653614 L89.2061077,10.3653614 Z M98.7989387,18.08 L89.3335849,0.08 L84.2327567,0.08 L74.7667063,18.08 L80.2234953,18.08 L81.7455588,14.9936504 L91.4898995,14.9936504 L93.0380853,18.08 L98.7989387,18.08 L98.7989387,18.08 Z" id="KOMA" fill="#F1F1F1"></path>
        </g>
    </g>
</svg>