<?xml version="1.0" encoding="UTF-8" standalone="no"?>
<svg width="149px" height="57px" viewBox="0 0 149 57" version="1.1" xmlns="http://www.w3.org/2000/svg" xmlns:xlink="http://www.w3.org/1999/xlink">
    <!-- Generator: Sketch 3.6.1 (26313) - http://www.bohemiancoding.com/sketch -->
    <title>logo-koma-slovakia</title>
    <desc>Created with Sketch.</desc>
    <defs></defs>
    <g id="_Library" stroke="none" stroke-width="1" fill="none" fill-rule="evenodd">
        <g id="Menu-–-dropdown-–-Firma-&amp;-Lidé" transform="translate(-194.000000, -75.000000)">
            <g id="Header-(MAIN)">
                <g id="logo-koma-slovakia" transform="translate(194.000000, 75.000000)">
                    <path d="M10.2401498,46.019261 L4.59807161,46.019261 C3.21698416,46.019261 2.34124033,45.139908 2.34124033,43.7488095 L2.34124033,41.449307 C2.34124033,40.0593259 3.21698416,39.1799729 4.59807161,39.1799729 L9.84531542,39.1799729 C11.2264029,39.1799729 12.1021467,40.0593259 12.1021467,41.449307 L12.1021467,43.0951608 L14.4428317,43.0951608 L14.4428317,41.3643885 C14.4428317,38.8101306 12.7502082,37.1363431 10.2401498,37.1363431 L4.2032372,37.1363431 C1.69317879,37.1363431 0,38.8101306 0,41.3643885 L0,43.833728 C0,46.3583761 1.69317879,48.0612147 4.2032372,48.0612147 L9.84531542,48.0612147 C11.2264029,48.0612147 12.1021467,48.9690601 12.1021467,50.3595999 L12.1021467,52.6585437 C12.1021467,54.0781346 11.2264029,54.9574876 9.84531542,54.9574876 L4.59807161,54.9574876 C3.21698416,54.9574876 2.34124033,54.0781346 2.34124033,52.6585437 L2.34124033,51.0400649 L0,51.0400649 L0,52.7719546 C0,55.2977201 1.69317879,57 4.2032372,57 L10.2401498,57 C12.7502082,57 14.4428317,55.2977201 14.4428317,52.7719546 L14.4428317,50.2456304 C14.4428317,47.7198649 12.7502082,46.019261 10.2401498,46.019261 L10.2401498,46.019261 Z M18.3922865,57 L20.5919195,57 L20.5919195,36 L18.3922865,36 L18.3922865,57 Z M33.9624232,52.8004469 C33.9624232,54.1904281 33.0883453,55.0993908 31.6772704,55.0993908 L28.7157347,55.0993908 C27.3335366,55.0993908 26.4594587,54.1904281 26.4594587,52.8004469 L26.4594587,46.4153609 C26.4594587,45.0253798 27.3335366,44.1454681 28.7157347,44.1454681 L31.6772704,44.1454681 C33.0883453,44.1454681 33.9624232,45.0253798 33.9624232,46.4153609 L33.9624232,52.8004469 Z M36.1348454,52.7719546 L36.1348454,46.4723456 C36.1348454,43.9175291 34.4705434,42.2437415 31.9316082,42.2437415 L28.4619522,42.2437415 C25.9518938,42.2437415 24.258715,43.9175291 24.258715,46.4723456 L24.258715,52.7719546 C24.258715,55.2977201 25.9518938,57 28.4619522,57 L31.9316082,57 C34.4705434,57 36.1348454,55.2977201 36.1348454,52.7719546 L36.1348454,52.7719546 Z M46.0640145,57 L51.6766607,42.2437415 L49.4770276,42.2437415 L44.8228684,54.5317779 L40.1681539,42.2437415 L37.8269135,42.2437415 L43.440115,57 L46.0640145,57 Z M64.8222586,57 L64.8222586,46.2449653 C64.8222586,43.833728 63.2418104,42.2437415 60.8733592,42.2437415 L57.4881123,42.2437415 C55.1179952,42.2437415 53.5108914,43.833728 53.5108914,46.2449653 L53.5108914,46.925989 L55.7105245,46.925989 L55.7105245,46.1885392 C55.7105245,44.9399026 56.5001933,44.1454681 57.7418947,44.1454681 L60.5912553,44.1454681 C61.8601676,44.1454681 62.6498364,44.9399026 62.6498364,46.1885392 L62.6498364,49.4528719 C61.9728981,48.9405677 61.0988202,48.6288276 60.0836904,48.6288276 L56.9239045,48.6288276 C54.5543427,48.6288276 52.9455729,50.218814 52.9455729,52.6300513 L52.9455729,52.9987762 C52.9455729,55.3831972 54.5543427,57 56.9239045,57 L60.0836904,57 C61.2398722,57 62.2266805,56.6312751 62.9047295,55.9502514 L63.1290799,57 L64.8222586,57 Z M60.5912553,55.0993908 L57.1776869,55.0993908 C55.9370961,55.0993908 55.1463166,54.3038389 55.1463166,53.028386 L55.1463166,52.431722 C55.1463166,51.1830855 55.9370961,50.3875336 57.1776869,50.3875336 L60.5912553,50.3875336 C61.80408,50.3875336 62.5654274,51.098167 62.6498364,52.2613265 L62.6498364,53.2255979 C62.5654274,54.3898747 61.80408,55.0993908 60.5912553,55.0993908 L60.5912553,55.0993908 Z M78.4754215,57 L81.6057754,57 L74.2433075,49.4528719 L81.1270872,42.2437415 L78.3615804,42.2437415 L71.5361096,49.3947697 L71.5361096,36 L69.3353659,36 L69.3353659,57 L71.5361096,57 L71.5361096,49.8484131 L78.4754215,57 Z M84.1163891,57 L86.3171328,57 L86.3171328,42.2437415 L84.1163891,42.2437415 L84.1163891,57 Z M84.1163891,40.1151933 L86.3171328,40.1151933 L86.3171328,36.9084041 L84.1163891,36.9084041 L84.1163891,40.1151933 Z M102,57 L102,46.2449653 C102,43.833728 100.421218,42.2437415 98.0522112,42.2437415 L94.6652983,42.2437415 C92.2968472,42.2437415 90.6880774,43.833728 90.6880774,46.2449653 L90.6880774,46.925989 L92.8888211,46.925989 L92.8888211,46.1885392 C92.8888211,44.9399026 93.6773793,44.1454681 94.9190808,44.1454681 L97.7689967,44.1454681 C99.0379089,44.1454681 99.8275778,44.9399026 99.8275778,46.1885392 L99.8275778,49.4528719 C99.1506394,48.9405677 98.2765616,48.6288276 97.2614318,48.6288276 L94.1016458,48.6288276 C91.7326394,48.6288276 90.1244249,50.218814 90.1244249,52.6300513 L90.1244249,52.9987762 C90.1244249,55.3831972 91.7326394,57 94.1016458,57 L97.2614318,57 C98.4176135,57 99.4044219,56.6312751 100.082471,55.9502514 L100.309043,57 L102,57 Z M97.7689967,55.0993908 L94.3554283,55.0993908 C93.1142821,55.0993908 92.3246133,54.3038389 92.3246133,53.028386 L92.3246133,52.431722 C92.3246133,51.1830855 93.1142821,50.3875336 94.3554283,50.3875336 L97.7689967,50.3875336 C98.982932,50.3875336 99.7442794,51.098167 99.8275778,52.2613265 L99.8275778,53.2255979 C99.7442794,54.3898747 98.982932,55.0993908 97.7689967,55.0993908 L97.7689967,55.0993908 Z" id="Fill-1" fill="#A0ADA2"></path>
                    <path d="M149,29 L134.688683,0 L126.976918,0 L112.665601,29 L120.914514,29 L123.217406,24.0285877 L137.949489,24.0285877 L140.290298,29 L149,29 Z M134.496468,16.5711849 L126.708344,16.5711849 L130.582658,8.20285877 L134.496468,16.5711849 Z M100.541847,29 L108.215169,29 L108.215169,0 L100.541847,0 L90.4123877,13.6297328 L80.2824019,0 L72.6090798,0 L72.6090798,29 L80.2824019,29 L80.2824019,12.9252172 L90.4123877,26.5140095 L100.541847,12.9252172 L100.541847,29 Z M66.26441,22.3716398 L66.26441,6.62836023 C66.26441,2.65145781 63.8087995,0 58.591088,0 L41.901257,0 C36.6830189,0 34.2274083,2.65145781 34.2274083,6.62836023 L34.2274083,22.3716398 C34.2274083,26.3485422 36.6830189,29 41.901257,29 L58.591088,29 C63.8087995,29 66.26441,26.3485422 66.26441,22.3716398 L66.26441,22.3716398 Z M58.591088,20.9222368 C58.591088,21.3356209 58.3988731,21.5425972 58.0160233,21.5425972 L42.4763217,21.5425972 C42.0924186,21.5425972 41.901257,21.3356209 41.901257,20.9222368 L41.901257,8.07890041 C41.901257,7.66437913 42.0924186,7.4574028 42.4763217,7.4574028 L58.0160233,7.4574028 C58.3988731,7.4574028 58.591088,7.66437913 58.591088,8.07890041 L58.591088,20.9222368 Z M32.0756553,29 L17.3804352,14.085763 L31.3083757,0 L20.8334564,0 L10.4965106,10.77073 L7.67279544,10.77073 L7.67279544,0 L0,0 L0,29 L7.67279544,29 L7.67279544,18.22927 L10.6934649,18.22927 L21.0256713,29 L32.0756553,29 Z" id="Fill-2" fill="#C20E1A"></path>
                </g>
            </g>
        </g>
    </g>
</svg>