<?xml version="1.0" encoding="UTF-8" standalone="no"?>
<svg width="202px" height="19px" viewBox="0 0 202 19" version="1.1" xmlns="http://www.w3.org/2000/svg" xmlns:xlink="http://www.w3.org/1999/xlink" xmlns:sketch="http://www.bohemiancoding.com/sketch/ns">
    <!-- Generator: Sketch 3.2.2 (9983) - http://www.bohemiancoding.com/sketch -->
    <title>logo-koma-modular-inline-white</title>
    <desc>Created with Sketch.</desc>
    <defs></defs>
    <g id="Výrobková-řada-single-(není-hotovo)" stroke="none" stroke-width="1" fill="none" fill-rule="evenodd" sketch:type="MSPage">
        <g id="Výrobková-řada-single-1680px" sketch:type="MSArtboardGroup" transform="translate(-193.000000, -4413.000000)">
            <g id="Footer-Part-B" sketch:type="MSLayerGroup" transform="translate(1.000000, 4360.000000)">
                <g id="logo-koma-modular-inline-white" transform="translate(192.000000, 53.000000)" sketch:type="MSShapeGroup">
                    <path d="M21.9123768,18.4590991 L11.9887711,9.00720721 L21.3945739,0.08 L14.320662,0.08 L7.34028169,6.90594595 L5.43266197,6.90594595 L5.43266197,0.08 L0.251077465,0.08 L0.251077465,18.4590991 L5.43266197,18.4590991 L5.43266197,11.6327928 L7.47328873,11.6327928 L14.4508239,18.4590991 L21.9123768,18.4590991 L21.9123768,18.4590991 Z M39.8196056,13.3387387 C39.8196056,13.6010811 39.6894437,13.7326126 39.4308979,13.7326126 L28.9365,13.7326126 C28.677243,13.7326126 28.5477923,13.6010811 28.5477923,13.3387387 L28.5477923,5.19927928 C28.5477923,4.9372973 28.677243,4.80612613 28.9365,4.80612613 L39.4308979,4.80612613 C39.6894437,4.80612613 39.8196056,4.9372973 39.8196056,5.19927928 L39.8196056,13.3387387 L39.8196056,13.3387387 Z M45.0011901,14.2569369 L45.0011901,4.28 C45.0011901,1.76 43.3428697,0.08 39.8196056,0.08 L28.5477923,0.08 C25.0238169,0.08 23.3654965,1.76 23.3654965,4.28 L23.3654965,14.2569369 C23.3654965,16.7783784 25.0238169,18.4590991 28.5477923,18.4590991 L39.8196056,18.4590991 C43.3428697,18.4590991 45.0011901,16.7783784 45.0011901,14.2569369 L45.0011901,14.2569369 Z M68.1490387,18.4590991 L73.3313345,18.4590991 L73.3313345,0.08 L68.1490387,0.08 L61.3087782,8.71783784 L54.4674507,0.08 L49.2855106,0.08 L49.2855106,18.4590991 L54.4674507,18.4590991 L54.4674507,8.27171171 L61.3087782,16.8832432 L68.1490387,8.27171171 L68.1490387,18.4590991 L68.1490387,18.4590991 Z M91.0795951,10.581982 L85.8197711,10.581982 L88.4368803,5.27855856 L91.0795951,10.581982 L91.0795951,10.581982 Z M100.874461,18.4590991 L91.209757,0.08 L86.0015,0.08 L76.3360845,18.4590991 L81.9077993,18.4590991 L83.461919,15.3077477 L93.4114859,15.3077477 L94.9922782,18.4590991 L100.874461,18.4590991 L100.874461,18.4590991 Z" id="Fill-2" fill="#F2F2F2"></path>
                    <path d="M201.75137,5.54409606 L199.195066,5.54409606 C198.089572,5.54409606 197.155529,5.91647059 196.516573,6.58703758 L196.34464,5.54409606 L194.869682,5.54409606 L194.869682,18.4590991 L196.787031,18.4590991 L196.787031,9.19463541 C196.787031,7.9774636 197.548658,7.20782449 198.752675,7.20782449 L201.75137,7.20782449 L201.75137,5.54409606 L201.75137,5.54409606 Z M187.250515,16.7948826 L184.276451,16.7948826 C183.195105,16.7948826 182.506888,16.0999136 182.506888,14.981814 L182.506888,14.4600992 C182.506888,13.3673776 183.195105,12.6719205 184.276451,12.6719205 L187.250515,12.6719205 C188.307713,12.6719205 188.970816,13.2927075 189.044709,14.311247 L189.044709,15.1555562 C188.970816,16.1740957 188.307713,16.7948826 187.250515,16.7948826 L187.250515,16.7948826 Z M190.937427,18.4590991 L190.937427,9.04627124 C190.937427,6.93501012 189.560992,5.54409606 187.496824,5.54409606 L184.546908,5.54409606 C182.482257,5.54409606 181.081192,6.93501012 181.081192,9.04627124 L181.081192,9.64168006 L182.99854,9.64168006 L182.99854,8.99600312 C182.99854,7.90328151 183.686757,7.20782449 184.768104,7.20782449 L187.250515,7.20782449 C188.356492,7.20782449 189.044709,7.90328151 189.044709,8.99600312 L189.044709,11.8525014 C188.455015,11.4054567 187.692906,11.1316662 186.808124,11.1316662 L184.055255,11.1316662 C181.990604,11.1316662 180.589539,12.5235564 180.589539,14.6338414 L180.589539,14.9569239 C180.589539,17.043295 181.990604,18.4590991 184.055255,18.4590991 L186.808124,18.4590991 C187.81606,18.4590991 188.675728,18.1360166 189.265904,17.5401197 L189.462469,18.4590991 L190.937427,18.4590991 L190.937427,18.4590991 Z M175.355225,18.4590991 L177.272091,18.4590991 L177.272091,0.08 L175.355225,0.08 L175.355225,18.4590991 Z M161.075565,14.7582916 C161.075565,16.9686249 162.55004,18.4590991 164.737363,18.4590991 L167.09662,18.4590991 C168.20308,18.4590991 169.137123,18.0862365 169.776078,17.4156695 L169.948012,18.4590991 L171.42297,18.4590991 L171.42297,5.54409606 L169.530252,5.54409606 L169.530252,14.981814 C169.456359,16.0999136 168.670101,16.7948826 167.539493,16.7948826 L164.958559,16.7948826 C163.754541,16.7948826 162.992431,16.0247555 162.992431,14.7831817 L162.992431,5.54409606 L161.075565,5.54409606 L161.075565,14.7582916 Z M155.741762,9.19463541 L155.741762,14.9569239 C155.668352,16.0745356 154.881611,16.7948826 153.751003,16.7948826 L151.170068,16.7948826 C149.96605,16.7948826 149.203941,15.9998654 149.203941,14.7831817 L149.203941,9.19463541 C149.203941,7.9774636 149.96605,7.20782449 151.170068,7.20782449 L153.751003,7.20782449 C154.955504,7.20782449 155.741762,7.9774636 155.741762,9.19463541 L155.741762,9.19463541 Z M157.634479,0.08 L155.741762,0.08 L155.741762,6.36400329 C155.102806,5.84180047 154.267287,5.54409606 153.308612,5.54409606 L150.948873,5.54409606 C148.762033,5.54409606 147.287075,7.0091922 147.287075,9.24441549 L147.287075,14.7582916 C147.287075,16.9686249 148.762033,18.4590991 150.948873,18.4590991 L153.308612,18.4590991 C154.414589,18.4590991 155.348633,18.0862365 155.987588,17.4156695 L156.159522,18.4590991 L157.634479,18.4590991 L157.634479,0.08 L157.634479,0.08 Z M144.338125,14.7582916 L144.338125,9.24441549 C144.338125,7.0091922 142.888281,5.54409606 140.675844,5.54409606 L137.653001,5.54409606 C135.465195,5.54409606 133.99072,7.0091922 133.99072,9.24441549 L133.99072,14.7582916 C133.99072,16.9686249 135.465195,18.4590991 137.653001,18.4590991 L140.675844,18.4590991 C142.888281,18.4590991 144.338125,16.9686249 144.338125,14.7582916 L144.338125,14.7582916 Z M142.44589,14.7831817 C142.44589,15.9998654 141.68378,16.7948826 140.454648,16.7948826 L137.874196,16.7948826 C136.670179,16.7948826 135.907586,15.9998654 135.907586,14.7831817 L135.907586,9.19463541 C135.907586,7.9774636 136.670179,7.20782449 137.874196,7.20782449 L140.454648,7.20782449 C141.68378,7.20782449 142.44589,7.9774636 142.44589,9.19463541 L142.44589,14.7831817 L142.44589,14.7831817 Z M128.780554,18.4590991 L130.795944,18.4590991 L130.795944,1.07364948 L128.829816,1.07364948 L123.397972,11.3556766 L117.966128,1.07364948 L116,1.07364948 L116,18.4590991 L118.039537,18.4590991 L118.039537,5.12194144 L123.397972,15.2800064 L128.780554,5.12194144 L128.780554,18.4590991 L128.780554,18.4590991 Z" id="Fill-3" fill="#FFFFFF"></path>
                </g>
            </g>
        </g>
    </g>
</svg>