<?xml version="1.0" encoding="UTF-8" standalone="no"?>
<svg width="500px" height="196px" viewBox="0 0 500 196" version="1.1" xmlns="http://www.w3.org/2000/svg" xmlns:xlink="http://www.w3.org/1999/xlink" xmlns:sketch="http://www.bohemiancoding.com/sketch/ns">
    <!-- Generator: Sketch 3.2.2 (9983) - http://www.bohemiancoding.com/sketch -->
    <title>logo KOMA Group</title>
    <desc>Created with Sketch.</desc>
    <defs></defs>
    <g id="Page-1" stroke="none" stroke-width="1" fill="none" fill-rule="evenodd" sketch:type="MSPage">
        <g id="logo-KOMA-Group" sketch:type="MSLayerGroup">
            <path d="M107.755282,90.2400714 L58.5352113,44.0189464 L105.184859,0.365857143 L70.1003521,0.365857143 L35.4788732,33.7450446 L26.0211268,33.7450446 L26.0211268,0.365857143 L0.320422535,0.365857143 L0.320422535,90.2400714 L26.0211268,90.2400714 L26.0211268,56.859125 L36.1390845,56.859125 L70.7447183,90.2400714 L107.755282,90.2400714 L107.755282,90.2400714 Z M196.565141,65.2017232 C196.565141,66.4875 195.922535,67.1295089 194.637324,67.1295089 L142.591549,67.1295089 C141.304577,67.1295089 140.663732,66.4875 140.663732,65.2017232 L140.663732,25.4024464 C140.663732,24.1184286 141.304577,23.4764196 142.591549,23.4764196 L194.637324,23.4764196 C195.922535,23.4764196 196.565141,24.1184286 196.565141,25.4024464 L196.565141,65.2017232 L196.565141,65.2017232 Z M222.267606,69.6957857 L222.267606,20.9101429 C222.267606,8.58357143 214.042254,0.365857143 196.565141,0.365857143 L140.663732,0.365857143 C123.184859,0.365857143 114.961268,8.58357143 114.961268,20.9101429 L114.961268,69.6957857 C114.961268,82.0223571 123.184859,90.2400714 140.663732,90.2400714 L196.565141,90.2400714 C214.042254,90.2400714 222.267606,82.0223571 222.267606,69.6957857 L222.267606,69.6957857 Z M337.072183,90.2400714 L362.776408,90.2400714 L362.776408,0.365857143 L337.072183,0.365857143 L303.147887,42.6082857 L269.21831,0.365857143 L243.515845,0.365857143 L243.515845,90.2400714 L269.21831,90.2400714 L269.21831,40.4219375 L303.147887,82.5359643 L337.072183,40.4219375 L337.072183,90.2400714 L337.072183,90.2400714 Z M450.801056,51.7212946 L424.713028,51.7212946 L437.691901,25.7876518 L450.801056,51.7212946 L450.801056,51.7212946 Z M499.378521,90.2400714 L451.443662,0.365857143 L425.612676,0.365857143 L377.679577,90.2400714 L405.309859,90.2400714 L413.021127,74.8318571 L462.367958,74.8318571 L470.207746,90.2400714 L499.378521,90.2400714 L499.378521,90.2400714 Z" id="Fill-1" fill="#C5222A" sketch:type="MSShapeGroup"></path>
            <path d="M47.0545775,177.815366 L41.4788732,177.815366 L40.6690141,174.130411 C38.3292254,176.466268 34.9137324,177.815366 30.9559859,177.815366 L13.5070423,177.815366 C5.50176056,177.815366 0.105633803,172.422491 0.105633803,164.424643 L0.105633803,128.303286 C0.105633803,120.217491 5.50176056,114.914321 13.5070423,114.914321 L33.653169,114.914321 C41.6584507,114.914321 47.0545775,120.217491 47.0545775,128.303286 L47.0545775,134.232634 L39.5897887,134.232634 L39.5897887,128.574161 C39.5897887,124.169804 36.8010563,121.38542 32.3943662,121.38542 L14.7658451,121.38542 C10.3591549,121.38542 7.57042254,124.169804 7.57042254,128.574161 L7.57042254,164.065821 C7.57042254,168.470179 10.3591549,171.346027 14.7658451,171.346027 L32.3943662,171.346027 C36.8010563,171.346027 39.5897887,168.470179 39.5897887,164.065821 L39.5897887,152.295071 L19.8028169,152.295071 L19.8028169,145.825732 L47.0545775,145.825732 L47.0545775,177.815366" id="Fill-2" fill="#A0ADA2" sketch:type="MSShapeGroup"></path>
            <path d="M86.8890845,137.108482 L75.915493,137.108482 C71.5088028,137.108482 68.7200704,139.894625 68.7200704,144.297223 L68.7200704,177.815366 L61.7042254,177.815366 L61.7042254,131.089429 L67.1003521,131.089429 L67.7306338,134.864089 C70.068662,132.436768 73.4876761,131.089429 77.5352113,131.089429 L86.8890845,131.089429 L86.8890845,137.108482" id="Fill-3" fill="#A0ADA2" sketch:type="MSShapeGroup"></path>
            <path d="M119.448944,177.815366 L108.387324,177.815366 C100.382042,177.815366 94.9859155,172.422491 94.9859155,164.424643 L94.9859155,144.478393 C94.9859155,136.390839 100.382042,131.089429 108.387324,131.089429 L119.448944,131.089429 C127.544014,131.089429 132.852113,136.390839 132.852113,144.478393 L132.852113,164.424643 C132.852113,172.422491 127.544014,177.815366 119.448944,177.815366 L119.448944,177.815366 Z M125.926056,144.297223 C125.926056,139.894625 123.137324,137.108482 118.640845,137.108482 L109.195423,137.108482 C104.790493,137.108482 102.001761,139.894625 102.001761,144.297223 L102.001761,164.516107 C102.001761,168.918705 104.790493,171.794554 109.195423,171.794554 L118.640845,171.794554 C123.137324,171.794554 125.926056,168.918705 125.926056,164.516107 L125.926056,144.297223 L125.926056,144.297223 Z" id="Fill-4" fill="#A0ADA2" sketch:type="MSShapeGroup"></path>
            <path d="M151.667254,131.089429 L151.667254,164.516107 C151.667254,169.008411 154.455986,171.794554 158.862676,171.794554 L168.306338,171.794554 C172.443662,171.794554 175.322183,169.277527 175.591549,165.23375 L175.591549,131.089429 L182.515845,131.089429 L182.515845,177.815366 L177.119718,177.815366 L176.491197,174.040705 C174.153169,176.466268 170.734155,177.815366 166.68662,177.815366 L158.052817,177.815366 C150.047535,177.815366 144.651408,172.422491 144.651408,164.424643 L144.651408,131.089429 L151.667254,131.089429" id="Fill-5" fill="#A0ADA2" sketch:type="MSShapeGroup"></path>
            <path d="M195.126761,131.089429 L200.522887,131.089429 L201.153169,134.864089 C203.491197,132.436768 206.908451,131.089429 210.955986,131.089429 L219.589789,131.089429 C227.684859,131.089429 232.991197,136.390839 232.991197,144.478393 L232.991197,164.424643 C232.991197,172.422491 227.684859,177.815366 219.589789,177.815366 L210.955986,177.815366 C207.448944,177.815366 204.390845,176.826848 202.142606,174.939518 L202.142606,195.786339 L195.126761,195.786339 L195.126761,131.089429 L195.126761,131.089429 Z M226.066901,144.297223 C226.066901,139.894625 223.278169,137.108482 218.78169,137.108482 L209.338028,137.108482 C205.109155,137.108482 202.411972,139.625509 202.142606,143.669286 L202.142606,165.145804 C202.411972,169.187821 205.109155,171.794554 209.338028,171.794554 L218.78169,171.794554 C223.278169,171.794554 226.066901,168.918705 226.066901,164.516107 L226.066901,144.297223 L226.066901,144.297223 Z" id="Fill-6" fill="#A0ADA2" sketch:type="MSShapeGroup"></path>
        </g>
    </g>
</svg>