<?xml version="1.0" encoding="UTF-8" standalone="no"?><!DOCTYPE svg PUBLIC "-//W3C//DTD SVG 1.1//EN" "http://www.w3.org/Graphics/SVG/1.1/DTD/svg11.dtd"><svg width="100%" height="100%" viewBox="0 0 159 58" version="1.1" xmlns="http://www.w3.org/2000/svg" xmlns:xlink="http://www.w3.org/1999/xlink" xml:space="preserve" xmlns:serif="http://www.serif.com/" style="fill-rule:evenodd;clip-rule:evenodd;stroke-linejoin:round;stroke-miterlimit:2;"><g id="LOGO-KOMA-Facade"><path id="Fill-2" d="M34,29l-15.577,-14.914l14.764,-14.086l-11.104,0l-10.956,10.771l-2.993,0l0,-10.771l-8.134,0l0,29l8.134,0l0,-10.771l3.202,0l10.951,10.771l11.713,0Zm29,-8.618c0,0.412 -0.207,0.618 -0.621,0.618l-16.758,0c-0.415,0 -0.621,-0.206 -0.621,-0.618l0,-12.764c0,-0.412 0.206,-0.618 0.621,-0.618l16.758,0c0.414,0 0.621,0.206 0.621,0.618l0,12.764Zm8,1.989l0,-15.742c0,-3.977 -2.606,-6.629 -8.144,-6.629l-17.712,0c-5.538,0 -8.144,2.652 -8.144,6.629l0,15.742c0,3.977 2.606,6.629 8.144,6.629l17.712,0c5.538,0 8.144,-2.652 8.144,-6.629Zm35.81,6.629l8.19,0l0,-29l-8.19,0l-10.809,13.63l-10.811,-13.63l-8.19,0l0,29l8.19,0l0,-16.075l10.811,13.589l10.809,-13.589l0,16.075Zm36.19,-13l-8,0l3.98,-8l4.02,8Zm16,13l-15.361,-29l-8.278,0l-15.361,29l8.854,0l2.472,-4.972l15.813,0l2.513,4.972l9.348,0Z" style="fill:#c4232a;"/><g><path d="M12.075,45.655c0,1.447 -0.915,2.362 -2.362,2.362l-7.263,0l0,-8.591l7.263,0c1.447,0 2.362,0.915 2.362,2.362l0,3.867Zm2.451,0.089l0,-4.045c0,-2.657 -1.772,-4.399 -4.399,-4.399l-10.127,0l0,20.667l2.45,0l0,-7.824l7.677,0c2.627,0 4.399,-1.772 4.399,-4.399Z" style="fill:#9faca2;fill-rule:nonzero;"/><path d="M25.892,42.614l-3.07,0c-1.329,0 -2.451,0.443 -3.218,1.24l-0.207,-1.24l-1.771,0l0,15.353l2.303,0l0,-11.013c0,-1.446 0.915,-2.362 2.361,-2.362l3.602,0l0,-1.978Z" style="fill:#9faca2;fill-rule:nonzero;"/><path d="M37.82,53.597c0,1.447 -0.915,2.392 -2.391,2.392l-3.1,0c-1.447,0 -2.362,-0.945 -2.362,-2.392l0,-6.643c0,-1.446 0.915,-2.362 2.362,-2.362l3.1,0c1.476,0 2.391,0.916 2.391,2.362l0,6.643Zm2.273,-0.029l0,-6.555c0,-2.657 -1.742,-4.399 -4.399,-4.399l-3.631,0c-2.628,0 -4.399,1.742 -4.399,4.399l0,6.555c0,2.627 1.771,4.399 4.399,4.399l3.631,0c2.657,0 4.399,-1.772 4.399,-4.399Z" style="fill:#9faca2;fill-rule:nonzero;"/><path d="M50.486,57.967l5.875,-15.353l-2.303,0l-4.871,12.784l-4.872,-12.784l-2.45,0l5.875,15.353l2.746,0Z" style="fill:#9faca2;fill-rule:nonzero;"/><path d="M68.289,53.597c0,1.447 -0.916,2.392 -2.392,2.392l-3.1,0c-1.447,0 -2.362,-0.945 -2.362,-2.392l0,-6.643c0,-1.446 0.915,-2.362 2.362,-2.362l3.1,0c1.476,0 2.392,0.916 2.392,2.362l0,6.643Zm2.273,-0.029l0,-6.555c0,-2.657 -1.742,-4.399 -4.399,-4.399l-3.632,0c-2.627,0 -4.399,1.742 -4.399,4.399l0,6.555c0,2.627 1.772,4.399 4.399,4.399l3.632,0c2.657,0 4.399,-1.772 4.399,-4.399Z" style="fill:#9faca2;fill-rule:nonzero;"/><path d="M73.514,55.989l0,1.978l11.987,0l0,-1.978l-9.152,0l9.152,-11.397l0,-1.978l-11.987,0l0,1.978l9.153,0l-9.153,11.397Z" style="fill:#9faca2;fill-rule:nonzero;"/><path d="M112.574,41.699c0,-2.657 -1.771,-4.399 -4.399,-4.399l-10.569,0l0,20.667l10.717,0c2.627,0 4.399,-1.772 4.399,-4.399l0,-1.919c0,-2.008 -1.063,-3.484 -2.687,-4.045c1.535,-0.591 2.539,-2.067 2.539,-4.015l0,-1.89Zm-2.303,11.751c0,1.446 -0.915,2.391 -2.361,2.391l-7.854,0l0,-7.174l7.854,0c1.446,0 2.361,0.915 2.361,2.391l0,2.392Zm-0.147,-9.271c0,1.447 -0.915,2.362 -2.362,2.362l-7.706,0l0,-7.115l7.706,0c1.447,0 2.362,0.915 2.362,2.362l0,2.391Z" style="fill:#9faca2;fill-rule:nonzero;"/><path d="M124.236,42.614l-3.07,0c-1.329,0 -2.451,0.443 -3.218,1.24l-0.207,-1.24l-1.771,0l0,15.353l2.302,0l0,-11.013c0,-1.446 0.916,-2.362 2.362,-2.362l3.602,0l0,-1.978Z" style="fill:#9faca2;fill-rule:nonzero;"/><path d="M138.732,57.967l0,-10.954c0,-2.657 -1.742,-4.399 -4.399,-4.399l-2.834,0c-1.329,0 -2.45,0.443 -3.218,1.24l-0.207,-1.24l-1.771,0l0,15.353l2.303,0l0,-11.013c0,-1.446 0.915,-2.362 2.362,-2.362l3.1,0c1.476,0 2.391,0.916 2.391,2.362l0,11.013l2.273,0Z" style="fill:#9faca2;fill-rule:nonzero;"/><path d="M152.727,53.597c0,1.447 -0.916,2.392 -2.392,2.392l-3.1,0c-1.446,0 -2.362,-0.945 -2.362,-2.392l0,-6.643c0,-1.446 0.916,-2.362 2.362,-2.362l3.1,0c1.476,0 2.392,0.916 2.392,2.362l0,6.643Zm2.273,-0.029l0,-6.555c0,-2.657 -1.742,-4.399 -4.399,-4.399l-3.631,0c-2.628,0 -4.4,1.742 -4.4,4.399l0,6.555c0,2.627 1.772,4.399 4.4,4.399l3.631,0c2.657,0 4.399,-1.772 4.399,-4.399Z" style="fill:#9faca2;fill-rule:nonzero;"/></g></g></svg>