<?xml version="1.0" standalone="no"?><!DOCTYPE svg PUBLIC "-//W3C//DTD SVG 1.1//EN" "http://www.w3.org/Graphics/SVG/1.1/DTD/svg11.dtd"><svg width="100%" height="100%" viewBox="0 0 277 20" version="1.1" xmlns="http://www.w3.org/2000/svg" xmlns:xlink="http://www.w3.org/1999/xlink" xml:space="preserve" style="fill-rule:evenodd;clip-rule:evenodd;stroke-linejoin:round;stroke-miterlimit:1.41421;"><g id="logo-koma-administrace"><path id="KOMA-Simple" d="M22.1968,19.5676l-10.1689,-9.45152l9.63834,-8.92686l-7.2488,0l-7.15296,6.82568l-1.95478,0l0,-6.82568l-5.30969,0l0,18.3784l5.30969,0l0,-6.82604l2.09108,0l7.15004,6.82604l7.64603,0ZM40.5468,14.4474c0,0.262332 -0.13338,0.393858 -0.398318,0.393858l-10.7539,0c-0.265667,0 -0.398318,-0.131526 -0.398318,-0.393858l0,-8.13914c0,-0.261972 0.132651,-0.393138 0.398318,-0.393138l10.7539,0c0.264938,0 0.398318,0.131166 0.398318,0.393138l0,8.13914ZM45.8565,15.3656l0,-9.97655c0,-2.5199 -1.69932,-4.19984 -5.30969,-4.19984l-11.5505,0c-3.6111,0 -5.31042,1.67993 -5.31042,4.19984l0,9.97655c0,2.52134 1.69932,4.202 5.31042,4.202l11.5505,0c3.61037,0 5.30969,-1.68065 5.30969,-4.202ZM69.5766,19.5676l5.31042,0l0,-18.3784l-5.31042,0l-7.00937,8.6375l-7.01047,-8.6375l-5.31005,0l0,18.3784l5.31005,0l0,-10.187l7.01047,8.61119l7.00937,-8.61119l0,10.187ZM93.0741,11.6908l-5.38986,0l2.68181,-5.30322l2.70805,5.30322ZM103.111,19.5676l-9.90365,-18.3784l-5.33702,0l-9.90438,18.3784l5.70947,0l1.59254,-3.15123l10.1956,0l1.61987,3.15123l6.02761,0Z" style="fill:#c20e1a;"/><g id="Administrace"><g><path d="M131.397,2.15893l-2.51182,0l-6.4412,17.4086l2.11391,0l1.64139,-4.47651l7.80902,0l1.64139,4.47651l2.16365,0l-6.41633,-17.4086ZM130.104,4.34744l3.35738,8.95301l-6.71476,0l3.35738,-8.95301Z" style="fill:#b5bbb4;fill-rule:nonzero;"/><path d="M149.9,1.16415l-1.91495,0l0,6.29198c-0.646607,-0.522259 -1.49217,-0.820693 -2.46208,-0.820693l-2.38747,0c-2.21338,0 -3.70555,1.4673 -3.70555,3.70555l0,5.52103c0,2.21338 1.49217,3.70555 3.70555,3.70555l2.38747,0c1.11913,0 2.06417,-0.373042 2.71077,-1.04452l0.174086,1.04452l1.49217,0l0,-18.4034ZM147.985,10.2912l0,5.76972c-0.0746085,1.11913 -0.870432,1.84034 -2.01443,1.84034l-2.6113,0c-1.2186,0 -1.98956,-0.795824 -1.98956,-2.01443l0,-5.59563c0,-1.2186 0.770954,-1.98956 1.98956,-1.98956l2.6113,0c1.2186,0 2.01443,0.770954 2.01443,1.98956Z" style="fill:#b5bbb4;fill-rule:nonzero;"/><path d="M162.808,19.5676l0,-9.27632c0,-1.2186 0.795824,-1.98956 2.01443,-1.98956l1.44243,0c1.2186,0 1.98956,0.770954 1.98956,1.98956l0,9.27632l1.93982,0l0,-9.22658c0,-2.23825 -1.49217,-3.70555 -3.70555,-3.70555l-1.29321,0c-1.31808,0 -2.41234,0.547129 -3.03408,1.4673c-0.646607,-0.920171 -1.71599,-1.4673 -3.05895,-1.4673l-1.2186,0c-1.11913,0 -2.06417,0.373042 -2.71077,1.04452l-0.174086,-1.04452l-1.49217,0l0,12.9321l1.93982,0l0,-9.27632c0,-1.2186 0.770954,-1.98956 1.98956,-1.98956l1.44243,0c1.24347,0 2.01443,0.770954 2.01443,1.98956l0,9.27632l1.91495,0Z" style="fill:#b5bbb4;fill-rule:nonzero;"/><path d="M173.8,19.5676l1.93982,0l0,-12.9321l-1.93982,0l0,12.9321ZM173.8,4.77022l1.93982,0l0,-2.81025l-1.93982,0l0,2.81025Z" style="fill:#b5bbb4;fill-rule:nonzero;"/><path d="M189.816,19.5676l0,-9.22658c0,-2.23825 -1.4673,-3.70555 -3.70555,-3.70555l-2.38747,0c-1.11913,0 -2.06417,0.373042 -2.71077,1.04452l-0.174086,-1.04452l-1.49217,0l0,12.9321l1.93982,0l0,-9.27632c0,-1.2186 0.770954,-1.98956 1.98956,-1.98956l2.6113,0c1.24347,0 2.01443,0.770954 2.01443,1.98956l0,9.27632l1.91495,0Z" style="fill:#b5bbb4;fill-rule:nonzero;"/><path d="M193.422,19.5676l1.93982,0l0,-12.9321l-1.93982,0l0,12.9321ZM193.422,4.77022l1.93982,0l0,-2.81025l-1.93982,0l0,2.81025Z" style="fill:#b5bbb4;fill-rule:nonzero;"/><path d="M205.707,12.2559l-3.13356,0c-1.09426,0 -1.7906,-0.696346 -1.7906,-1.81547l0,-0.348173c0,-1.09426 0.696346,-1.7906 1.7906,-1.7906l2.76051,0c1.11913,0 1.81547,0.696346 1.81547,1.7906l0,0.571998l1.91495,0l0,-0.522259c0,-2.11391 -1.39269,-3.5066 -3.5066,-3.5066l-3.20816,0c-2.08904,0 -3.5066,1.39269 -3.5066,3.5066l0,0.149217c0,2.08904 1.41756,3.5066 3.5066,3.5066l3.10869,0c1.11913,0 1.81547,0.696346 1.81547,1.81547l0,0.47252c0,1.09426 -0.696346,1.81547 -1.81547,1.81547l-3.00921,0c-1.09426,0 -1.7906,-0.696346 -1.7906,-1.81547l0,-0.571998l-1.93982,0l0,0.547129c0,2.08904 1.41756,3.5066 3.5066,3.5066l3.48173,0c2.08904,0 3.48173,-1.41756 3.48173,-3.5066l0,-0.298434c0,-2.11391 -1.39269,-3.5066 -3.48173,-3.5066Z" style="fill:#b5bbb4;fill-rule:nonzero;"/><path d="M210.806,8.30169l3.23303,0l0,11.2659l1.93982,0l0,-11.2659l3.23303,0l0,-1.66626l-3.23303,0l0,-4.52625l-1.93982,0.547129l0,3.97912l-3.23303,0l0,1.66626Z" style="fill:#b5bbb4;fill-rule:nonzero;"/><path d="M228.04,6.63544l-2.58643,0c-1.11913,0 -2.06417,0.373042 -2.71077,1.04452l-0.174086,-1.04452l-1.49217,0l0,12.9321l1.93982,0l0,-9.27632c0,-1.2186 0.770954,-1.98956 1.98956,-1.98956l3.03408,0l0,-1.66626Z" style="fill:#b5bbb4;fill-rule:nonzero;"/><path d="M239.754,19.5676l0,-9.42553c0,-2.11391 -1.39269,-3.5066 -3.48173,-3.5066l-2.98434,0c-2.08904,0 -3.5066,1.39269 -3.5066,3.5066l0,0.596868l1.93982,0l0,-0.646607c0,-1.09426 0.696346,-1.7906 1.7906,-1.7906l2.51182,0c1.11913,0 1.81547,0.696346 1.81547,1.7906l0,2.85999c-0.596868,-0.447651 -1.36782,-0.721215 -2.26312,-0.721215l-2.78538,0c-2.08904,0 -3.5066,1.39269 -3.5066,3.5066l0,0.323303c0,2.08904 1.41756,3.5066 3.5066,3.5066l2.78538,0c1.01965,0 1.89008,-0.323303 2.48695,-0.920171l0.198956,0.920171l1.49217,0ZM236.023,17.9013l-3.00921,0c-1.09426,0 -1.7906,-0.696346 -1.7906,-1.81547l0,-0.522259c0,-1.09426 0.696346,-1.7906 1.7906,-1.7906l3.00921,0c1.06939,0 1.74086,0.621737 1.81547,1.64139l0,0.845562c-0.0746085,1.01965 -0.746085,1.64139 -1.81547,1.64139Z" style="fill:#b5bbb4;fill-rule:nonzero;"/><path d="M251.666,15.2154l0,0.671476c0,1.2186 -0.770954,2.01443 -2.01443,2.01443l-2.6113,0c-1.2186,0 -1.98956,-0.795824 -1.98956,-2.01443l0,-5.59563c0,-1.2186 0.770954,-1.98956 1.98956,-1.98956l2.6113,0c1.24347,0 2.01443,0.770954 2.01443,1.98956l0,0.696346l1.91495,0l0,-0.646607c0,-2.23825 -1.4673,-3.70555 -3.70555,-3.70555l-3.05895,0c-2.21338,0 -3.70555,1.4673 -3.70555,3.70555l0,5.52103c0,2.21338 1.49217,3.70555 3.70555,3.70555l3.05895,0c2.23825,0 3.70555,-1.49217 3.70555,-3.70555l0,-0.646607l-1.91495,0Z" style="fill:#b5bbb4;fill-rule:nonzero;"/><path d="M265.078,15.4641l0,0.422781c0,1.2186 -0.770954,2.01443 -2.01443,2.01443l-2.6113,0c-1.2186,0 -1.98956,-0.795824 -1.98956,-2.01443l0,-2.16365l8.53023,0l0,-3.38225c0,-2.23825 -1.4673,-3.70555 -3.70555,-3.70555l-3.05895,0c-2.21338,0 -3.70555,1.4673 -3.70555,3.70555l0,5.52103c0,2.21338 1.49217,3.70555 3.70555,3.70555l3.05895,0c2.23825,0 3.70555,-1.49217 3.70555,-3.70555l0,-0.397912l-1.91495,0ZM258.463,10.2912c0,-1.2186 0.770954,-1.98956 1.98956,-1.98956l2.6113,0c1.24347,0 2.01443,0.770954 2.01443,1.98956l0,1.89008l-6.61528,0l0,-1.89008Z" style="fill:#b5bbb4;fill-rule:nonzero;"/></g></g></g></svg>