<?xml version="1.0" encoding="UTF-8"?>
<svg width="203px" height="19px" viewBox="0 0 203 19" version="1.1" xmlns="http://www.w3.org/2000/svg" xmlns:xlink="http://www.w3.org/1999/xlink">
    <!-- Generator: Sketch 48.2 (47327) - http://www.bohemiancoding.com/sketch -->
    <title>logo-koma-facade-inline-white</title>
    <desc>Created with Sketch.</desc>
    <defs></defs>
    <g id="Footer-Part-B" stroke="none" stroke-width="1" fill="none" fill-rule="evenodd" transform="translate(-192.000000, -53.000000)">
        <g id="logo-koma-facade-inline-white" transform="translate(192.000000, 53.000000)">
            <path d="M21.4655769,18.08 L11.7466619,8.8230689 L20.9584546,0.08 L14.0304537,0.08 L7.19405521,6.7651496 L5.32578328,6.7651496 L5.32578328,0.08 L0.251077465,0.08 L0.251077465,18.08 L5.32578328,18.08 L5.32578328,11.3944975 L7.32431877,11.3944975 L14.1579309,18.08 L21.4655769,18.08 L21.4655769,18.08 Z M39.0034398,13.0652555 C39.0034398,13.3221866 38.8759626,13.4510051 38.6227498,13.4510051 L28.3448161,13.4510051 C28.0909066,13.4510051 27.964126,13.3221866 27.964126,13.0652555 L27.964126,5.09368574 C27.964126,4.83710756 28.0909066,4.70864201 28.3448161,4.70864201 L38.6227498,4.70864201 C38.8759626,4.70864201 39.0034398,4.83710756 39.0034398,5.09368574 L39.0034398,13.0652555 L39.0034398,13.0652555 Z M44.0781456,13.9645143 L44.0781456,4.1933681 C44.0781456,1.72534724 42.4540307,0.08 39.0034398,0.08 L27.964126,0.08 C24.5128385,0.08 22.8887236,1.72534724 22.8887236,4.1933681 L22.8887236,13.9645143 C22.8887236,16.4339469 24.5128385,18.08 27.964126,18.08 L39.0034398,18.08 C42.4540307,18.08 44.0781456,16.4339469 44.0781456,13.9645143 L44.0781456,13.9645143 Z M66.7485318,18.08 L71.8239342,18.08 L71.8239342,0.08 L66.7485318,0.08 L60.0493628,8.53966825 L53.349149,0.08 L48.2740949,0.08 L48.2740949,18.08 L53.349149,18.08 L53.349149,8.10274421 L60.0493628,16.5366488 L66.7485318,8.10274421 L66.7485318,18.08 L66.7485318,18.08 Z M89.2061077,10.3653614 L84.0547763,10.3653614 L86.6179033,5.17132975 L89.2061077,10.3653614 L89.2061077,10.3653614 Z M98.7989387,18.08 L89.3335849,0.08 L84.2327567,0.08 L74.7667063,18.08 L80.2234953,18.08 L81.7455588,14.9936504 L91.4898995,14.9936504 L93.0380853,18.08 L98.7989387,18.08 L98.7989387,18.08 Z" id="Fill-2" fill="#F1F1F1"></path>
            <path d="M112,18 L112,0 L123.108571,0 L123.108571,1.85142857 L114.134286,1.85142857 L114.134286,8.56285714 L121.822857,8.56285714 L121.822857,10.4142857 L114.134286,10.4142857 L114.134286,18 L112,18 Z M132.365714,0 L139,18 L136.762857,18 L135.065714,13.3714286 L126.991429,13.3714286 L125.294286,18 L123.108571,18 L129.768571,0 L132.365714,0 Z M131.028571,2.26285714 L127.557143,11.52 L134.5,11.52 L131.028571,2.26285714 Z M154.222857,5.78571429 L152.088571,5.78571429 L152.088571,3.90857143 C152.088571,2.64857143 151.291429,1.85142857 150.031429,1.85142857 L144.991429,1.85142857 C143.731429,1.85142857 142.934286,2.64857143 142.934286,3.90857143 L142.934286,14.0657143 C142.934286,15.3257143 143.731429,16.1485714 144.991429,16.1485714 L150.031429,16.1485714 C151.291429,16.1485714 152.088571,15.3257143 152.088571,14.0657143 L152.088571,12.2142857 L154.222857,12.2142857 L154.222857,14.1685714 C154.222857,16.4571429 152.68,18 150.391429,18 L144.631429,18 C142.342857,18 140.8,16.4571429 140.8,14.1685714 L140.8,3.83142857 C140.8,1.51714286 142.342857,0 144.631429,0 L150.391429,0 C152.68,0 154.222857,1.51714286 154.222857,3.83142857 L154.222857,5.78571429 Z M165.28,0 L171.914286,18 L169.677143,18 L167.98,13.3714286 L159.905714,13.3714286 L158.208571,18 L156.022857,18 L162.682857,0 L165.28,0 Z M163.942857,2.26285714 L160.471429,11.52 L167.414286,11.52 L163.942857,2.26285714 Z M185.002857,14.0657143 L185.002857,3.90857143 C185.002857,2.64857143 184.205714,1.85142857 182.945714,1.85142857 L175.848571,1.85142857 L175.848571,16.1485714 L182.945714,16.1485714 C184.205714,16.1485714 185.002857,15.3257143 185.002857,14.0657143 Z M187.137143,14.1685714 C187.137143,16.4571429 185.594286,18 183.305714,18 L173.714286,18 L173.714286,0 L183.305714,0 C185.594286,0 187.137143,1.51714286 187.137143,3.83142857 L187.137143,14.1685714 Z M190.737143,18 L190.737143,0 L202.36,0 L202.36,1.85142857 L192.871429,1.85142857 L192.871429,8.04857143 L201.074286,8.04857143 L201.074286,9.9 L192.871429,9.9 L192.871429,16.1485714 L202.36,16.1485714 L202.36,18 L190.737143,18 Z" id="FACADE" fill="#FFFFFF"></path>
        </g>
    </g>
</svg>