<?xml version="1.0" encoding="UTF-8"?>
<svg width="191px" height="19px" viewBox="0 0 191 19" version="1.1" xmlns="http://www.w3.org/2000/svg" xmlns:xlink="http://www.w3.org/1999/xlink">
    <!-- Generator: Sketch 47.1 (45422) - http://www.bohemiancoding.com/sketch -->
    <title>logo-koma-facade-inline-white</title>
    <desc>Created with Sketch.</desc>
    <defs></defs>
    <g id="Symbols" stroke="none" stroke-width="1" fill="none" fill-rule="evenodd">
        <g id="Footer-Part-B" transform="translate(-192.000000, -53.000000)">
            <g id="logo-koma-facade-inline-white" transform="translate(192.000000, 53.000000)">
                <path d="M21.9123768,18.4590991 L11.9887711,9.00720721 L21.3945739,0.08 L14.320662,0.08 L7.34028169,6.90594595 L5.43266197,6.90594595 L5.43266197,0.08 L0.251077465,0.08 L0.251077465,18.4590991 L5.43266197,18.4590991 L5.43266197,11.6327928 L7.47328873,11.6327928 L14.4508239,18.4590991 L21.9123768,18.4590991 L21.9123768,18.4590991 Z M39.8196056,13.3387387 C39.8196056,13.6010811 39.6894437,13.7326126 39.4308979,13.7326126 L28.9365,13.7326126 C28.677243,13.7326126 28.5477923,13.6010811 28.5477923,13.3387387 L28.5477923,5.19927928 C28.5477923,4.9372973 28.677243,4.80612613 28.9365,4.80612613 L39.4308979,4.80612613 C39.6894437,4.80612613 39.8196056,4.9372973 39.8196056,5.19927928 L39.8196056,13.3387387 L39.8196056,13.3387387 Z M45.0011901,14.2569369 L45.0011901,4.28 C45.0011901,1.76 43.3428697,0.08 39.8196056,0.08 L28.5477923,0.08 C25.0238169,0.08 23.3654965,1.76 23.3654965,4.28 L23.3654965,14.2569369 C23.3654965,16.7783784 25.0238169,18.4590991 28.5477923,18.4590991 L39.8196056,18.4590991 C43.3428697,18.4590991 45.0011901,16.7783784 45.0011901,14.2569369 L45.0011901,14.2569369 Z M68.1490387,18.4590991 L73.3313345,18.4590991 L73.3313345,0.08 L68.1490387,0.08 L61.3087782,8.71783784 L54.4674507,0.08 L49.2855106,0.08 L49.2855106,18.4590991 L54.4674507,18.4590991 L54.4674507,8.27171171 L61.3087782,16.8832432 L68.1490387,8.27171171 L68.1490387,18.4590991 L68.1490387,18.4590991 Z M91.0795951,10.581982 L85.8197711,10.581982 L88.4368803,5.27855856 L91.0795951,10.581982 L91.0795951,10.581982 Z M100.874461,18.4590991 L91.209757,0.08 L86.0015,0.08 L76.3360845,18.4590991 L81.9077993,18.4590991 L83.461919,15.3077477 L93.4114859,15.3077477 L94.9922782,18.4590991 L100.874461,18.4590991 L100.874461,18.4590991 Z" id="Fill-2" fill="#F1F1F1"></path>
                <path d="M116,18.24 L118.045838,18.24 L118.045838,10.9686486 L125.415784,10.9686486 L125.415784,9.19394595 L118.045838,9.19394595 L118.045838,2.76064865 L126.648216,2.76064865 L126.648216,0.985945946 L116,0.985945946 L116,18.24 Z M137.148541,18.24 L135.669622,18.24 L135.472432,17.328 C134.880865,17.9195676 134.018162,18.24 133.007568,18.24 L130.246919,18.24 C128.176432,18.24 126.771459,16.835027 126.771459,14.7645405 L126.771459,14.4441081 C126.771459,12.348973 128.176432,10.9686486 130.246919,10.9686486 L133.007568,10.9686486 C133.894919,10.9686486 134.659027,11.2397838 135.250595,11.6834595 L135.250595,8.84886486 C135.250595,7.76432432 134.560432,7.07416216 133.451243,7.07416216 L130.96173,7.07416216 C129.877189,7.07416216 129.187027,7.76432432 129.187027,8.84886486 L129.187027,9.48972973 L127.264432,9.48972973 L127.264432,8.89816216 C127.264432,6.80302703 128.669405,5.4227027 130.739892,5.4227027 L133.69773,5.4227027 C135.768216,5.4227027 137.148541,6.80302703 137.148541,8.89816216 L137.148541,18.24 Z M133.451243,16.5885405 C134.511135,16.5885405 135.176649,15.9723243 135.250595,14.9617297 L135.250595,14.1236757 C135.176649,13.1130811 134.511135,12.4968649 133.451243,12.4968649 L130.468757,12.4968649 C129.384216,12.4968649 128.694054,13.187027 128.694054,14.2715676 L128.694054,14.7891892 C128.694054,15.8983784 129.384216,16.5885405 130.468757,16.5885405 L133.451243,16.5885405 Z M148.832,13.9264865 L148.832,14.592 C148.832,15.7997838 148.067892,16.5885405 146.835459,16.5885405 L144.247351,16.5885405 C143.039568,16.5885405 142.275459,15.7997838 142.275459,14.592 L142.275459,9.04605405 C142.275459,7.83827027 143.039568,7.07416216 144.247351,7.07416216 L146.835459,7.07416216 C148.067892,7.07416216 148.832,7.83827027 148.832,9.04605405 L148.832,9.73621622 L150.729946,9.73621622 L150.729946,9.09535135 C150.729946,6.87697297 149.275676,5.4227027 147.057297,5.4227027 L144.025514,5.4227027 C141.831784,5.4227027 140.352865,6.87697297 140.352865,9.09535135 L140.352865,14.5673514 C140.352865,16.7610811 141.831784,18.24 144.025514,18.24 L147.057297,18.24 C149.275676,18.24 150.729946,16.7610811 150.729946,14.5673514 L150.729946,13.9264865 L148.832,13.9264865 Z M163.448649,18.24 L161.96973,18.24 L161.772541,17.328 C161.180973,17.9195676 160.31827,18.24 159.307676,18.24 L156.547027,18.24 C154.476541,18.24 153.071568,16.835027 153.071568,14.7645405 L153.071568,14.4441081 C153.071568,12.348973 154.476541,10.9686486 156.547027,10.9686486 L159.307676,10.9686486 C160.195027,10.9686486 160.959135,11.2397838 161.550703,11.6834595 L161.550703,8.84886486 C161.550703,7.76432432 160.860541,7.07416216 159.751351,7.07416216 L157.261838,7.07416216 C156.177297,7.07416216 155.487135,7.76432432 155.487135,8.84886486 L155.487135,9.48972973 L153.564541,9.48972973 L153.564541,8.89816216 C153.564541,6.80302703 154.969514,5.4227027 157.04,5.4227027 L159.997838,5.4227027 C162.068324,5.4227027 163.448649,6.80302703 163.448649,8.89816216 L163.448649,18.24 Z M159.751351,16.5885405 C160.811243,16.5885405 161.476757,15.9723243 161.550703,14.9617297 L161.550703,14.1236757 C161.476757,13.1130811 160.811243,12.4968649 159.751351,12.4968649 L156.768865,12.4968649 C155.684324,12.4968649 154.994162,13.187027 154.994162,14.2715676 L154.994162,14.7891892 C154.994162,15.8983784 155.684324,16.5885405 156.768865,16.5885405 L159.751351,16.5885405 Z M177.030054,0 L177.030054,18.24 L175.551135,18.24 L175.378595,17.2047568 C174.73773,17.8702703 173.801081,18.24 172.691892,18.24 L170.325622,18.24 C168.131892,18.24 166.652973,16.7610811 166.652973,14.5673514 L166.652973,9.09535135 C166.652973,6.87697297 168.131892,5.4227027 170.325622,5.4227027 L172.691892,5.4227027 C173.653189,5.4227027 174.491243,5.71848649 175.132108,6.23610811 L175.132108,0 L177.030054,0 Z M175.132108,9.04605405 C175.132108,7.83827027 174.343351,7.07416216 173.135568,7.07416216 L170.547459,7.07416216 C169.339676,7.07416216 168.575568,7.83827027 168.575568,9.04605405 L168.575568,14.592 C168.575568,15.7997838 169.339676,16.5885405 170.547459,16.5885405 L173.135568,16.5885405 C174.269405,16.5885405 175.058162,15.8737297 175.132108,14.7645405 L175.132108,9.04605405 Z M188.713514,14.172973 L190.611459,14.172973 L190.611459,14.5673514 C190.611459,16.7610811 189.157189,18.24 186.938811,18.24 L183.907027,18.24 C181.713297,18.24 180.234378,16.7610811 180.234378,14.5673514 L180.234378,9.09535135 C180.234378,6.87697297 181.713297,5.4227027 183.907027,5.4227027 L186.938811,5.4227027 C189.157189,5.4227027 190.611459,6.87697297 190.611459,9.09535135 L190.611459,12.4475676 L182.156973,12.4475676 L182.156973,14.592 C182.156973,15.7997838 182.921081,16.5885405 184.128865,16.5885405 L186.716973,16.5885405 C187.949405,16.5885405 188.713514,15.7997838 188.713514,14.592 L188.713514,14.172973 Z M182.156973,9.04605405 L182.156973,10.9193514 L188.713514,10.9193514 L188.713514,9.04605405 C188.713514,7.83827027 187.949405,7.07416216 186.716973,7.07416216 L184.128865,7.07416216 C182.921081,7.07416216 182.156973,7.83827027 182.156973,9.04605405 Z" id="Facade" fill="#FFFFFF"></path>
            </g>
        </g>
    </g>
</svg>