<?xml version="1.0" encoding="UTF-8" standalone="no"?>
<svg width="159px" height="58px" viewBox="0 0 159 58" version="1.1" xmlns="http://www.w3.org/2000/svg" xmlns:xlink="http://www.w3.org/1999/xlink" xmlns:sketch="http://www.bohemiancoding.com/sketch/ns">
    <!-- Generator: Sketch 3.2.2 (9983) - http://www.bohemiancoding.com/sketch -->
    <title>LOGO KOMA Modular</title>
    <desc>Created with Sketch.</desc>
    <defs></defs>
    <g id="HOMEPAGE-V3" stroke="none" stroke-width="1" fill="none" fill-rule="evenodd" sketch:type="MSPage">
        <g id="HOMEPAGE" sketch:type="MSArtboardGroup" transform="translate(-194.000000, -75.000000)">
            <g id="Header-(MAIN)" sketch:type="MSLayerGroup">
                <g id="LOGO-KOMA-Modular" transform="translate(194.000000, 75.000000)" sketch:type="MSShapeGroup">
                    <path d="M98,43 L95.0282827,43 C93.7431399,43 92.6573093,43.4324906 91.9145203,44.2113139 L91.7146466,43 L90,43 L90,58 L92.2289283,58 L92.2289283,47.2398821 C92.2289283,45.8262102 93.1143238,44.9323206 94.514001,44.9323206 L98,44.9323206 L98,43 L98,43 Z M81.0789688,56 L77.8946591,56 C76.7368693,56 76,55.157197 76,53.8012547 L76,53.1685606 C76,51.8433949 76.7368693,51 77.8946591,51 L81.0789688,51 C82.2109034,51 82.9208835,51.7528409 83,52.9880445 L83,54.0119555 C82.9208835,55.2471591 82.2109034,56 81.0789688,56 L81.0789688,56 Z M86,58 L86,47.067566 C86,44.6154631 84.4038085,43 82.0100812,43 L78.5891907,43 C76.1949034,43 74.5701484,44.6154631 74.5701484,47.067566 L74.5701484,47.7590976 L76.7936152,47.7590976 L76.7936152,47.0091826 C76.7936152,45.7400521 77.591711,44.9323206 78.8457015,44.9323206 L81.7244469,44.9323206 C83.0070008,44.9323206 83.8050966,45.7400521 83.8050966,47.0091826 L83.8050966,50.3268337 C83.1212546,49.8076182 82.2374685,49.489627 81.2114254,49.489627 L78.0190423,49.489627 C75.624755,49.489627 74,51.1062238 74,53.5571931 L74,53.932434 C74,56.3556286 75.624755,58 78.0190423,58 L81.2114254,58 C82.3802856,58 83.3772053,57.6247591 84.0616074,56.9326607 L84.2895547,58 L86,58 L86,58 Z M68,58 L70,58 L70,37 L68,37 L68,58 Z M52,43 L52,53.7017345 C52,56.2689038 53.709965,58 56.2466278,58 L58.9826838,58 C60.2658576,58 61.3490782,57.5669425 62.0900817,56.7881193 L62.2894749,58 L64,58 L64,43 L61.8049942,43 L61.8049942,53.9613423 C61.7192999,55.2599479 60.8074679,56.0671126 59.4962894,56.0671126 L56.5031505,56.0671126 C55.1068378,56.0671126 54.2230105,55.1726562 54.2230105,53.7306428 L54.2230105,43 L52,43 L52,43 Z M45,47.2796274 L45,53.8911627 C44.9214006,55.1734881 44.0790426,56 42.8685085,56 L40.1051193,56 C38.8159858,56 38,55.0878131 38,53.6918143 L38,47.2796274 C38,45.8830686 38.8159858,45 40.1051193,45 L42.8685085,45 C44.1581591,45 45,45.8830686 45,47.2796274 L45,47.2796274 Z M48,37 L45.8049942,37 L45.8049942,44.1801163 C45.0639907,43.5834462 44.0950292,43.2432885 42.9832439,43.2432885 L40.2466278,43.2432885 C37.7105251,43.2432885 36,44.9173106 36,47.4712818 L36,53.7714491 C36,56.2969808 37.7105251,58 40.2466278,58 L42.9832439,58 C44.2658576,58 45.3490782,57.5739664 46.0900817,56.807775 L46.2894749,58 L48,58 L48,37 L48,37 Z M33,53.7017345 L33,47.2976987 C33,44.7016211 31.3185998,43 28.7528121,43 L25.2471879,43 C22.709965,43 21,44.7016211 21,47.2976987 L21,53.7017345 C21,56.2689038 22.709965,58 25.2471879,58 L28.7528121,58 C31.3185998,58 33,56.2689038 33,53.7017345 L33,53.7017345 Z M30,53.6918143 C30,55.0878131 29.1840745,56 27.8681489,56 L25.1054809,56 C23.8164426,56 23,55.0878131 23,53.6918143 L23,47.2796274 C23,45.8830686 23.8164426,45 25.1054809,45 L27.8681489,45 C29.1840745,45 30,45.8830686 30,47.2796274 L30,53.6918143 L30,53.6918143 Z M14.6843909,58 L17,58 L17,38 L14.740991,38 L8.5,49.8283132 L2.25900901,38 L0,38 L0,58 L2.34335422,58 L2.34335422,42.6571036 L8.5,54.3428122 L14.6843909,42.6571036 L14.6843909,58 L14.6843909,58 Z" id="Fill-1" fill="#A0ADA2"></path>
                    <path d="M34,29 L18.423283,14.0856819 L33.1865362,0 L22.0833128,0 L11.1266244,10.7705691 L8.13352343,10.7705691 L8.13352343,0 L0,0 L0,29 L8.13352343,29 L8.13352343,18.2288633 L11.335562,18.2288633 L22.287236,29 L34,29 L34,29 Z M63,20.3817391 C63,20.7941011 62.7930839,21 62.3792517,21 L45.6207483,21 C45.2063492,21 45,20.7941011 45,20.3817391 L45,7.61769683 C45,7.20589894 45.2063492,7 45.6207483,7 L62.3792517,7 C62.7930839,7 63,7.20589894 63,7.61769683 L63,20.3817391 L63,20.3817391 Z M71,22.3709097 L71,6.62909034 C71,2.65163614 68.3937982,0 62.8561772,0 L45.1438228,0 C39.605644,0 37,2.65163614 37,6.62909034 L37,22.3709097 C37,26.3483639 39.605644,29 45.1438228,29 L62.8561772,29 C68.3937982,29 71,26.3483639 71,22.3709097 L71,22.3709097 Z M106.809861,29 L115,29 L115,0 L106.809861,0 L96.000561,13.6304995 L85.1895778,0 L77,0 L77,29 L85.1895778,29 L85.1895778,12.9250235 L96.000561,26.5140911 L106.809861,12.9250235 L106.809861,29 L106.809861,29 Z M143,16 L135,16 L138.980024,8 L143,16 L143,16 Z M159,29 L143.638655,0 L135.360781,0 L120,29 L128.854481,29 L131.325656,24.0281822 L147.139486,24.0281822 L149.651848,29 L159,29 L159,29 Z" id="Fill-2" fill="#C5222A"></path>
                </g>
            </g>
        </g>
    </g>
</svg>