<?xml version="1.0" encoding="UTF-8"?>
<svg width="165px" height="63px" viewBox="0 0 165 63" version="1.1" xmlns="http://www.w3.org/2000/svg" xmlns:xlink="http://www.w3.org/1999/xlink">
    <!-- Generator: Sketch 48.2 (47327) - http://www.bohemiancoding.com/sketch -->
    <title>KOMA Group Logo</title>
    <desc>Created with Sketch.</desc>
    <defs></defs>
    <g id="Header-(MAIN)" stroke="none" stroke-width="1" fill="none" fill-rule="evenodd" transform="translate(-191.000000, -75.000000)">
        <g id="KOMA-Group-Logo" transform="translate(191.000000, 75.000000)">
            <path d="M0.96,57 L0.96,37.4 L13.056,37.4 L13.056,39.416 L3.284,39.416 L3.284,46.724 L11.656,46.724 L11.656,48.74 L3.284,48.74 L3.284,57 L0.96,57 Z M24.984,57 L23.304,57 L23.08,55.964 C22.408,56.636 21.428,57 20.28,57 L17.144,57 C14.792,57 13.196,55.404 13.196,53.052 L13.196,52.688 C13.196,50.308 14.792,48.74 17.144,48.74 L20.28,48.74 C21.288,48.74 22.156,49.048 22.828,49.552 L22.828,46.332 C22.828,45.1 22.044,44.316 20.784,44.316 L17.956,44.316 C16.724,44.316 15.94,45.1 15.94,46.332 L15.94,47.06 L13.756,47.06 L13.756,46.388 C13.756,44.008 15.352,42.44 17.704,42.44 L21.064,42.44 C23.416,42.44 24.984,44.008 24.984,46.388 L24.984,57 Z M20.784,55.124 C21.988,55.124 22.744,54.424 22.828,53.276 L22.828,52.324 C22.744,51.176 21.988,50.476 20.784,50.476 L17.396,50.476 C16.164,50.476 15.38,51.26 15.38,52.492 L15.38,53.08 C15.38,54.34 16.164,55.124 17.396,55.124 L20.784,55.124 Z M39.376,57 L37.22,57 L37.22,46.556 C37.22,45.184 36.352,44.316 34.952,44.316 L33.328,44.316 C31.956,44.316 31.088,45.184 31.088,46.556 L31.088,57 L28.904,57 L28.904,42.44 L30.584,42.44 L30.78,43.616 C31.508,42.86 32.572,42.44 33.832,42.44 L35.204,42.44 C36.716,42.44 37.92,43.056 38.648,44.092 C39.348,43.056 40.58,42.44 42.064,42.44 L43.52,42.44 C46.012,42.44 47.692,44.092 47.692,46.612 L47.692,57 L45.508,57 L45.508,46.556 C45.508,45.184 44.64,44.316 43.268,44.316 L41.644,44.316 C40.272,44.316 39.376,45.184 39.376,46.556 L39.376,57 Z M51.612,57 L51.612,42.44 L53.796,42.44 L53.796,57 L51.612,57 Z M51.612,40.34 L51.612,37.176 L53.796,37.176 L53.796,40.34 L51.612,40.34 Z M57.716,57 L57.716,36.28 L59.9,36.28 L59.9,57 L57.716,57 Z M68.44,62.6 L66.116,62.6 L68.272,57 L67.992,57 L62.42,42.44 L64.744,42.44 L69.364,54.592 L73.984,42.44 L76.168,42.44 L68.44,62.6 Z" id="Family" fill="#9FACA2"></path>
            <path d="M165,30 L149.247692,0 L140.759716,0 L125.007408,30 L134.087245,30 L136.621315,24.8567403 L152.838202,24.8567403 L155.414506,30 L165,30 L165,30 Z M149.036519,17.1430249 L140.464075,17.1430249 L144.72918,8.48579145 L149.036519,17.1430249 L149.036519,17.1430249 Z M111.663623,30 L120.109943,30 L120.109943,0 L111.663623,0 L100.514875,14.1005167 L89.3655478,0 L80.9192281,0 L80.9192281,30 L89.3655478,30 L89.3655478,13.3713011 L100.514875,27.4283701 L111.663623,13.3713011 L111.663623,30 L111.663623,30 Z M73.9366518,23.1423203 L73.9366518,6.85767966 C73.9366518,2.74307186 71.2336444,0 65.4903321,0 L47.1194857,0 C41.3761734,0 38.673166,2.74307186 38.673166,6.85767966 L38.673166,23.1423203 C38.673166,27.2569281 41.3761734,30 47.1194857,30 L65.4903321,30 C71.2336444,30 73.9366518,27.2569281 73.9366518,23.1423203 L73.9366518,23.1423203 Z M65.4903321,21.64279 C65.4903321,22.071395 65.2791597,22.2856975 64.8568148,22.2856975 L47.753003,22.2856975 C47.3306581,22.2856975 47.1194857,22.071395 47.1194857,21.64279 L47.1194857,8.35779709 C47.1194857,7.92860498 47.3306581,7.71430249 47.753003,7.71430249 L64.8568148,7.71430249 C65.2791597,7.71430249 65.4903321,7.92860498 65.4903321,8.35779709 L65.4903321,21.64279 L65.4903321,21.64279 Z M36.3057203,30 L20.1310673,14.5719822 L35.4610305,0 L23.931593,0 L12.5543153,11.1419681 L9.4457411,11.1419681 L9.4457411,0 L1,0 L1,30 L9.4457411,30 L9.4457411,18.8574448 L12.7712733,18.8574448 L24.143344,30 L36.3057203,30 L36.3057203,30 Z" id="Fill-2" fill="#C20E1A"></path>
        </g>
    </g>
</svg>