<?xml version="1.0" encoding="UTF-8"?>
<svg width="159px" height="58px" viewBox="0 0 159 58" version="1.1" xmlns="http://www.w3.org/2000/svg" xmlns:xlink="http://www.w3.org/1999/xlink">
    <!-- Generator: Sketch 47.1 (45422) - http://www.bohemiancoding.com/sketch -->
    <title>LOGO KOMA Facade</title>
    <desc>Created with Sketch.</desc>
    <defs></defs>
    <g id="Symbols" stroke="none" stroke-width="1" fill="none" fill-rule="evenodd">
        <g id="Header-(MAIN)" transform="translate(-194.000000, -75.000000)">
            <g id="LOGO-KOMA-Facade" transform="translate(194.000000, 75.000000)">
                <path d="M34,29 L18.423283,14.0856819 L33.1865362,0 L22.0833128,0 L11.1266244,10.7705691 L8.13352343,10.7705691 L8.13352343,0 L0,0 L0,29 L8.13352343,29 L8.13352343,18.2288633 L11.335562,18.2288633 L22.287236,29 L34,29 L34,29 Z M63,20.3817391 C63,20.7941011 62.7930839,21 62.3792517,21 L45.6207483,21 C45.2063492,21 45,20.7941011 45,20.3817391 L45,7.61769683 C45,7.20589894 45.2063492,7 45.6207483,7 L62.3792517,7 C62.7930839,7 63,7.20589894 63,7.61769683 L63,20.3817391 L63,20.3817391 Z M71,22.3709097 L71,6.62909034 C71,2.65163614 68.3937982,0 62.8561772,0 L45.1438228,0 C39.605644,0 37,2.65163614 37,6.62909034 L37,22.3709097 C37,26.3483639 39.605644,29 45.1438228,29 L62.8561772,29 C68.3937982,29 71,26.3483639 71,22.3709097 L71,22.3709097 Z M106.809861,29 L115,29 L115,0 L106.809861,0 L96.000561,13.6304995 L85.1895778,0 L77,0 L77,29 L85.1895778,29 L85.1895778,12.9250235 L96.000561,26.5140911 L106.809861,12.9250235 L106.809861,29 L106.809861,29 Z M143,16 L135,16 L138.980024,8 L143,16 L143,16 Z M159,29 L143.638655,0 L135.360781,0 L120,29 L128.854481,29 L131.325656,24.0281822 L147.139486,24.0281822 L149.651848,29 L159,29 L159,29 Z" id="Fill-2" fill="#C4232A"></path>
                <path d="M12.4162706,38.1351627 L12.4162706,40.1783196 L2.38547248,40.1783196 L2.38547248,47.5851032 L10.9791664,47.5851032 L10.9791664,49.6284301 L2.38547248,49.6284301 L2.38547248,58 L0,58 L0,38.1351627 L12.4162706,38.1351627 Z M20.6362657,43.2432249 C23.0506697,43.2432249 24.6601576,44.8325547 24.6601576,47.2446904 L24.6601576,58 L22.9356325,58 L22.7057303,56.9500255 C22.0158514,57.6310211 21.0099645,58 19.8315218,58 L16.6125461,58 C14.1983143,58 12.5598949,56.3824442 12.5598949,53.9987045 L12.5598949,53.6297256 C12.5598949,51.2175899 14.1981421,49.6284301 16.6125461,49.6284301 L19.8315218,49.6284301 C20.8663402,49.6284301 21.7571898,49.9406168 22.4470687,50.451406 L22.4470687,47.1878983 C22.4470687,45.9391513 21.6423248,45.1445714 20.3488449,45.1445714 L17.4460493,45.1445714 C16.1813287,45.1445714 15.3765848,45.9391513 15.3765848,47.1878983 L15.3765848,47.925686 L13.1347366,47.925686 L13.1347366,47.2446904 C13.1347366,44.8325547 14.7729838,43.2432249 17.1873878,43.2432249 L20.6362657,43.2432249 Z M36.2141657,43.2432249 C38.8009533,43.2432249 40.4965469,44.9175729 40.4965469,47.4716889 L40.4965469,48.2094767 L38.283458,48.2094767 L38.283458,47.4148968 C38.283458,46.0243395 37.3924362,45.1445714 35.9555041,45.1445714 L32.9376713,45.1445714 C31.5293264,45.1445714 30.6383046,46.0243395 30.6383046,47.4148968 L30.6383046,53.799932 C30.6383046,55.1904893 31.5293264,56.0986535 32.9376713,56.0986535 L35.9555041,56.0986535 C37.3926084,56.0986535 38.283458,55.1904893 38.283458,53.799932 L38.283458,53.0337482 L40.4965469,53.0337482 L40.4965469,53.771706 C40.4965469,56.2972559 38.8007811,58 36.2141657,58 L32.6788376,58 C30.1209815,58 28.3964564,56.2972559 28.3964564,53.771706 L28.3964564,47.4716889 C28.3964564,44.9175729 30.1208093,43.2432249 32.6788376,43.2432249 L36.2141657,43.2432249 Z M51.3033296,43.2432249 C53.7175614,43.2432249 55.3270493,44.8325547 55.3270493,47.2446904 L55.3270493,58 L53.6026964,58 L53.3726219,56.9500255 C52.6829152,57.6310211 51.6770284,58 50.4985857,58 L47.27961,58 C44.865206,58 43.2269588,56.3824442 43.2269588,53.9987045 L43.2269588,53.6297256 C43.2269588,51.2175899 44.865206,49.6284301 47.27961,49.6284301 L50.4985857,49.6284301 C51.5332319,49.6284301 52.4242537,49.9406168 53.1139604,50.451406 L53.1139604,47.1878983 C53.1139604,45.9391513 52.3092165,45.1445714 51.0159088,45.1445714 L48.112941,45.1445714 C46.8483926,45.1445714 46.0436487,45.9391513 46.0436487,47.1878983 L46.0436487,47.925686 L43.8018005,47.925686 L43.8018005,47.2446904 C43.8018005,44.8325547 45.4400477,43.2432249 47.8542795,43.2432249 L51.3033296,43.2432249 Z M82.7176188,43.2432249 C85.3044064,43.2432249 87,44.9175729 87,47.4716889 L87,51.3310041 L77.1417577,51.3310041 L77.1417577,53.799932 C77.1417577,55.1904893 78.0327796,56.0986535 79.4411245,56.0986535 L82.4589573,56.0986535 C83.8960615,56.0986535 84.7869111,55.1904893 84.7869111,53.799932 L84.7869111,53.3175388 L87,53.3175388 L87,53.771706 C87,56.2972559 85.3044064,58 82.7176188,58 L79.1824629,58 C76.6244346,58 74.8999095,56.2972559 74.8999095,53.771706 L74.8999095,47.4716889 C74.8999095,44.9175729 76.6244346,43.2432249 79.1824629,43.2432249 L82.7176188,43.2432249 Z M71.1636107,37 L71.1636107,58 L69.4390857,58 L69.2379427,56.8080451 C68.4907174,57.574399 67.3985526,58 66.1050727,58 L63.3459015,58 C60.7880454,58 59.0635203,56.2972559 59.0635203,53.771706 L59.0635203,47.4716889 C59.0635203,44.9175729 60.7878731,43.2432249 63.3459015,43.2432249 L66.1050727,43.2432249 C67.226169,43.2432249 68.2032966,43.5838077 68.9505219,44.1797851 L68.9505219,37 L71.1636107,37 Z M20.3488449,56.0986535 C21.5848062,56.0986535 22.3607908,55.3890918 22.4470687,54.225703 L22.4470687,53.2607467 C22.3607908,52.097358 21.5848062,51.3877962 20.3488449,51.3877962 L16.8712076,51.3877962 C15.606487,51.3877962 14.8017431,52.1823761 14.8017431,53.4311231 L14.8017431,54.0271006 C14.8017431,55.3040736 15.606487,56.0986535 16.8712076,56.0986535 L20.3488449,56.0986535 Z M51.0159088,56.0986535 C52.2518701,56.0986535 53.0278547,55.3890918 53.1139604,54.225703 L53.1139604,53.2607467 C53.0278547,52.097358 52.2516979,51.3877962 51.0159088,51.3877962 L47.5382715,51.3877962 C46.2735509,51.3877962 45.468807,52.1823761 45.468807,53.4311231 L45.468807,54.0271006 C45.468807,55.3040736 46.2735509,56.0986535 47.5382715,56.0986535 L51.0159088,56.0986535 Z M66.6223958,56.0986535 C67.944635,56.0986535 68.864244,55.2756775 68.9505219,53.9987045 L68.9505219,47.4148968 C68.9505219,46.0243395 68.0307407,45.1445714 66.6223958,45.1445714 L63.604563,45.1445714 C62.1962181,45.1445714 61.3053684,46.0243395 61.3053684,47.4148968 L61.3053684,53.799932 C61.3053684,55.1904893 62.1962181,56.0986535 63.604563,56.0986535 L66.6223958,56.0986535 Z M84.7869111,49.5716379 L84.7869111,47.4148968 C84.7869111,46.0243395 83.8960615,45.1445714 82.4589573,45.1445714 L79.4411245,45.1445714 C78.0327796,45.1445714 77.1417577,46.0243395 77.1417577,47.4148968 L77.1417577,49.5716379 L84.7869111,49.5716379 Z" id="Fill-1" fill="#9FACA2"></path>
            </g>
        </g>
    </g>
</svg>