<?xml version="1.0" encoding="UTF-8"?>
<svg width="194px" height="19px" viewBox="0 0 194 19" version="1.1" xmlns="http://www.w3.org/2000/svg" xmlns:xlink="http://www.w3.org/1999/xlink">
    <!-- Generator: Sketch 48.2 (47327) - http://www.bohemiancoding.com/sketch -->
    <title>logo-koma-family-inline-white</title>
    <desc>Created with Sketch.</desc>
    <defs></defs>
    <g id="Footer-Part-B" stroke="none" stroke-width="1" fill="none" fill-rule="evenodd" transform="translate(-192.000000, -53.000000)">
        <g id="logo-koma-family-inline-white" transform="translate(192.000000, 53.000000)">
            <path d="M112,18 L112,0 L123.108571,0 L123.108571,1.85142857 L114.134286,1.85142857 L114.134286,8.56285714 L121.822857,8.56285714 L121.822857,10.4142857 L114.134286,10.4142857 L114.134286,18 L112,18 Z M132.365714,0 L139,18 L136.762857,18 L135.065714,13.3714286 L126.991429,13.3714286 L125.294286,18 L123.108571,18 L129.768571,0 L132.365714,0 Z M131.028571,2.26285714 L127.557143,11.52 L134.5,11.52 L131.028571,2.26285714 Z M154.171429,18 L154.171429,4.19142857 L148.54,14.7085714 L142.934286,4.19142857 L142.934286,18 L140.8,18 L140.8,0 L142.857143,0 L148.54,10.6457143 L154.222857,0 L156.28,0 L156.28,18 L154.171429,18 Z M159.88,18 L159.88,0 L162.014286,0 L162.014286,18 L159.88,18 Z M165.614286,18 L165.614286,0 L167.748571,0 L167.748571,16.1485714 L177.237143,16.1485714 L177.237143,18 L165.614286,18 Z M186.674286,11.1085714 L186.674286,18 L184.565714,18 L184.565714,11.1085714 L177.88,0 L180.4,0 L185.645714,8.97428571 L190.942857,0 L193.36,0 L186.674286,11.1085714 Z" id="FAMILY" fill="#FFFFFF"></path>
            <path d="M21.4655769,18.08 L11.7466619,8.8230689 L20.9584546,0.08 L14.0304537,0.08 L7.19405521,6.7651496 L5.32578328,6.7651496 L5.32578328,0.08 L0.251077465,0.08 L0.251077465,18.08 L5.32578328,18.08 L5.32578328,11.3944975 L7.32431877,11.3944975 L14.1579309,18.08 L21.4655769,18.08 L21.4655769,18.08 Z M39.0034398,13.0652555 C39.0034398,13.3221866 38.8759626,13.4510051 38.6227498,13.4510051 L28.3448161,13.4510051 C28.0909066,13.4510051 27.964126,13.3221866 27.964126,13.0652555 L27.964126,5.09368574 C27.964126,4.83710756 28.0909066,4.70864201 28.3448161,4.70864201 L38.6227498,4.70864201 C38.8759626,4.70864201 39.0034398,4.83710756 39.0034398,5.09368574 L39.0034398,13.0652555 L39.0034398,13.0652555 Z M44.0781456,13.9645143 L44.0781456,4.1933681 C44.0781456,1.72534724 42.4540307,0.08 39.0034398,0.08 L27.964126,0.08 C24.5128385,0.08 22.8887236,1.72534724 22.8887236,4.1933681 L22.8887236,13.9645143 C22.8887236,16.4339469 24.5128385,18.08 27.964126,18.08 L39.0034398,18.08 C42.4540307,18.08 44.0781456,16.4339469 44.0781456,13.9645143 L44.0781456,13.9645143 Z M66.7485318,18.08 L71.8239342,18.08 L71.8239342,0.08 L66.7485318,0.08 L60.0493628,8.53966825 L53.349149,0.08 L48.2740949,0.08 L48.2740949,18.08 L53.349149,18.08 L53.349149,8.10274421 L60.0493628,16.5366488 L66.7485318,8.10274421 L66.7485318,18.08 L66.7485318,18.08 Z M89.2061077,10.3653614 L84.0547763,10.3653614 L86.6179033,5.17132975 L89.2061077,10.3653614 L89.2061077,10.3653614 Z M98.7989387,18.08 L89.3335849,0.08 L84.2327567,0.08 L74.7667063,18.08 L80.2234953,18.08 L81.7455588,14.9936504 L91.4898995,14.9936504 L93.0380853,18.08 L98.7989387,18.08 L98.7989387,18.08 Z" id="KOMA" fill="#F1F1F1"></path>
        </g>
    </g>
</svg>