<?xml version="1.0" encoding="UTF-8" standalone="no"?><!DOCTYPE svg PUBLIC "-//W3C//DTD SVG 1.1//EN" "http://www.w3.org/Graphics/SVG/1.1/DTD/svg11.dtd"><svg width="100%" height="100%" viewBox="0 0 276 19" version="1.1" xmlns="http://www.w3.org/2000/svg" xmlns:xlink="http://www.w3.org/1999/xlink" xml:space="preserve" xmlns:serif="http://www.serif.com/" style="fill-rule:evenodd;clip-rule:evenodd;stroke-linejoin:round;stroke-miterlimit:2;"><rect id="Artboard1" x="0" y="0" width="276" height="19" style="fill:none;"/><clipPath id="_clip1"><rect x="0" y="0" width="276" height="19"/></clipPath><g clip-path="url(#_clip1)"><g id="logo-koma-facade-inline-white"><path id="Fill-2" d="M21.466,18.08l-9.719,-9.257l9.211,-8.743l-6.928,0l-6.836,6.685l-1.868,0l0,-6.685l-5.075,0l0,18l5.075,0l0,-6.686l1.998,0l6.834,6.686l7.308,0Zm17.537,-5.015c0,0.257 -0.127,0.386 -0.38,0.386l-10.278,0c-0.254,0 -0.381,-0.129 -0.381,-0.386l0,-7.971c0,-0.257 0.127,-0.385 0.381,-0.385l10.278,0c0.253,0 0.38,0.128 0.38,0.385l0,7.971Zm5.075,0.9l0,-9.772c0,-2.468 -1.624,-4.113 -5.075,-4.113l-11.039,0c-3.451,0 -5.075,1.645 -5.075,4.113l0,9.772c0,2.469 1.624,4.115 5.075,4.115l11.039,0c3.451,0 5.075,-1.646 5.075,-4.115Zm22.671,4.115l5.075,0l0,-18l-5.075,0l-6.7,8.46l-6.7,-8.46l-5.075,0l0,18l5.075,0l0,-9.977l6.7,8.434l6.7,-8.434l0,9.977Zm22.457,-7.715l-5.151,0l2.563,-5.194l2.588,5.194Zm9.593,7.715l-9.465,-18l-5.101,0l-9.466,18l5.456,0l1.523,-3.086l9.744,0l1.548,3.086l5.761,0Z" style="fill:#f1f1f1;"/><g><path d="M122.08,7.31c0,1.242 -0.786,2.027 -2.027,2.027l-6.232,0l0,-7.372l6.232,0c1.241,0 2.027,0.785 2.027,2.027l0,3.318Zm2.102,0.076l0,-3.47c0,-2.28 -1.52,-3.775 -3.774,-3.775l-8.69,0l0,17.733l2.103,0l0,-6.713l6.587,0c2.254,0 3.774,-1.52 3.774,-3.775Z" style="fill:#fff;fill-rule:nonzero;"/><path d="M139.56,7.386l0,-3.47c0,-2.28 -1.52,-3.775 -3.775,-3.775l-8.943,0l0,17.733l2.103,0l0,-6.713l5.345,0l2.964,6.713l2.306,0l-3.091,-6.764c1.875,-0.278 3.091,-1.697 3.091,-3.724Zm-2.103,-0.076c0,1.242 -0.785,2.027 -2.027,2.027l-6.485,0l0,-7.372l6.485,0c1.242,0 2.027,0.785 2.027,2.027l0,3.318Z" style="fill:#fff;fill-rule:nonzero;"/><path d="M153.721,13.998c0,1.242 -0.785,2.052 -2.027,2.052l-4.965,0c-1.241,0 -2.027,-0.81 -2.027,-2.052l0,-10.006c0,-1.242 0.786,-2.027 2.027,-2.027l4.965,0c1.242,0 2.027,0.785 2.027,2.027l0,10.006Zm2.103,0.102l0,-10.184c0,-2.28 -1.52,-3.775 -3.775,-3.775l-5.675,0c-2.254,0 -3.774,1.495 -3.774,3.775l0,10.184c0,2.254 1.52,3.774 3.774,3.774l5.675,0c2.255,0 3.775,-1.52 3.775,-3.774Z" style="fill:#fff;fill-rule:nonzero;"/><path d="M164.158,17.874l2.432,0l6.536,-17.733l-2.128,0l-5.598,15.149l-5.599,-15.149l-2.204,0l6.561,17.733Z" style="fill:#fff;fill-rule:nonzero;"/><path d="M186.021,13.998c0,1.242 -0.785,2.052 -2.027,2.052l-4.965,0c-1.241,0 -2.027,-0.81 -2.027,-2.052l0,-10.006c0,-1.242 0.786,-2.027 2.027,-2.027l4.965,0c1.242,0 2.027,0.785 2.027,2.027l0,10.006Zm2.103,0.102l0,-10.184c0,-2.28 -1.52,-3.775 -3.775,-3.775l-5.675,0c-2.254,0 -3.774,1.495 -3.774,3.775l0,10.184c0,2.254 1.52,3.774 3.774,3.774l5.675,0c2.255,0 3.775,-1.52 3.775,-3.774Z" style="fill:#fff;fill-rule:nonzero;"/><path d="M191.164,16.05l0,1.824l12.844,0l0,-1.824l-10.362,0l10.362,-14.085l0,-1.824l-12.844,0l0,1.824l10.361,0l-10.361,14.085Z" style="fill:#fff;fill-rule:nonzero;"/><path d="M227.492,3.916c0,-2.28 -1.52,-3.775 -3.775,-3.775l-9.069,0l0,17.733l9.196,0c2.254,0 3.774,-1.52 3.774,-3.774l0,-1.647c0,-1.723 -0.912,-2.989 -2.305,-3.471c1.317,-0.506 2.179,-1.773 2.179,-3.445l0,-1.621Zm-1.976,10.082c0,1.242 -0.786,2.052 -2.027,2.052l-6.739,0l0,-6.156l6.739,0c1.241,0 2.027,0.786 2.027,2.052l0,2.052Zm-0.127,-7.954c0,1.241 -0.785,2.026 -2.027,2.026l-6.612,0l0,-6.105l6.612,0c1.242,0 2.027,0.785 2.027,2.027l0,2.052Z" style="fill:#fff;fill-rule:nonzero;"/><path d="M243.122,7.386l0,-3.47c0,-2.28 -1.52,-3.775 -3.774,-3.775l-8.943,0l0,17.733l2.103,0l0,-6.713l5.345,0l2.964,6.713l2.305,0l-3.09,-6.764c1.874,-0.278 3.09,-1.697 3.09,-3.724Zm-2.102,-0.076c0,1.242 -0.786,2.027 -2.027,2.027l-6.485,0l0,-7.372l6.485,0c1.241,0 2.027,0.785 2.027,2.027l0,3.318Z" style="fill:#fff;fill-rule:nonzero;"/><path d="M257.41,17.874l1.976,0l0,-17.733l-2.102,0l0,13.883l-9.146,-13.883l-1.976,0l0,17.733l2.103,0l0,-13.908l9.145,13.908Z" style="fill:#fff;fill-rule:nonzero;"/><path d="M274.054,13.998c0,1.242 -0.785,2.052 -2.026,2.052l-4.966,0c-1.241,0 -2.026,-0.81 -2.026,-2.052l0,-10.006c0,-1.242 0.785,-2.027 2.026,-2.027l4.966,0c1.241,0 2.026,0.785 2.026,2.027l0,10.006Zm2.103,0.102l0,-10.184c0,-2.28 -1.52,-3.775 -3.775,-3.775l-5.674,0c-2.255,0 -3.775,1.495 -3.775,3.775l0,10.184c0,2.254 1.52,3.774 3.775,3.774l5.674,0c2.255,0 3.775,-1.52 3.775,-3.774Z" style="fill:#fff;fill-rule:nonzero;"/></g></g></g></svg>